{
.appVersion = "3246";
.formatVersion = 3;
axes = (
{
name = RIGHT;
tag = RGHT;
},
{
name = LEFT;
tag = LEFT;
}
);
date = "2024-03-08 15:08:02 +0000";
familyName = "WORK MEGAPHONE";
fontMaster = (
{
axesValues = (
0,
0
);
customParameters = (
{
name = "Master Icon Glyph Name";
value = A;
}
);
id = m01;
metricValues = (
{
over = 16;
pos = 800;
},
{
over = 16;
pos = 700;
},
{
over = 16;
pos = 500;
},
{
over = -16;
},
{
over = -16;
pos = -200;
},
{
},
{
pos = 450;
},
{
pos = 200;
}
);
name = "R0 L0";
},
{
axesValues = (
0,
100
);
customParameters = (
{
name = "Master Icon Glyph Name";
value = A;
}
);
id = m002;
metricValues = (
{
over = 16;
pos = 800;
},
{
over = 16;
pos = 700;
},
{
over = 16;
pos = 500;
},
{
over = -16;
},
{
over = -16;
pos = -200;
},
{
},
{
pos = 450;
},
{
pos = 200;
}
);
name = "R0 L100";
},
{
axesValues = (
100,
0
);
customParameters = (
{
name = "Master Icon Glyph Name";
value = A;
}
);
id = m003;
metricValues = (
{
over = 16;
pos = 800;
},
{
over = 16;
pos = 700;
},
{
over = 16;
pos = 500;
},
{
over = -16;
},
{
over = -16;
pos = -200;
},
{
},
{
pos = 450;
},
{
pos = 200;
}
);
name = "R100 L0";
},
{
axesValues = (
100,
100
);
customParameters = (
{
name = "Master Icon Glyph Name";
value = A;
}
);
id = m004;
metricValues = (
{
over = 16;
pos = 800;
},
{
over = 16;
pos = 700;
},
{
over = 16;
pos = 500;
},
{
over = -16;
},
{
over = -16;
pos = -200;
},
{
},
{
pos = 450;
},
{
pos = 200;
}
);
name = "R100 L100";
}
);
glyphs = (
{
glyphname = A;
kernLeft = A;
kernRight = A;
lastChange = "2024-03-08 15:46:43 +0000";
layers = (
{
anchors = (
{
name = bottom;
pos = (335,0);
},
{
name = ogonek;
pos = (659,0);
},
{
name = top;
pos = (335,660);
}
);
layerId = m01;
shapes = (
{
closed = 1;
nodes = (
(253,660,l),
(12,0,l),
(153,0,l),
(208,161,l),
(461,161,l),
(516,0,l),
(659,0,l),
(418,660,l)
);
},
{
closed = 1;
nodes = (
(430,263,l),
(239,263,l),
(334,551,l)
);
}
);
width = 671;
},
{
anchors = (
{
name = bottom;
pos = (335,0);
},
{
name = ogonek;
pos = (659,0);
},
{
name = top;
pos = (335,660);
}
);
layerId = m002;
shapes = (
{
closed = 1;
nodes = (
(252,544,l),
(0,200,l),
(132,161,l),
(187,250,l),
(467,167,l),
(516,46,l),
(671,0,l),
(418,606,l)
);
},
{
closed = 1;
nodes = (
(435,279,l),
(239,336,l),
(334,500,l)
);
}
);
width = 671;
},
{
anchors = (
{
name = bottom;
pos = (335,0);
},
{
name = ogonek;
pos = (628,-48);
},
{
name = top;
pos = (335,660);
}
);
layerId = m003;
shapes = (
{
closed = 1;
nodes = (
(253,606,l),
(0,0,l),
(155,46,l),
(204,167,l),
(484,250,l),
(539,161,l),
(671,200,l),
(419,544,l)
);
},
{
closed = 1;
nodes = (
(432,336,l),
(236,279,l),
(337,500,l)
);
}
);
width = 671;
},
{
anchors = (
{
name = bottom;
pos = (335,0);
},
{
name = ogonek;
pos = (659,0);
},
{
name = top;
pos = (335,660);
}
);
layerId = m004;
shapes = (
{
closed = 1;
nodes = (
(253,450,l),
(12,200,l),
(168,200,l),
(222,264,l),
(447,264,l),
(501,200,l),
(659,200,l),
(418,450,l)
);
},
{
closed = 1;
nodes = (
(386,338,l),
(283,338,l),
(334,383,l)
);
}
);
width = 671;
}
);
note = A;
unicode = 65;
},
{
glyphname = Aogonek;
kernLeft = A;
kernRight = A;
lastChange = "2024-03-08 15:26:52 +0000";
layers = (
{
anchors = (
{
name = bottom;
pos = (335,0);
},
{
name = ogonek;
pos = (659,0);
},
{
name = top;
pos = (335,660);
}
);
layerId = m01;
shapes = (
{
closed = 1;
nodes = (
(649,-206,o),
(667,-194,q),
(646,-123,l),
(636,-130,o),
(609,-134,o),
(597,-134,qs),
(570,-134,o),
(539,-109,o),
(539,-87,qs),
(539,-69,o),
(559,-38,o),
(612,-11,o),
(659,0,q),
(595,31,l),
(520,16,o),
(440,-52,o),
(440,-105,qs),
(440,-142,o),
(474,-190,o),
(534,-215,o),
(572,-215,qs),
(600,-215,o)
);
},
{
closed = 1;
nodes = (
(253,660,l),
(12,0,l),
(153,0,l),
(208,161,l),
(461,161,l),
(516,0,l),
(659,0,l),
(418,660,l)
);
},
{
closed = 1;
nodes = (
(430,263,l),
(239,263,l),
(334,551,l)
);
}
);
width = 671;
},
{
anchors = (
{
name = bottom;
pos = (335,0);
},
{
name = ogonek;
pos = (659,0);
},
{
name = top;
pos = (335,660);
}
);
layerId = m002;
shapes = (
{
closed = 1;
nodes = (
(649,-206,o),
(667,-194,q),
(646,-123,l),
(636,-130,o),
(609,-134,o),
(597,-134,qs),
(570,-134,o),
(539,-109,o),
(539,-87,qs),
(539,-69,o),
(559,-38,o),
(612,-11,o),
(659,0,q),
(595,31,l),
(520,16,o),
(440,-52,o),
(440,-105,qs),
(440,-142,o),
(474,-190,o),
(534,-215,o),
(572,-215,qs),
(600,-215,o)
);
},
{
closed = 1;
nodes = (
(253,660,l),
(12,0,l),
(153,0,l),
(208,161,l),
(461,161,l),
(516,0,l),
(659,0,l),
(418,660,l)
);
},
{
closed = 1;
nodes = (
(430,263,l),
(239,263,l),
(334,551,l)
);
}
);
width = 671;
},
{
anchors = (
{
name = bottom;
pos = (335,0);
},
{
name = ogonek;
pos = (659,0);
},
{
name = top;
pos = (335,660);
}
);
layerId = m003;
shapes = (
{
closed = 1;
nodes = (
(649,-206,o),
(667,-194,q),
(646,-123,l),
(636,-130,o),
(609,-134,o),
(597,-134,qs),
(570,-134,o),
(539,-109,o),
(539,-87,qs),
(539,-69,o),
(559,-38,o),
(612,-11,o),
(659,0,q),
(595,31,l),
(520,16,o),
(440,-52,o),
(440,-105,qs),
(440,-142,o),
(474,-190,o),
(534,-215,o),
(572,-215,qs),
(600,-215,o)
);
},
{
closed = 1;
nodes = (
(253,660,l),
(12,0,l),
(153,0,l),
(208,161,l),
(461,161,l),
(516,0,l),
(659,0,l),
(418,660,l)
);
},
{
closed = 1;
nodes = (
(430,263,l),
(239,263,l),
(334,551,l)
);
}
);
width = 671;
},
{
anchors = (
{
name = bottom;
pos = (335,0);
},
{
name = ogonek;
pos = (659,0);
},
{
name = top;
pos = (335,660);
}
);
layerId = m004;
shapes = (
{
closed = 1;
nodes = (
(649,-206,o),
(667,-194,q),
(646,-123,l),
(636,-130,o),
(609,-134,o),
(597,-134,qs),
(570,-134,o),
(539,-109,o),
(539,-87,qs),
(539,-69,o),
(559,-38,o),
(612,-11,o),
(659,0,q),
(595,31,l),
(520,16,o),
(440,-52,o),
(440,-105,qs),
(440,-142,o),
(474,-190,o),
(534,-215,o),
(572,-215,qs),
(600,-215,o)
);
},
{
closed = 1;
nodes = (
(253,660,l),
(12,0,l),
(153,0,l),
(208,161,l),
(461,161,l),
(516,0,l),
(659,0,l),
(418,660,l)
);
},
{
closed = 1;
nodes = (
(430,263,l),
(239,263,l),
(334,551,l)
);
}
);
width = 671;
}
);
note = Aogonek;
unicode = 260;
},
{
glyphname = AE;
kernLeft = AE;
kernRight = AE;
lastChange = "2024-03-08 15:26:52 +0000";
layers = (
{
anchors = (
{
name = bottom;
pos = (497,0);
},
{
name = ogonek;
pos = (897,0);
},
{
name = top;
pos = (497,660);
}
);
layerId = m01;
shapes = (
{
closed = 1;
nodes = (
(807,281,l),
(807,384,l),
(563,384,l),
(563,552,l),
(883,552,l),
(883,660,l),
(321,660,l),
(0,0,l),
(141,0,l),
(234,202,l),
(432,202,l),
(432,0,l),
(897,0,l),
(897,108,l),
(563,108,l),
(563,281,l)
);
},
{
closed = 1;
nodes = (
(432,555,l),
(432,301,l),
(274,301,l),
(398,555,l)
);
}
);
width = 935;
},
{
anchors = (
{
name = bottom;
pos = (497,0);
},
{
name = ogonek;
pos = (897,0);
},
{
name = top;
pos = (497,660);
}
);
layerId = m002;
shapes = (
{
closed = 1;
nodes = (
(807,281,l),
(807,384,l),
(563,384,l),
(563,552,l),
(883,552,l),
(883,660,l),
(321,660,l),
(0,0,l),
(141,0,l),
(234,202,l),
(432,202,l),
(432,0,l),
(897,0,l),
(897,108,l),
(563,108,l),
(563,281,l)
);
},
{
closed = 1;
nodes = (
(432,555,l),
(432,301,l),
(274,301,l),
(398,555,l)
);
}
);
width = 935;
},
{
anchors = (
{
name = bottom;
pos = (497,0);
},
{
name = ogonek;
pos = (897,0);
},
{
name = top;
pos = (497,660);
}
);
layerId = m003;
shapes = (
{
closed = 1;
nodes = (
(807,281,l),
(807,384,l),
(563,384,l),
(563,552,l),
(883,552,l),
(883,660,l),
(321,660,l),
(0,0,l),
(141,0,l),
(234,202,l),
(432,202,l),
(432,0,l),
(897,0,l),
(897,108,l),
(563,108,l),
(563,281,l)
);
},
{
closed = 1;
nodes = (
(432,555,l),
(432,301,l),
(274,301,l),
(398,555,l)
);
}
);
width = 935;
},
{
anchors = (
{
name = bottom;
pos = (497,0);
},
{
name = ogonek;
pos = (897,0);
},
{
name = top;
pos = (497,660);
}
);
layerId = m004;
shapes = (
{
closed = 1;
nodes = (
(807,281,l),
(807,384,l),
(563,384,l),
(563,552,l),
(883,552,l),
(883,660,l),
(321,660,l),
(0,0,l),
(141,0,l),
(234,202,l),
(432,202,l),
(432,0,l),
(897,0,l),
(897,108,l),
(563,108,l),
(563,281,l)
);
},
{
closed = 1;
nodes = (
(432,555,l),
(432,301,l),
(274,301,l),
(398,555,l)
);
}
);
width = 935;
}
);
note = AE;
unicode = 198;
},
{
glyphname = B;
kernLeft = B;
lastChange = "2024-03-08 16:45:02 +0000";
layers = (
{
anchors = (
{
name = bottom;
pos = (315,0);
},
{
name = ogonek;
pos = (372,0);
},
{
name = top;
pos = (315,660);
}
);
layerId = m01;
shapes = (
{
closed = 1;
nodes = (
(503,0,o),
(626,96,o),
(626,181,qs),
(626,239,o),
(552,323,o),
(483,333,q),
(483,334,l),
(545,345,o),
(609,427,o),
(609,480,qs),
(609,566,o),
(495,660,o),
(375,660,qs),
(86,660,l),
(86,0,l),
(385,0,ls)
);
},
{
closed = 1;
nodes = (
(373,277,ls),
(429,277,o),
(483,233,o),
(483,191,qs),
(483,150,o),
(429,104,o),
(373,104,qs),
(220,104,l),
(220,277,l)
);
},
{
closed = 1;
nodes = (
(357,553,ls),
(466,553,o),
(466,468,qs),
(466,383,o),
(357,383,qs),
(220,383,l),
(220,553,l)
);
}
);
width = 672;
},
{
anchors = (
{
name = bottom;
pos = (315,0);
},
{
name = ogonek;
pos = (372,0);
},
{
name = top;
pos = (315,660);
}
);
layerId = m002;
shapes = (
{
closed = 1;
nodes = (
(498,51,o),
(626,115,o),
(626,200,qs),
(626,258,o),
(552,323,o),
(483,333,q),
(483,334,l),
(545,345,o),
(609,397,o),
(609,450,qs),
(609,536,o),
(489,601,o),
(375,566,qs),
(86,477,l),
(86,175,l),
(385,85,ls)
);
},
{
closed = 1;
nodes = (
(373,277,ls),
(429,277,o),
(483,255,o),
(483,220,qs),
(483,195,o),
(435,181,o),
(373,200,qs),
(220,246,l),
(220,277,l)
);
},
{
closed = 1;
nodes = (
(357,451,ls),
(467,486,o),
(466,432,qs),
(465,382,o),
(357,383,qs),
(220,383,l),
(220,407,l)
);
}
);
width = 672;
},
{
anchors = (
{
name = bottom;
pos = (315,0);
},
{
name = ogonek;
pos = (372,0);
},
{
name = top;
pos = (315,660);
}
);
layerId = m003;
shapes = (
{
closed = 1;
nodes = (
(499,149,o),
(626,187,o),
(626,252,qs),
(626,295,o),
(552,333,o),
(483,333,q),
(483,334,l),
(547,334,o),
(609,376,o),
(609,415,qs),
(609,468,o),
(490,507,o),
(375,543,qs),
(86,633,l),
(86,26,l),
(385,115,ls)
);
},
{
closed = 1;
nodes = (
(373,277,ls),
(429,277,o),
(483,275,o),
(483,265,qs),
(483,256,o),
(427,238,o),
(373,222,qs),
(220,176,l),
(220,277,l)
);
},
{
closed = 1;
nodes = (
(357,437,ls),
(462,404,o),
(466,392,qs),
(466,383,o),
(357,383,qs),
(220,383,l),
(220,480,l)
);
}
);
width = 672;
},
{
anchors = (
{
name = bottom;
pos = (315,0);
},
{
name = ogonek;
pos = (372,0);
},
{
name = top;
pos = (315,660);
}
);
layerId = m004;
shapes = (
{
closed = 1;
nodes = (
(503,200,o),
(626,222,o),
(626,268,qs),
(626,300,o),
(552,322,o),
(483,326,q),
(483,327,l),
(545,331,o),
(609,358,o),
(609,382,qs),
(609,428,o),
(495,450,o),
(375,450,qs),
(86,450,l),
(86,200,l),
(385,200,ls)
);
},
{
closed = 1;
nodes = (
(373,283,ls),
(429,283,o),
(483,283,o),
(483,275,qs),
(483,267,o),
(429,267,o),
(373,267,qs),
(220,267,l),
(220,283,l)
);
},
{
closed = 1;
nodes = (
(357,389,ls),
(466,389,o),
(466,381,qs),
(466,374,o),
(357,374,qs),
(220,374,l),
(220,389,l)
);
}
);
width = 672;
}
);
note = B;
unicode = 66;
},
{
glyphname = C;
kernLeft = C;
kernRight = C;
lastChange = "2024-03-08 17:05:19 +0000";
layers = (
{
anchors = (
{
name = bottom;
pos = (363,0);
},
{
name = ogonek;
pos = (458,0);
},
{
name = top;
pos = (366,660);
}
);
layerId = m01;
shapes = (
{
closed = 1;
nodes = (
(508,161,o),
(429,103,o),
(375,103,qs),
(317,103,o),
(237,155,o),
(196,257,o),
(196,330,qs),
(196,404,o),
(240,505,o),
(321,557,o),
(375,557,qs),
(430,557,o),
(500,506,o),
(517,446,q),
(642,499,l),
(624,556,o),
(547,633,o),
(437,670,o),
(369,670,qs),
(273,670,o),
(130,588,o),
(53,436,o),
(53,330,qs),
(53,224,o),
(130,72,o),
(273,-10,o),
(371,-10,qs),
(438,-10,o),
(550,32,o),
(632,118,o),
(651,182,q),
(524,220,l)
);
}
);
width = 683;
},
{
anchors = (
{
name = bottom;
pos = (363,0);
},
{
name = ogonek;
pos = (458,0);
},
{
name = top;
pos = (366,660);
}
);
layerId = m002;
shapes = (
{
closed = 1;
nodes = (
(511,200,o),
(439,187,o),
(375,203,qs),
(317,218,o),
(237,249,o),
(196,292,o),
(196,330,qs),
(196,353,o),
(240,398,o),
(311,433,o),
(375,453,qs),
(430,470,o),
(509,473,o),
(517,446,q),
(642,499,l),
(624,556,o),
(547,598,o),
(437,588,o),
(369,566,qs),
(279,537,o),
(130,465,o),
(53,380,o),
(53,316,qs),
(53,261,o),
(130,168,o),
(273,112,o),
(371,90,qs),
(439,75,o),
(550,78,o),
(636,134,o),
(651,200,q),
(524,238,l)
);
}
);
width = 683;
},
{
anchors = (
{
name = bottom;
pos = (363,0);
},
{
name = ogonek;
pos = (458,0);
},
{
name = top;
pos = (366,660);
}
);
layerId = m003;
shapes = (
{
closed = 1;
nodes = (
(524,270,o),
(443,236,o),
(379,222,qs),
(322,210,o),
(237,209,o),
(196,257,o),
(196,330,qs),
(196,389,o),
(240,450,o),
(318,450,o),
(375,435,qs),
(437,419,o),
(510,368,o),
(524,320,q),
(642,373,l),
(625,417,o),
(538,487,o),
(437,526,o),
(369,548,qs),
(275,578,o),
(130,550,o),
(53,436,o),
(53,330,qs),
(53,224,o),
(130,102,o),
(283,89,o),
(375,109,qs),
(445,124,o),
(556,158,o),
(634,222,o),
(651,273,q),
(524,311,l)
);
}
);
width = 683;
},
{
anchors = (
{
name = bottom;
pos = (363,0);
},
{
name = ogonek;
pos = (458,0);
},
{
name = top;
pos = (366,660);
}
);
layerId = m004;
shapes = (
{
closed = 1;
nodes = (
(506,308,o),
(429,304,o),
(375,304,qs),
(317,304,o),
(237,308,o),
(196,316,o),
(196,325,qs),
(196,334,o),
(240,342,o),
(321,348,o),
(375,348,qs),
(430,348,o),
(507,342,o),
(524,333,q),
(642,388,l),
(624,408,o),
(547,437,o),
(437,450,o),
(369,450,qs),
(273,450,o),
(130,420,o),
(53,363,o),
(53,325,qs),
(53,287,o),
(130,228,o),
(273,200,o),
(371,200,qs),
(438,200,o),
(550,215,o),
(632,247,o),
(651,270,q),
(524,317,l)
);
}
);
width = 683;
}
);
note = C;
unicode = 67;
},
{
glyphname = D;
kernLeft = B;
kernRight = D;
lastChange = "2024-03-08 17:06:12 +0000";
layers = (
{
anchors = (
{
name = bottom;
pos = (340,0);
},
{
name = center;
pos = (233,210);
},
{
name = ogonek;
pos = (347,0);
},
{
name = top;
pos = (352,660);
}
);
layerId = m01;
shapes = (
{
closed = 1;
nodes = (
(86,0,l),
(341,0,ls),
(496,0,o),
(666,172,o),
(666,330,qs),
(666,489,o),
(496,660,o),
(341,660,qs),
(86,660,l)
);
},
{
closed = 1;
nodes = (
(224,550,l),
(334,550,ls),
(428,550,o),
(523,437,o),
(523,330,qs),
(523,223,o),
(428,110,o),
(334,110,qs),
(224,110,l)
);
}
);
width = 719;
},
{
anchors = (
{
name = bottom;
pos = (340,0);
},
{
name = center;
pos = (341,0);
},
{
name = ogonek;
pos = (347,0);
},
{
name = top;
pos = (352,660);
}
);
layerId = m002;
shapes = (
{
closed = 1;
nodes = (
(86,175,l),
(341,105,ls),
(522,55,o),
(666,172,o),
(666,330,qs),
(666,489,o),
(518,628,o),
(341,568,qs),
(86,481,l)
);
},
{
closed = 1;
nodes = (
(224,411,l),
(334,443,ls),
(423,469,o),
(523,450,o),
(523,330,qs),
(523,220,o),
(424,203,o),
(334,226,qs),
(224,252,l)
);
}
);
width = 719;
},
{
anchors = (
{
name = bottom;
pos = (340,0);
},
{
name = center;
pos = (233,210);
},
{
name = ogonek;
pos = (347,0);
},
{
name = top;
pos = (352,660);
}
);
layerId = m003;
shapes = (
{
closed = 1;
nodes = (
(86,24,l),
(341,95,ls),
(491,137,o),
(666,214,o),
(666,330,qs),
(666,435,o),
(497,527,o),
(341,581,qs),
(86,670,l)
);
},
{
closed = 1;
nodes = (
(224,500,l),
(334,465,ls),
(424,436,o),
(523,383,o),
(523,330,qs),
(523,270,o),
(426,227,o),
(334,203,qs),
(224,174,l)
);
}
);
width = 719;
},
{
anchors = (
{
name = bottom;
pos = (340,0);
},
{
name = center;
pos = (233,210);
},
{
name = ogonek;
pos = (347,0);
},
{
name = top;
pos = (352,660);
}
);
layerId = m004;
shapes = (
{
closed = 1;
nodes = (
(86,200,l),
(341,200,ls),
(529,200,o),
(666,265,o),
(666,325,qs),
(666,386,o),
(529,450,o),
(341,450,qs),
(86,450,l)
);
},
{
closed = 1;
nodes = (
(224,339,l),
(334,339,ls),
(463,339,o),
(500,332,o),
(500,325,qs),
(500,318,o),
(463,311,o),
(334,311,qs),
(224,311,l)
);
}
);
width = 719;
}
);
note = D;
unicode = 68;
},
{
glyphname = Dcroat;
kernLeft = B;
kernRight = D;
lastChange = "2024-03-08 15:26:52 +0000";
layers = (
{
anchors = (
{
name = bottom;
pos = (361,0);
},
{
name = center;
pos = (253,210);
},
{
name = ogonek;
pos = (368,0);
},
{
name = top;
pos = (373,660);
}
);
layerId = m01;
shapes = (
{
closed = 1;
nodes = (
(399,383,l),
(18,383,l),
(18,280,l),
(399,280,l)
);
},
{
closed = 1;
nodes = (
(107,0,l),
(362,0,ls),
(517,0,o),
(686,172,o),
(686,330,qs),
(686,489,o),
(517,660,o),
(362,660,qs),
(107,660,l)
);
},
{
closed = 1;
nodes = (
(245,550,l),
(354,550,ls),
(449,550,o),
(544,437,o),
(544,330,qs),
(544,223,o),
(449,110,o),
(354,110,qs),
(245,110,l)
);
}
);
width = 740;
},
{
anchors = (
{
name = bottom;
pos = (361,0);
},
{
name = center;
pos = (253,210);
},
{
name = ogonek;
pos = (368,0);
},
{
name = top;
pos = (373,660);
}
);
layerId = m002;
shapes = (
{
closed = 1;
nodes = (
(399,383,l),
(18,383,l),
(18,280,l),
(399,280,l)
);
},
{
closed = 1;
nodes = (
(107,0,l),
(362,0,ls),
(517,0,o),
(686,172,o),
(686,330,qs),
(686,489,o),
(517,660,o),
(362,660,qs),
(107,660,l)
);
},
{
closed = 1;
nodes = (
(245,550,l),
(354,550,ls),
(449,550,o),
(544,437,o),
(544,330,qs),
(544,223,o),
(449,110,o),
(354,110,qs),
(245,110,l)
);
}
);
width = 740;
},
{
anchors = (
{
name = bottom;
pos = (361,0);
},
{
name = center;
pos = (253,210);
},
{
name = ogonek;
pos = (368,0);
},
{
name = top;
pos = (373,660);
}
);
layerId = m003;
shapes = (
{
closed = 1;
nodes = (
(399,383,l),
(18,383,l),
(18,280,l),
(399,280,l)
);
},
{
closed = 1;
nodes = (
(107,0,l),
(362,0,ls),
(517,0,o),
(686,172,o),
(686,330,qs),
(686,489,o),
(517,660,o),
(362,660,qs),
(107,660,l)
);
},
{
closed = 1;
nodes = (
(245,550,l),
(354,550,ls),
(449,550,o),
(544,437,o),
(544,330,qs),
(544,223,o),
(449,110,o),
(354,110,qs),
(245,110,l)
);
}
);
width = 740;
},
{
anchors = (
{
name = bottom;
pos = (361,0);
},
{
name = center;
pos = (253,210);
},
{
name = ogonek;
pos = (368,0);
},
{
name = top;
pos = (373,660);
}
);
layerId = m004;
shapes = (
{
closed = 1;
nodes = (
(399,383,l),
(18,383,l),
(18,280,l),
(399,280,l)
);
},
{
closed = 1;
nodes = (
(107,0,l),
(362,0,ls),
(517,0,o),
(686,172,o),
(686,330,qs),
(686,489,o),
(517,660,o),
(362,660,qs),
(107,660,l)
);
},
{
closed = 1;
nodes = (
(245,550,l),
(354,550,ls),
(449,550,o),
(544,437,o),
(544,330,qs),
(544,223,o),
(449,110,o),
(354,110,qs),
(245,110,l)
);
}
);
width = 740;
}
);
note = Dcroat;
unicode = 272;
},
{
glyphname = E;
kernLeft = B;
kernRight = AE;
lastChange = "2024-03-08 17:16:14 +0000";
layers = (
{
anchors = (
{
name = bottom;
pos = (345,0);
},
{
name = ogonek;
pos = (596,0);
},
{
name = top;
pos = (334,660);
}
);
layerId = m01;
shapes = (
{
closed = 1;
nodes = (
(595,111,l),
(224,111,l),
(224,279,l),
(505,279,l),
(505,385,l),
(224,385,l),
(224,549,l),
(581,549,l),
(581,660,l),
(86,660,l),
(86,0,l),
(595,0,l)
);
}
);
width = 633;
},
{
anchors = (
{
name = bottom;
pos = (345,0);
},
{
name = ogonek;
pos = (595,0);
},
{
name = top;
pos = (334,660);
}
);
layerId = m002;
shapes = (
{
closed = 1;
nodes = (
(595,128,l),
(224,246,l),
(224,279,l),
(505,279,l),
(505,385,l),
(224,385,l),
(224,419,l),
(581,560,l),
(581,679,l),
(86,485,l),
(86,173,l),
(595,12,l)
);
}
);
width = 633;
},
{
anchors = (
{
name = bottom;
pos = (345,0);
},
{
name = ogonek;
pos = (596,0);
},
{
name = top;
pos = (334,660);
}
);
layerId = m003;
shapes = (
{
closed = 1;
nodes = (
(595,304,l),
(224,191,l),
(224,275,l),
(505,275,l),
(505,382,l),
(224,382,l),
(224,492,l),
(581,351,l),
(581,471,l),
(86,666,l),
(86,28,l),
(595,188,l)
);
}
);
width = 633;
},
{
anchors = (
{
name = bottom;
pos = (345,0);
},
{
name = ogonek;
pos = (596,0);
},
{
name = top;
pos = (334,660);
}
);
layerId = m004;
shapes = (
{
closed = 1;
nodes = (
(595,290,l),
(224,290,l),
(224,280,l),
(505,280,l),
(505,370,l),
(224,370,l),
(224,360,l),
(581,360,l),
(581,450,l),
(86,450,l),
(86,200,l),
(595,200,l)
);
}
);
width = 633;
}
);
note = E;
unicode = 69;
},
{
glyphname = Eogonek;
kernLeft = B;
kernRight = AE;
lastChange = "2024-03-08 15:26:52 +0000";
layers = (
{
anchors = (
{
name = bottom;
pos = (345,0);
},
{
name = ogonek;
pos = (596,0);
},
{
name = top;
pos = (334,660);
}
);
layerId = m01;
shapes = (
{
closed = 1;
nodes = (
(579,-215,o),
(597,-204,q),
(577,-133,l),
(567,-139,o),
(540,-144,o),
(528,-144,qs),
(502,-144,o),
(469,-119,o),
(469,-96,qs),
(469,-70,o),
(525,-22,o),
(596,0,q),
(547,28,l),
(466,7,o),
(371,-61,o),
(371,-118,qs),
(371,-152,o),
(405,-200,o),
(464,-225,o),
(502,-225,qs),
(530,-225,o)
);
},
{
closed = 1;
nodes = (
(595,111,l),
(224,111,l),
(224,279,l),
(505,279,l),
(505,385,l),
(224,385,l),
(224,549,l),
(581,549,l),
(581,660,l),
(86,660,l),
(86,0,l),
(595,0,l)
);
}
);
width = 633;
},
{
anchors = (
{
name = bottom;
pos = (345,0);
},
{
name = ogonek;
pos = (596,0);
},
{
name = top;
pos = (334,660);
}
);
layerId = m002;
shapes = (
{
closed = 1;
nodes = (
(579,-215,o),
(597,-204,q),
(577,-133,l),
(567,-139,o),
(540,-144,o),
(528,-144,qs),
(502,-144,o),
(469,-119,o),
(469,-96,qs),
(469,-70,o),
(525,-22,o),
(596,0,q),
(547,28,l),
(466,7,o),
(371,-61,o),
(371,-118,qs),
(371,-152,o),
(405,-200,o),
(464,-225,o),
(502,-225,qs),
(530,-225,o)
);
},
{
closed = 1;
nodes = (
(595,111,l),
(224,111,l),
(224,279,l),
(505,279,l),
(505,385,l),
(224,385,l),
(224,549,l),
(581,549,l),
(581,660,l),
(86,660,l),
(86,0,l),
(595,0,l)
);
}
);
width = 633;
},
{
anchors = (
{
name = bottom;
pos = (345,0);
},
{
name = ogonek;
pos = (596,0);
},
{
name = top;
pos = (334,660);
}
);
layerId = m003;
shapes = (
{
closed = 1;
nodes = (
(579,-215,o),
(597,-204,q),
(577,-133,l),
(567,-139,o),
(540,-144,o),
(528,-144,qs),
(502,-144,o),
(469,-119,o),
(469,-96,qs),
(469,-70,o),
(525,-22,o),
(596,0,q),
(547,28,l),
(466,7,o),
(371,-61,o),
(371,-118,qs),
(371,-152,o),
(405,-200,o),
(464,-225,o),
(502,-225,qs),
(530,-225,o)
);
},
{
closed = 1;
nodes = (
(595,111,l),
(224,111,l),
(224,279,l),
(505,279,l),
(505,385,l),
(224,385,l),
(224,549,l),
(581,549,l),
(581,660,l),
(86,660,l),
(86,0,l),
(595,0,l)
);
}
);
width = 633;
},
{
anchors = (
{
name = bottom;
pos = (345,0);
},
{
name = ogonek;
pos = (596,0);
},
{
name = top;
pos = (334,660);
}
);
layerId = m004;
shapes = (
{
closed = 1;
nodes = (
(579,-215,o),
(597,-204,q),
(577,-133,l),
(567,-139,o),
(540,-144,o),
(528,-144,qs),
(502,-144,o),
(469,-119,o),
(469,-96,qs),
(469,-70,o),
(525,-22,o),
(596,0,q),
(547,28,l),
(466,7,o),
(371,-61,o),
(371,-118,qs),
(371,-152,o),
(405,-200,o),
(464,-225,o),
(502,-225,qs),
(530,-225,o)
);
},
{
closed = 1;
nodes = (
(595,111,l),
(224,111,l),
(224,279,l),
(505,279,l),
(505,385,l),
(224,385,l),
(224,549,l),
(581,549,l),
(581,660,l),
(86,660,l),
(86,0,l),
(595,0,l)
);
}
);
width = 633;
}
);
note = Eogonek;
unicode = 280;
},
{
glyphname = uni018F;
kernLeft = C;
kernRight = D;
lastChange = "2024-03-08 15:26:52 +0000";
layers = (
{
anchors = (
{
name = bottom;
pos = (355,0);
},
{
name = top;
pos = (355,660);
}
);
layerId = m01;
shapes = (
{
closed = 1;
nodes = (
(579,72,o),
(656,224,o),
(656,330,qs),
(656,436,o),
(581,588,o),
(440,670,o),
(342,670,qs),
(274,670,o),
(158,626,o),
(74,539,o),
(53,474,q),
(186,440,l),
(203,497,o),
(280,557,o),
(341,557,qs),
(397,557,o),
(475,506,o),
(516,407,o),
(516,336,qs),
(516,258,o),
(477,154,o),
(402,103,o),
(347,103,qs),
(302,103,o),
(228,143,o),
(185,220,o),
(185,277,qs),
(185,285,o),
(186,303,o),
(187,313,q),
(115,266,l),
(576,266,l),
(576,359,l),
(47,359,l),
(46,344,o),
(44,316,o),
(44,302,qs),
(44,208,o),
(115,67,o),
(249,-10,o),
(340,-10,qs),
(437,-10,o)
);
}
);
width = 710;
},
{
anchors = (
{
name = bottom;
pos = (355,0);
},
{
name = top;
pos = (355,660);
}
);
layerId = m002;
shapes = (
{
closed = 1;
nodes = (
(579,72,o),
(656,224,o),
(656,330,qs),
(656,436,o),
(581,588,o),
(440,670,o),
(342,670,qs),
(274,670,o),
(158,626,o),
(74,539,o),
(53,474,q),
(186,440,l),
(203,497,o),
(280,557,o),
(341,557,qs),
(397,557,o),
(475,506,o),
(516,407,o),
(516,336,qs),
(516,258,o),
(477,154,o),
(402,103,o),
(347,103,qs),
(302,103,o),
(228,143,o),
(185,220,o),
(185,277,qs),
(185,285,o),
(186,303,o),
(187,313,q),
(115,266,l),
(576,266,l),
(576,359,l),
(47,359,l),
(46,344,o),
(44,316,o),
(44,302,qs),
(44,208,o),
(115,67,o),
(249,-10,o),
(340,-10,qs),
(437,-10,o)
);
}
);
width = 710;
},
{
anchors = (
{
name = bottom;
pos = (355,0);
},
{
name = top;
pos = (355,660);
}
);
layerId = m003;
shapes = (
{
closed = 1;
nodes = (
(579,72,o),
(656,224,o),
(656,330,qs),
(656,436,o),
(581,588,o),
(440,670,o),
(342,670,qs),
(274,670,o),
(158,626,o),
(74,539,o),
(53,474,q),
(186,440,l),
(203,497,o),
(280,557,o),
(341,557,qs),
(397,557,o),
(475,506,o),
(516,407,o),
(516,336,qs),
(516,258,o),
(477,154,o),
(402,103,o),
(347,103,qs),
(302,103,o),
(228,143,o),
(185,220,o),
(185,277,qs),
(185,285,o),
(186,303,o),
(187,313,q),
(115,266,l),
(576,266,l),
(576,359,l),
(47,359,l),
(46,344,o),
(44,316,o),
(44,302,qs),
(44,208,o),
(115,67,o),
(249,-10,o),
(340,-10,qs),
(437,-10,o)
);
}
);
width = 710;
},
{
anchors = (
{
name = bottom;
pos = (355,0);
},
{
name = top;
pos = (355,660);
}
);
layerId = m004;
shapes = (
{
closed = 1;
nodes = (
(579,72,o),
(656,224,o),
(656,330,qs),
(656,436,o),
(581,588,o),
(440,670,o),
(342,670,qs),
(274,670,o),
(158,626,o),
(74,539,o),
(53,474,q),
(186,440,l),
(203,497,o),
(280,557,o),
(341,557,qs),
(397,557,o),
(475,506,o),
(516,407,o),
(516,336,qs),
(516,258,o),
(477,154,o),
(402,103,o),
(347,103,qs),
(302,103,o),
(228,143,o),
(185,220,o),
(185,277,qs),
(185,285,o),
(186,303,o),
(187,313,q),
(115,266,l),
(576,266,l),
(576,359,l),
(47,359,l),
(46,344,o),
(44,316,o),
(44,302,qs),
(44,208,o),
(115,67,o),
(249,-10,o),
(340,-10,qs),
(437,-10,o)
);
}
);
width = 710;
}
);
note = uni018F;
unicode = 399;
},
{
glyphname = F;
kernLeft = B;
lastChange = "2024-03-08 17:22:11 +0000";
layers = (
{
anchors = (
{
name = bottom;
pos = (155,0);
},
{
name = ogonek;
pos = (224,0);
},
{
name = top;
pos = (324,660);
}
);
layerId = m01;
shapes = (
{
closed = 1;
nodes = (
(86,660,l),
(86,0,l),
(224,0,l),
(224,270,l),
(505,270,l),
(505,382,l),
(224,382,l),
(224,549,l),
(580,549,l),
(580,660,l)
);
}
);
width = 612;
},
{
anchors = (
{
name = bottom;
pos = (155,0);
},
{
name = ogonek;
pos = (224,0);
},
{
name = top;
pos = (324,660);
}
);
layerId = m002;
shapes = (
{
closed = 1;
nodes = (
(86,484,l),
(86,173,l),
(224,129,l),
(224,270,l),
(505,270,l),
(505,382,l),
(224,382,l),
(224,419,l),
(580,560,l),
(580,679,l)
);
}
);
width = 612;
},
{
anchors = (
{
name = bottom;
pos = (155,0);
},
{
name = ogonek;
pos = (224,0);
},
{
name = top;
pos = (324,660);
}
);
layerId = m003;
shapes = (
{
closed = 1;
nodes = (
(86,658,l),
(86,34,l),
(224,77,l),
(224,264,l),
(505,264,l),
(505,376,l),
(224,376,l),
(224,484,l),
(580,343,l),
(580,463,l)
);
}
);
width = 612;
},
{
anchors = (
{
name = bottom;
pos = (155,0);
},
{
name = ogonek;
pos = (224,0);
},
{
name = top;
pos = (324,660);
}
);
layerId = m004;
shapes = (
{
closed = 1;
nodes = (
(86,450,l),
(86,200,l),
(224,200,l),
(224,285,l),
(505,285,l),
(505,370,l),
(224,370,l),
(224,360,l),
(580,360,l),
(580,450,l)
);
}
);
width = 612;
}
);
note = F;
unicode = 70;
},
{
glyphname = G;
kernLeft = C;
kernRight = G;
lastChange = "2024-03-08 17:36:38 +0000";
layers = (
{
anchors = (
{
name = bottom;
pos = (395,0);
},
{
name = ogonek;
pos = (434,0);
},
{
name = top;
pos = (370,660);
}
);
layerId = m01;
shapes = (
{
closed = 1;
nodes = (
(552,61,o),
(574,127,q),
(550,144,l),
(560,0,l),
(657,0,l),
(657,348,l),
(365,348,l),
(365,247,l),
(538,247,l),
(538,232,ls),
(538,199,o),
(514,149,o),
(472,117,o),
(415,101,o),
(382,101,qs),
(321,101,o),
(238,152,o),
(196,255,o),
(196,330,qs),
(196,403,o),
(240,504,o),
(322,557,o),
(378,557,qs),
(434,557,o),
(511,506,o),
(527,453,q),
(655,508,l),
(616,591,o),
(484,670,o),
(377,670,qs),
(279,670,o),
(133,588,o),
(53,435,o),
(53,329,qs),
(53,222,o),
(129,70,o),
(266,-10,o),
(357,-10,qs),
(441,-10,o)
);
}
);
width = 723;
},
{
anchors = (
{
name = bottom;
pos = (395,0);
},
{
name = ogonek;
pos = (434,0);
},
{
name = top;
pos = (370,660);
}
);
layerId = m002;
shapes = (
{
closed = 1;
nodes = (
(552,78,o),
(574,144,q),
(550,144,l),
(560,46,l),
(657,20,l),
(657,348,l),
(365,348,l),
(365,247,l),
(538,247,l),
(538,232,ls),
(538,217,o),
(521,194,o),
(480,193,o),
(436,199,o),
(379,211,qs),
(310,226,o),
(238,259,o),
(196,304,o),
(196,330,qs),
(196,353,o),
(233,400,o),
(303,438,o),
(378,464,qs),
(429,482,o),
(511,488,o),
(527,446,q),
(655,501,l),
(616,565,o),
(480,613,o),
(377,582,qs),
(279,552,o),
(135,483,o),
(53,386,o),
(53,329,qs),
(53,274,o),
(129,178,o),
(265,122,o),
(356,96,qs),
(441,72,o)
);
}
);
width = 723;
},
{
anchors = (
{
name = bottom;
pos = (395,0);
},
{
name = ogonek;
pos = (434,0);
},
{
name = top;
pos = (370,660);
}
);
layerId = m003;
shapes = (
{
closed = 1;
nodes = (
(538,157,o),
(574,215,q),
(550,232,l),
(560,157,l),
(657,184,l),
(656,377,l),
(364,377,l),
(364,276,l),
(537,276,l),
(538,292,ls),
(539,301,o),
(514,272,o),
(472,241,o),
(417,220,o),
(382,212,qs),
(322,198,o),
(238,208,o),
(196,255,o),
(196,330,qs),
(196,403,o),
(240,466,o),
(323,466,o),
(378,452,qs),
(434,438,o),
(511,394,o),
(527,341,q),
(655,396,l),
(616,472,o),
(478,545,o),
(377,571,qs),
(279,596,o),
(133,550,o),
(53,435,o),
(53,329,qs),
(53,222,o),
(129,126,o),
(270,84,o),
(357,101,qs),
(432,116,o)
);
}
);
width = 723;
},
{
anchors = (
{
name = bottom;
pos = (395,0);
},
{
name = ogonek;
pos = (434,0);
},
{
name = top;
pos = (370,660);
}
);
layerId = m004;
shapes = (
{
closed = 1;
nodes = (
(552,226,o),
(574,251,q),
(550,257,l),
(560,200,l),
(657,200,l),
(657,342,l),
(365,342,l),
(365,305,l),
(538,305,l),
(538,318,ls),
(538,320,o),
(514,313,o),
(472,311,o),
(415,311,o),
(382,311,qs),
(321,311,o),
(260,314,o),
(196,320,o),
(196,324,qs),
(196,329,o),
(262,335,o),
(322,338,o),
(378,338,qs),
(434,338,o),
(511,336,o),
(527,332,q),
(655,390,l),
(616,421,o),
(484,450,o),
(377,450,qs),
(279,450,o),
(133,420,o),
(53,364,o),
(53,324,qs),
(53,285,o),
(129,229,o),
(266,200,o),
(357,200,qs),
(441,200,o)
);
}
);
width = 723;
}
);
note = G;
unicode = 71;
},
{
glyphname = H;
kernLeft = B;
kernRight = uni018E;
lastChange = "2024-03-08 17:38:55 +0000";
layers = (
{
anchors = (
{
name = bottom;
pos = (370,0);
},
{
name = ogonek;
pos = (657,0);
},
{
name = top;
pos = (370,660);
}
);
layerId = m01;
shapes = (
{
closed = 1;
nodes = (
(515,0,l),
(653,0,l),
(653,660,l),
(515,660,l)
);
},
{
closed = 1;
nodes = (
(86,0,l),
(224,0,l),
(224,660,l),
(86,660,l)
);
},
{
closed = 1;
nodes = (
(155,278,l),
(587,278,l),
(587,389,l),
(155,389,l)
);
}
);
width = 739;
},
{
anchors = (
{
name = bottom;
pos = (370,0);
},
{
name = ogonek;
pos = (657,0);
},
{
name = top;
pos = (370,660);
}
);
layerId = m002;
shapes = (
{
closed = 1;
nodes = (
(515,59,l),
(653,21,l),
(653,678,l),
(515,630,l)
);
},
{
closed = 1;
nodes = (
(86,179,l),
(224,140,l),
(224,530,l),
(86,482,l)
);
},
{
closed = 1;
nodes = (
(155,278,l),
(587,278,l),
(587,389,l),
(155,389,l)
);
}
);
width = 739;
},
{
anchors = (
{
name = bottom;
pos = (370,0);
},
{
name = ogonek;
pos = (657,0);
},
{
name = top;
pos = (370,660);
}
);
layerId = m003;
shapes = (
{
closed = 1;
nodes = (
(515,140,l),
(653,178,l),
(653,482,l),
(515,529,l)
);
},
{
closed = 1;
nodes = (
(86,21,l),
(224,60,l),
(224,629,l),
(86,678,l)
);
},
{
closed = 1;
nodes = (
(155,278,l),
(587,278,l),
(587,389,l),
(155,389,l)
);
}
);
width = 739;
},
{
anchors = (
{
name = bottom;
pos = (370,0);
},
{
name = ogonek;
pos = (657,0);
},
{
name = top;
pos = (370,660);
}
);
layerId = m004;
shapes = (
{
closed = 1;
nodes = (
(515,200,l),
(653,200,l),
(653,450,l),
(515,450,l)
);
},
{
closed = 1;
nodes = (
(86,200,l),
(224,200,l),
(224,450,l),
(86,450,l)
);
},
{
closed = 1;
nodes = (
(155,278,l),
(587,278,l),
(587,389,l),
(155,389,l)
);
}
);
width = 739;
}
);
note = H;
unicode = 72;
},
{
glyphname = I;
kernLeft = B;
kernRight = uni018E;
lastChange = "2024-03-08 17:40:18 +0000";
layers = (
{
anchors = (
{
name = bottom;
pos = (155,0);
},
{
name = ogonek;
pos = (224,0);
},
{
name = top;
pos = (155,660);
}
);
layerId = m01;
shapes = (
{
closed = 1;
nodes = (
(86,0,l),
(224,0,l),
(224,660,l),
(86,660,l)
);
}
);
width = 310;
},
{
anchors = (
{
name = bottom;
pos = (155,0);
},
{
name = ogonek;
pos = (224,0);
},
{
name = top;
pos = (155,660);
}
);
layerId = m002;
shapes = (
{
closed = 1;
nodes = (
(86,121,l),
(224,83,l),
(224,601,l),
(86,553,l)
);
}
);
width = 310;
},
{
anchors = (
{
name = bottom;
pos = (155,0);
},
{
name = ogonek;
pos = (224,0);
},
{
name = top;
pos = (155,660);
}
);
layerId = m003;
shapes = (
{
closed = 1;
nodes = (
(86,83,l),
(224,121,l),
(224,553,l),
(86,601,l)
);
}
);
width = 310;
},
{
anchors = (
{
name = bottom;
pos = (155,0);
},
{
name = ogonek;
pos = (224,0);
},
{
name = top;
pos = (155,660);
}
);
layerId = m004;
shapes = (
{
closed = 1;
nodes = (
(86,200,l),
(224,200,l),
(224,450,l),
(86,450,l)
);
}
);
width = 310;
}
);
note = I;
unicode = 73;
},
{
glyphname = Idieresis;
kernLeft = B;
kernRight = uni018E;
lastChange = "2024-03-08 15:26:52 +0000";
layers = (
{
anchors = (
{
name = bottom;
pos = (155,0);
},
{
name = ogonek;
pos = (224,0);
},
{
name = top;
pos = (155,660);
}
);
layerId = m01;
shapes = (
{
closed = 1;
nodes = (
(-14,828,o),
(-14,795,qs),
(-14,763,o),
(25,725,o),
(58,725,qs),
(93,725,o),
(132,763,o),
(132,795,qs),
(132,828,o),
(93,865,o),
(58,865,qs),
(25,865,o)
);
},
{
closed = 1;
nodes = (
(178,828,o),
(178,795,qs),
(178,763,o),
(217,725,o),
(250,725,qs),
(285,725,o),
(324,763,o),
(324,795,qs),
(324,828,o),
(285,865,o),
(250,865,qs),
(217,865,o)
);
},
{
closed = 1;
nodes = (
(86,0,l),
(224,0,l),
(224,660,l),
(86,660,l)
);
}
);
width = 310;
},
{
anchors = (
{
name = bottom;
pos = (155,0);
},
{
name = ogonek;
pos = (224,0);
},
{
name = top;
pos = (155,660);
}
);
layerId = m002;
shapes = (
{
closed = 1;
nodes = (
(-14,828,o),
(-14,795,qs),
(-14,763,o),
(25,725,o),
(58,725,qs),
(93,725,o),
(132,763,o),
(132,795,qs),
(132,828,o),
(93,865,o),
(58,865,qs),
(25,865,o)
);
},
{
closed = 1;
nodes = (
(178,828,o),
(178,795,qs),
(178,763,o),
(217,725,o),
(250,725,qs),
(285,725,o),
(324,763,o),
(324,795,qs),
(324,828,o),
(285,865,o),
(250,865,qs),
(217,865,o)
);
},
{
closed = 1;
nodes = (
(86,0,l),
(224,0,l),
(224,660,l),
(86,660,l)
);
}
);
width = 310;
},
{
anchors = (
{
name = bottom;
pos = (155,0);
},
{
name = ogonek;
pos = (224,0);
},
{
name = top;
pos = (155,660);
}
);
layerId = m003;
shapes = (
{
closed = 1;
nodes = (
(-14,828,o),
(-14,795,qs),
(-14,763,o),
(25,725,o),
(58,725,qs),
(93,725,o),
(132,763,o),
(132,795,qs),
(132,828,o),
(93,865,o),
(58,865,qs),
(25,865,o)
);
},
{
closed = 1;
nodes = (
(178,828,o),
(178,795,qs),
(178,763,o),
(217,725,o),
(250,725,qs),
(285,725,o),
(324,763,o),
(324,795,qs),
(324,828,o),
(285,865,o),
(250,865,qs),
(217,865,o)
);
},
{
closed = 1;
nodes = (
(86,0,l),
(224,0,l),
(224,660,l),
(86,660,l)
);
}
);
width = 310;
},
{
anchors = (
{
name = bottom;
pos = (155,0);
},
{
name = ogonek;
pos = (224,0);
},
{
name = top;
pos = (155,660);
}
);
layerId = m004;
shapes = (
{
closed = 1;
nodes = (
(-14,828,o),
(-14,795,qs),
(-14,763,o),
(25,725,o),
(58,725,qs),
(93,725,o),
(132,763,o),
(132,795,qs),
(132,828,o),
(93,865,o),
(58,865,qs),
(25,865,o)
);
},
{
closed = 1;
nodes = (
(178,828,o),
(178,795,qs),
(178,763,o),
(217,725,o),
(250,725,qs),
(285,725,o),
(324,763,o),
(324,795,qs),
(324,828,o),
(285,865,o),
(250,865,qs),
(217,865,o)
);
},
{
closed = 1;
nodes = (
(86,0,l),
(224,0,l),
(224,660,l),
(86,660,l)
);
}
);
width = 310;
}
);
note = Idieresis;
unicode = 207;
},
{
glyphname = Imacron;
kernLeft = B;
kernRight = uni018E;
lastChange = "2024-03-08 15:26:52 +0000";
layers = (
{
anchors = (
{
name = bottom;
pos = (155,0);
},
{
name = ogonek;
pos = (224,0);
},
{
name = top;
pos = (155,660);
}
);
layerId = m01;
shapes = (
{
closed = 1;
nodes = (
(25,739,l),
(284,739,l),
(284,830,l),
(25,830,l)
);
},
{
closed = 1;
nodes = (
(86,0,l),
(224,0,l),
(224,660,l),
(86,660,l)
);
}
);
width = 310;
},
{
anchors = (
{
name = bottom;
pos = (155,0);
},
{
name = ogonek;
pos = (224,0);
},
{
name = top;
pos = (155,660);
}
);
layerId = m002;
shapes = (
{
closed = 1;
nodes = (
(25,739,l),
(284,739,l),
(284,830,l),
(25,830,l)
);
},
{
closed = 1;
nodes = (
(86,0,l),
(224,0,l),
(224,660,l),
(86,660,l)
);
}
);
width = 310;
},
{
anchors = (
{
name = bottom;
pos = (155,0);
},
{
name = ogonek;
pos = (224,0);
},
{
name = top;
pos = (155,660);
}
);
layerId = m003;
shapes = (
{
closed = 1;
nodes = (
(25,739,l),
(284,739,l),
(284,830,l),
(25,830,l)
);
},
{
closed = 1;
nodes = (
(86,0,l),
(224,0,l),
(224,660,l),
(86,660,l)
);
}
);
width = 310;
},
{
anchors = (
{
name = bottom;
pos = (155,0);
},
{
name = ogonek;
pos = (224,0);
},
{
name = top;
pos = (155,660);
}
);
layerId = m004;
shapes = (
{
closed = 1;
nodes = (
(25,739,l),
(284,739,l),
(284,830,l),
(25,830,l)
);
},
{
closed = 1;
nodes = (
(86,0,l),
(224,0,l),
(224,660,l),
(86,660,l)
);
}
);
width = 310;
}
);
note = Imacron;
unicode = 298;
},
{
glyphname = Iogonek;
kernLeft = B;
kernRight = uni018E;
lastChange = "2024-03-08 15:26:52 +0000";
layers = (
{
anchors = (
{
name = bottom;
pos = (155,0);
},
{
name = ogonek;
pos = (224,0);
},
{
name = top;
pos = (155,660);
}
);
layerId = m01;
shapes = (
{
closed = 1;
nodes = (
(221,-218,o),
(238,-208,q),
(218,-138,l),
(210,-142,o),
(184,-147,o),
(173,-147,qs),
(146,-147,o),
(119,-122,o),
(119,-100,qs),
(119,-73,o),
(169,-26,o),
(224,0,q),
(166,34,l),
(123,20,o),
(54,-19,o),
(15,-75,o),
(15,-118,qs),
(15,-156,o),
(52,-205,o),
(112,-229,o),
(147,-229,qs),
(176,-229,o)
);
},
{
closed = 1;
nodes = (
(86,0,l),
(224,0,l),
(224,660,l),
(86,660,l)
);
}
);
width = 310;
},
{
anchors = (
{
name = bottom;
pos = (155,0);
},
{
name = ogonek;
pos = (224,0);
},
{
name = top;
pos = (155,660);
}
);
layerId = m002;
shapes = (
{
closed = 1;
nodes = (
(221,-218,o),
(238,-208,q),
(218,-138,l),
(210,-142,o),
(184,-147,o),
(173,-147,qs),
(146,-147,o),
(119,-122,o),
(119,-100,qs),
(119,-73,o),
(169,-26,o),
(224,0,q),
(166,34,l),
(123,20,o),
(54,-19,o),
(15,-75,o),
(15,-118,qs),
(15,-156,o),
(52,-205,o),
(112,-229,o),
(147,-229,qs),
(176,-229,o)
);
},
{
closed = 1;
nodes = (
(86,0,l),
(224,0,l),
(224,660,l),
(86,660,l)
);
}
);
width = 310;
},
{
anchors = (
{
name = bottom;
pos = (155,0);
},
{
name = ogonek;
pos = (224,0);
},
{
name = top;
pos = (155,660);
}
);
layerId = m003;
shapes = (
{
closed = 1;
nodes = (
(221,-218,o),
(238,-208,q),
(218,-138,l),
(210,-142,o),
(184,-147,o),
(173,-147,qs),
(146,-147,o),
(119,-122,o),
(119,-100,qs),
(119,-73,o),
(169,-26,o),
(224,0,q),
(166,34,l),
(123,20,o),
(54,-19,o),
(15,-75,o),
(15,-118,qs),
(15,-156,o),
(52,-205,o),
(112,-229,o),
(147,-229,qs),
(176,-229,o)
);
},
{
closed = 1;
nodes = (
(86,0,l),
(224,0,l),
(224,660,l),
(86,660,l)
);
}
);
width = 310;
},
{
anchors = (
{
name = bottom;
pos = (155,0);
},
{
name = ogonek;
pos = (224,0);
},
{
name = top;
pos = (155,660);
}
);
layerId = m004;
shapes = (
{
closed = 1;
nodes = (
(221,-218,o),
(238,-208,q),
(218,-138,l),
(210,-142,o),
(184,-147,o),
(173,-147,qs),
(146,-147,o),
(119,-122,o),
(119,-100,qs),
(119,-73,o),
(169,-26,o),
(224,0,q),
(166,34,l),
(123,20,o),
(54,-19,o),
(15,-75,o),
(15,-118,qs),
(15,-156,o),
(52,-205,o),
(112,-229,o),
(147,-229,qs),
(176,-229,o)
);
},
{
closed = 1;
nodes = (
(86,0,l),
(224,0,l),
(224,660,l),
(86,660,l)
);
}
);
width = 310;
}
);
note = Iogonek;
unicode = 302;
},
{
glyphname = J;
kernLeft = J;
kernRight = J;
lastChange = "2024-03-08 19:02:47 +0000";
layers = (
{
anchors = (
{
name = bottom;
pos = (281,0);
},
{
name = ogonek;
pos = (345,0);
},
{
name = top;
pos = (454,660);
}
);
layerId = m01;
shapes = (
{
closed = 1;
nodes = (
(385,262,ls),
(385,183,o),
(334,103,o),
(269,103,qs),
(207,103,o),
(161,181,o),
(173,269,q),
(39,245,l),
(26,170,o),
(68,54,o),
(178,-10,o),
(266,-10,qs),
(389,-10,o),
(523,124,o),
(523,243,qs),
(523,660,l),
(385,660,l)
);
}
);
width = 599;
},
{
anchors = (
{
name = bottom;
pos = (281,0);
},
{
name = ogonek;
pos = (345,0);
},
{
name = top;
pos = (454,660);
}
);
layerId = m002;
shapes = (
{
closed = 1;
nodes = (
(385,294,ls),
(385,216,o),
(337,204,o),
(269,223,qs),
(210,240,o),
(157,285,o),
(173,362,q),
(39,338,l),
(26,263,o),
(80,167,o),
(183,133,o),
(266,110,qs),
(387,76,o),
(523,129,o),
(523,275,qs),
(523,654,l),
(385,606,l)
);
}
);
width = 599;
},
{
anchors = (
{
name = bottom;
pos = (281,0);
},
{
name = ogonek;
pos = (345,0);
},
{
name = top;
pos = (454,660);
}
);
layerId = m003;
shapes = (
{
closed = 1;
nodes = (
(385,310,ls),
(385,255,o),
(340,226,o),
(269,206,qs),
(209,189,o),
(156,223,o),
(173,348,q),
(39,324,l),
(20,213,o),
(62,113,o),
(179,71,o),
(266,93,qs),
(411,130,o),
(523,194,o),
(523,284,qs),
(523,500,l),
(385,547,l)
);
}
);
width = 599;
},
{
anchors = (
{
name = bottom;
pos = (281,0);
},
{
name = ogonek;
pos = (345,0);
},
{
name = top;
pos = (454,660);
}
);
layerId = m004;
shapes = (
{
closed = 1;
nodes = (
(385,370,ls),
(385,341,o),
(334,311,o),
(269,311,qs),
(207,311,o),
(161,340,o),
(173,373,q),
(39,360,l),
(26,311,o),
(68,239,o),
(178,200,o),
(266,200,qs),
(389,200,o),
(523,277,o),
(523,322,qs),
(523,450,l),
(385,450,l)
);
}
);
width = 599;
}
);
note = J;
unicode = 74;
},
{
glyphname = K;
kernLeft = B;
kernRight = K;
lastChange = "2024-03-08 18:43:53 +0000";
layers = (
{
anchors = (
{
name = bottom;
pos = (367,0);
},
{
name = ogonek;
pos = (663,0);
},
{
name = top;
pos = (355,660);
}
);
layerId = m01;
shapes = (
{
closed = 1;
nodes = (
(156,269,l),
(177,141,l),
(342,328,l),
(353,317,l),
(655,660,l),
(495,660,l)
);
},
{
closed = 1;
nodes = (
(86,0,l),
(224,0,l),
(224,660,l),
(86,660,l)
);
},
{
closed = 1;
nodes = (
(505,0,l),
(663,0,l),
(391,432,l),
(285,355,l)
);
}
);
width = 679;
},
{
anchors = (
{
name = bottom;
pos = (367,0);
},
{
name = ogonek;
pos = (663,0);
},
{
name = top;
pos = (355,660);
}
);
layerId = m002;
shapes = (
{
closed = 1;
nodes = (
(177,359,l),
(177,200,l),
(342,374,l),
(353,363,l),
(655,687,l),
(416,603,l)
);
},
{
closed = 1;
nodes = (
(86,172,l),
(224,134,l),
(224,538,l),
(86,490,l)
);
},
{
closed = 1;
nodes = (
(472,65,l),
(663,13,l),
(391,432,l),
(285,355,l)
);
}
);
width = 679;
},
{
anchors = (
{
name = bottom;
pos = (367,0);
},
{
name = ogonek;
pos = (663,0);
},
{
name = top;
pos = (355,660);
}
);
layerId = m003;
shapes = (
{
closed = 1;
nodes = (
(172,359,l),
(178,235,l),
(406,353,l),
(424,345,l),
(655,468,l),
(502,521,l)
);
},
{
closed = 1;
nodes = (
(86,32,l),
(224,70,l),
(224,617,l),
(86,665,l)
);
},
{
closed = 1;
nodes = (
(509,149,l),
(663,192,l),
(391,432,l),
(289,356,l)
);
}
);
width = 679;
},
{
anchors = (
{
name = bottom;
pos = (367,0);
},
{
name = ogonek;
pos = (663,0);
},
{
name = top;
pos = (355,660);
}
);
layerId = m004;
shapes = (
{
closed = 1;
nodes = (
(108,329,l),
(177,253,l),
(342,324,l),
(353,320,l),
(655,450,l),
(385,450,l)
);
},
{
closed = 1;
nodes = (
(86,200,l),
(224,200,l),
(224,450,l),
(86,450,l)
);
},
{
closed = 1;
nodes = (
(406,200,l),
(663,200,l),
(372,375,l),
(224,311,l)
);
}
);
width = 679;
}
);
note = K;
unicode = 75;
},
{
glyphname = L;
kernLeft = B;
kernRight = L;
lastChange = "2024-03-08 18:46:41 +0000";
layers = (
{
anchors = (
{
name = bottom;
pos = (345,0);
},
{
name = center;
pos = (391,368);
},
{
name = ogonek;
pos = (572,0);
},
{
name = top;
pos = (155,660);
},
{
name = topright;
pos = (365,660);
}
);
layerId = m01;
shapes = (
{
closed = 1;
nodes = (
(86,660,l),
(86,0,l),
(572,0,l),
(572,111,l),
(224,111,l),
(224,660,l)
);
}
);
width = 601;
},
{
anchors = (
{
name = bottom;
pos = (345,0);
},
{
name = center;
pos = (391,368);
},
{
name = ogonek;
pos = (572,0);
},
{
name = top;
pos = (155,660);
},
{
name = topright;
pos = (365,660);
}
);
layerId = m002;
shapes = (
{
closed = 1;
nodes = (
(86,502,l),
(86,161,l),
(572,28,l),
(572,143,l),
(224,238,l),
(224,550,l)
);
}
);
width = 601;
},
{
anchors = (
{
name = bottom;
pos = (345,0);
},
{
name = center;
pos = (391,368);
},
{
name = ogonek;
pos = (572,0);
},
{
name = top;
pos = (155,660);
},
{
name = topright;
pos = (365,660);
}
);
layerId = m003;
shapes = (
{
closed = 1;
nodes = (
(86,651,l),
(86,43,l),
(572,177,l),
(572,292,l),
(224,196,l),
(224,604,l)
);
}
);
width = 601;
},
{
anchors = (
{
name = bottom;
pos = (345,0);
},
{
name = center;
pos = (391,368);
},
{
name = ogonek;
pos = (572,0);
},
{
name = top;
pos = (155,660);
},
{
name = topright;
pos = (365,660);
}
);
layerId = m004;
shapes = (
{
closed = 1;
nodes = (
(86,450,l),
(86,200,l),
(572,200,l),
(572,311,l),
(224,311,l),
(224,450,l)
);
}
);
width = 601;
}
);
note = L;
unicode = 76;
},
{
glyphname = Lcaron;
kernLeft = B;
kernRight = L;
lastChange = "2024-03-08 15:26:52 +0000";
layers = (
{
anchors = (
{
name = bottom;
pos = (345,0);
},
{
name = center;
pos = (391,368);
},
{
name = ogonek;
pos = (572,0);
},
{
name = top;
pos = (155,660);
},
{
name = topright;
pos = (365,660);
}
);
layerId = m01;
shapes = (
{
closed = 1;
nodes = (
(342,436,l),
(434,436,l),
(487,660,l),
(365,660,l)
);
},
{
closed = 1;
nodes = (
(86,660,l),
(86,0,l),
(572,0,l),
(572,111,l),
(224,111,l),
(224,660,l)
);
}
);
width = 601;
},
{
anchors = (
{
name = bottom;
pos = (345,0);
},
{
name = center;
pos = (391,368);
},
{
name = ogonek;
pos = (572,0);
},
{
name = top;
pos = (155,660);
},
{
name = topright;
pos = (365,660);
}
);
layerId = m002;
shapes = (
{
closed = 1;
nodes = (
(342,436,l),
(434,436,l),
(487,660,l),
(365,660,l)
);
},
{
closed = 1;
nodes = (
(86,660,l),
(86,0,l),
(572,0,l),
(572,111,l),
(224,111,l),
(224,660,l)
);
}
);
width = 601;
},
{
anchors = (
{
name = bottom;
pos = (345,0);
},
{
name = center;
pos = (391,368);
},
{
name = ogonek;
pos = (572,0);
},
{
name = top;
pos = (155,660);
},
{
name = topright;
pos = (365,660);
}
);
layerId = m003;
shapes = (
{
closed = 1;
nodes = (
(342,436,l),
(434,436,l),
(487,660,l),
(365,660,l)
);
},
{
closed = 1;
nodes = (
(86,660,l),
(86,0,l),
(572,0,l),
(572,111,l),
(224,111,l),
(224,660,l)
);
}
);
width = 601;
},
{
anchors = (
{
name = bottom;
pos = (345,0);
},
{
name = center;
pos = (391,368);
},
{
name = ogonek;
pos = (572,0);
},
{
name = top;
pos = (155,660);
},
{
name = topright;
pos = (365,660);
}
);
layerId = m004;
shapes = (
{
closed = 1;
nodes = (
(342,436,l),
(434,436,l),
(487,660,l),
(365,660,l)
);
},
{
closed = 1;
nodes = (
(86,660,l),
(86,0,l),
(572,0,l),
(572,111,l),
(224,111,l),
(224,660,l)
);
}
);
width = 601;
}
);
note = Lcaron;
unicode = 317;
},
{
glyphname = Lslash;
kernLeft = B;
kernRight = L;
lastChange = "2024-03-08 15:26:52 +0000";
layers = (
{
anchors = (
{
name = bottom;
pos = (398,0);
},
{
name = center;
pos = (443,368);
},
{
name = ogonek;
pos = (625,0);
},
{
name = top;
pos = (208,660);
},
{
name = topright;
pos = (417,660);
}
);
layerId = m01;
shapes = (
{
closed = 1;
nodes = (
(30,177,l),
(450,388,l),
(450,498,l),
(30,287,l)
);
},
{
closed = 1;
nodes = (
(139,660,l),
(139,0,l),
(625,0,l),
(625,111,l),
(277,111,l),
(277,660,l)
);
}
);
width = 653;
},
{
anchors = (
{
name = bottom;
pos = (398,0);
},
{
name = center;
pos = (443,368);
},
{
name = ogonek;
pos = (625,0);
},
{
name = top;
pos = (208,660);
},
{
name = topright;
pos = (417,660);
}
);
layerId = m002;
shapes = (
{
closed = 1;
nodes = (
(30,177,l),
(450,388,l),
(450,498,l),
(30,287,l)
);
},
{
closed = 1;
nodes = (
(139,660,l),
(139,0,l),
(625,0,l),
(625,111,l),
(277,111,l),
(277,660,l)
);
}
);
width = 653;
},
{
anchors = (
{
name = bottom;
pos = (398,0);
},
{
name = center;
pos = (443,368);
},
{
name = ogonek;
pos = (625,0);
},
{
name = top;
pos = (208,660);
},
{
name = topright;
pos = (417,660);
}
);
layerId = m003;
shapes = (
{
closed = 1;
nodes = (
(30,177,l),
(450,388,l),
(450,498,l),
(30,287,l)
);
},
{
closed = 1;
nodes = (
(139,660,l),
(139,0,l),
(625,0,l),
(625,111,l),
(277,111,l),
(277,660,l)
);
}
);
width = 653;
},
{
anchors = (
{
name = bottom;
pos = (398,0);
},
{
name = center;
pos = (443,368);
},
{
name = ogonek;
pos = (625,0);
},
{
name = top;
pos = (208,660);
},
{
name = topright;
pos = (417,660);
}
);
layerId = m004;
shapes = (
{
closed = 1;
nodes = (
(30,177,l),
(450,388,l),
(450,498,l),
(30,287,l)
);
},
{
closed = 1;
nodes = (
(139,660,l),
(139,0,l),
(625,0,l),
(625,111,l),
(277,111,l),
(277,660,l)
);
}
);
width = 653;
}
);
note = Lslash;
unicode = 321;
},
{
glyphname = M;
kernLeft = B;
kernRight = uni018E;
lastChange = "2024-03-08 18:52:29 +0000";
layers = (
{
anchors = (
{
name = bottom;
pos = (445,0);
},
{
name = ogonek;
pos = (804,0);
},
{
name = top;
pos = (445,660);
}
);
layerId = m01;
shapes = (
{
closed = 1;
nodes = (
(492,299,l),
(449,151,l),
(447,151,l),
(405,300,l),
(286,660,l),
(86,660,l),
(86,0,l),
(211,0,l),
(211,344,l),
(204,537,l),
(206,537,l),
(388,0,l),
(501,0,l),
(684,537,l),
(686,537,l),
(680,344,l),
(680,0,l),
(804,0,l),
(804,660,l),
(610,660,l)
);
}
);
width = 890;
},
{
anchors = (
{
name = bottom;
pos = (445,0);
},
{
name = ogonek;
pos = (804,0);
},
{
name = top;
pos = (445,660);
}
);
layerId = m002;
shapes = (
{
closed = 1;
nodes = (
(492,324,l),
(449,202,l),
(447,202,l),
(392,325,l),
(301,529,l),
(85,455,l),
(86,206,l),
(211,170,l),
(211,344,l),
(211,443,l),
(213,443,l),
(354,131,l),
(526,84,l),
(684,518,l),
(686,518,l),
(680,325,l),
(680,40,l),
(804,7,l),
(808,705,l),
(610,637,l)
);
}
);
width = 890;
},
{
anchors = (
{
name = bottom;
pos = (445,0);
},
{
name = ogonek;
pos = (804,0);
},
{
name = top;
pos = (445,660);
}
);
layerId = m003;
shapes = (
{
closed = 1;
nodes = (
(502,328,l),
(449,213,l),
(447,213,l),
(405,329,l),
(292,633,l),
(86,703,l),
(86,6,l),
(211,41,l),
(211,344,l),
(204,537,l),
(206,537,l),
(360,82,l),
(555,136,l),
(680,416,l),
(682,416,l),
(680,344,l),
(680,170,l),
(805,205,l),
(805,455,l),
(589,530,l)
);
}
);
width = 890;
},
{
anchors = (
{
name = bottom;
pos = (445,0);
},
{
name = ogonek;
pos = (804,0);
},
{
name = top;
pos = (445,660);
}
);
layerId = m004;
shapes = (
{
closed = 1;
nodes = (
(492,313,l),
(449,265,l),
(447,265,l),
(405,314,l),
(286,450,l),
(86,450,l),
(86,200,l),
(211,200,l),
(211,330,l),
(209,369,l),
(211,369,l),
(354,200,l),
(535,200,l),
(680,369,l),
(682,369,l),
(680,330,l),
(680,200,l),
(804,200,l),
(804,450,l),
(610,450,l)
);
}
);
width = 890;
}
);
note = M;
unicode = 77;
},
{
glyphname = N;
kernLeft = B;
kernRight = uni018E;
lastChange = "2024-03-08 19:01:48 +0000";
layers = (
{
anchors = (
{
name = bottom;
pos = (388,0);
},
{
name = ogonek;
pos = (653,0);
},
{
name = top;
pos = (372,660);
}
);
layerId = m01;
shapes = (
{
closed = 1;
nodes = (
(529,278,l),
(533,164,l),
(531,164,l),
(474,273,l),
(243,660,l),
(86,660,l),
(86,0,l),
(210,0,l),
(210,382,l),
(206,496,l),
(207,496,l),
(264,388,l),
(495,0,l),
(653,0,l),
(653,660,l),
(529,660,l)
);
}
);
width = 739;
},
{
anchors = (
{
name = bottom;
pos = (388,0);
},
{
name = ogonek;
pos = (653,0);
},
{
name = top;
pos = (372,660);
}
);
layerId = m002;
shapes = (
{
closed = 1;
nodes = (
(529,278,l),
(529,187,l),
(527,187,l),
(474,266,l),
(274,551,l),
(86,482,l),
(86,183,l),
(210,149,l),
(210,382,l),
(210,440,l),
(211,440,l),
(266,361,l),
(454,83,l),
(653,26,l),
(653,678,l),
(529,635,l)
);
}
);
width = 739;
},
{
anchors = (
{
name = bottom;
pos = (388,0);
},
{
name = ogonek;
pos = (653,0);
},
{
name = top;
pos = (372,660);
}
);
layerId = m003;
shapes = (
{
closed = 1;
nodes = (
(529,354,l),
(531,276,l),
(529,276,l),
(461,356,l),
(243,625,l),
(86,677,l),
(86,28,l),
(210,61,l),
(210,382,l),
(209,482,l),
(210,482,l),
(264,410,l),
(495,140,l),
(653,184,l),
(653,482,l),
(529,524,l)
);
}
);
width = 739;
},
{
anchors = (
{
name = bottom;
pos = (388,0);
},
{
name = ogonek;
pos = (653,0);
},
{
name = top;
pos = (372,660);
}
);
layerId = m004;
shapes = (
{
closed = 1;
nodes = (
(513,355,l),
(513,311,l),
(511,311,l),
(453,346,l),
(273,450,l),
(86,450,l),
(86,200,l),
(231,200,l),
(231,293,l),
(230,337,l),
(231,337,l),
(292,296,l),
(443,200,l),
(653,200,l),
(653,450,l),
(513,450,l)
);
}
);
width = 739;
}
);
note = N;
unicode = 78;
},
{
glyphname = Eng;
kernLeft = B;
kernRight = uni018E;
lastChange = "2024-03-08 15:26:52 +0000";
layers = (
{
layerId = m01;
shapes = (
{
closed = 1;
nodes = (
(607,-180,o),
(653,-102,o),
(653,-37,qs),
(653,660,l),
(529,660,l),
(529,215,l),
(528,215,l),
(483,299,l),
(243,660,l),
(86,660,l),
(86,0,l),
(210,0,l),
(210,382,l),
(206,499,l),
(207,499,l),
(266,393,l),
(529,5,l),
(529,-24,ls),
(529,-70,o),
(491,-107,o),
(462,-107,qs),
(438,-107,o),
(401,-93,o),
(388,-83,q),
(368,-186,l),
(390,-199,o),
(447,-215,o),
(483,-215,qs),
(530,-215,o)
);
}
);
width = 739;
},
{
layerId = m002;
shapes = (
{
closed = 1;
nodes = (
(607,-180,o),
(653,-102,o),
(653,-37,qs),
(653,660,l),
(529,660,l),
(529,215,l),
(528,215,l),
(483,299,l),
(243,660,l),
(86,660,l),
(86,0,l),
(210,0,l),
(210,382,l),
(206,499,l),
(207,499,l),
(266,393,l),
(529,5,l),
(529,-24,ls),
(529,-70,o),
(491,-107,o),
(462,-107,qs),
(438,-107,o),
(401,-93,o),
(388,-83,q),
(368,-186,l),
(390,-199,o),
(447,-215,o),
(483,-215,qs),
(530,-215,o)
);
}
);
width = 739;
},
{
layerId = m003;
shapes = (
{
closed = 1;
nodes = (
(607,-180,o),
(653,-102,o),
(653,-37,qs),
(653,660,l),
(529,660,l),
(529,215,l),
(528,215,l),
(483,299,l),
(243,660,l),
(86,660,l),
(86,0,l),
(210,0,l),
(210,382,l),
(206,499,l),
(207,499,l),
(266,393,l),
(529,5,l),
(529,-24,ls),
(529,-70,o),
(491,-107,o),
(462,-107,qs),
(438,-107,o),
(401,-93,o),
(388,-83,q),
(368,-186,l),
(390,-199,o),
(447,-215,o),
(483,-215,qs),
(530,-215,o)
);
}
);
width = 739;
},
{
layerId = m004;
shapes = (
{
closed = 1;
nodes = (
(607,-180,o),
(653,-102,o),
(653,-37,qs),
(653,660,l),
(529,660,l),
(529,215,l),
(528,215,l),
(483,299,l),
(243,660,l),
(86,660,l),
(86,0,l),
(210,0,l),
(210,382,l),
(206,499,l),
(207,499,l),
(266,393,l),
(529,5,l),
(529,-24,ls),
(529,-70,o),
(491,-107,o),
(462,-107,qs),
(438,-107,o),
(401,-93,o),
(388,-83,q),
(368,-186,l),
(390,-199,o),
(447,-215,o),
(483,-215,qs),
(530,-215,o)
);
}
);
width = 739;
}
);
note = Eng;
unicode = 330;
},
{
glyphname = O;
kernLeft = C;
kernRight = D;
lastChange = "2024-03-08 19:13:29 +0000";
layers = (
{
anchors = (
{
name = bottom;
pos = (371,0);
},
{
name = center;
pos = (371,330);
},
{
name = ogonek;
pos = (485,7);
},
{
name = top;
pos = (371,660);
},
{
name = topright;
pos = (556,660);
}
);
layerId = m01;
shapes = (
{
closed = 1;
nodes = (
(130,588,o),
(53,436,o),
(53,330,qs),
(53,224,o),
(130,72,o),
(273,-10,o),
(371,-10,qs),
(469,-10,o),
(611,72,o),
(688,224,o),
(688,330,qs),
(688,436,o),
(611,588,o),
(469,670,o),
(371,670,qs),
(273,670,o)
);
},
{
closed = 1;
nodes = (
(504,505,o),
(545,403,o),
(545,330,qs),
(545,257,o),
(504,155,o),
(426,103,o),
(371,103,qs),
(316,103,o),
(237,155,o),
(196,257,o),
(196,330,qs),
(196,403,o),
(237,505,o),
(316,557,o),
(371,557,qs),
(426,557,o)
);
}
);
width = 741;
},
{
anchors = (
{
name = bottom;
pos = (371,0);
},
{
name = center;
pos = (371,330);
},
{
name = ogonek;
pos = (485,7);
},
{
name = top;
pos = (371,660);
},
{
name = topright;
pos = (556,660);
}
);
layerId = m002;
shapes = (
{
closed = 1;
nodes = (
(123,481,o),
(53,392,o),
(53,330,qs),
(53,272,o),
(130,187,o),
(254,131,o),
(371,105,qs),
(465,84,o),
(611,122,o),
(688,243,o),
(688,330,qs),
(688,436,o),
(611,553,o),
(467,609,o),
(371,580,qs),
(265,548,o)
);
},
{
closed = 1;
nodes = (
(504,467,o),
(545,403,o),
(545,330,qs),
(545,284,o),
(504,226,o),
(434,207,o),
(371,222,qs),
(317,235,o),
(237,261,o),
(196,302,o),
(196,330,qs),
(196,360,o),
(237,407,o),
(303,442,o),
(371,462,qs),
(434,481,o)
);
}
);
width = 741;
},
{
anchors = (
{
name = bottom;
pos = (371,0);
},
{
name = center;
pos = (371,330);
},
{
name = ogonek;
pos = (485,7);
},
{
name = top;
pos = (371,660);
},
{
name = topright;
pos = (556,660);
}
);
layerId = m003;
shapes = (
{
closed = 1;
nodes = (
(130,559,o),
(53,436,o),
(53,330,qs),
(53,224,o),
(130,127,o),
(275,81,o),
(371,103,qs),
(469,126,o),
(611,179,o),
(688,262,o),
(688,330,qs),
(688,403,o),
(611,490,o),
(468,554,o),
(371,581,qs),
(273,608,o)
);
},
{
closed = 1;
nodes = (
(504,407,o),
(545,370,o),
(545,330,qs),
(545,295,o),
(504,262,o),
(420,234,o),
(371,222,qs),
(318,209,o),
(237,211,o),
(196,257,o),
(196,330,qs),
(196,403,o),
(237,476,o),
(320,477,o),
(371,460,qs),
(426,442,o)
);
}
);
width = 741;
},
{
anchors = (
{
name = bottom;
pos = (371,0);
},
{
name = center;
pos = (371,330);
},
{
name = ogonek;
pos = (485,7);
},
{
name = top;
pos = (371,660);
},
{
name = topright;
pos = (556,660);
}
);
layerId = m004;
shapes = (
{
closed = 1;
nodes = (
(130,420,o),
(53,364,o),
(53,325,qs),
(53,286,o),
(130,230,o),
(273,200,o),
(371,200,qs),
(469,200,o),
(611,230,o),
(688,286,o),
(688,325,qs),
(688,364,o),
(611,420,o),
(469,450,o),
(371,450,qs),
(273,450,o)
);
},
{
closed = 1;
nodes = (
(504,334,o),
(545,329,o),
(545,325,qs),
(545,321,o),
(504,316,o),
(426,313,o),
(371,313,qs),
(316,313,o),
(237,316,o),
(196,321,o),
(196,325,qs),
(196,329,o),
(237,334,o),
(316,337,o),
(371,337,qs),
(426,337,o)
);
}
);
width = 741;
}
);
note = O;
unicode = 79;
},
{
glyphname = Ohorn;
kernLeft = C;
kernRight = D;
lastChange = "2024-03-08 15:26:52 +0000";
layers = (
{
anchors = (
{
name = bottom;
pos = (371,0);
},
{
name = center;
pos = (371,330);
},
{
name = ogonek;
pos = (485,7);
},
{
name = top;
pos = (371,660);
},
{
name = topright;
pos = (556,660);
}
);
layerId = m01;
shapes = (
{
closed = 1;
nodes = (
(563,713,o),
(516,660,o),
(455,660,q),
(468,576,l),
(566,576,o),
(666,676,o),
(666,766,q),
(563,766,l)
);
},
{
closed = 1;
nodes = (
(130,588,o),
(53,436,o),
(53,330,qs),
(53,224,o),
(130,72,o),
(273,-10,o),
(371,-10,qs),
(469,-10,o),
(611,72,o),
(688,224,o),
(688,330,qs),
(688,436,o),
(611,588,o),
(469,670,o),
(371,670,qs),
(273,670,o)
);
},
{
closed = 1;
nodes = (
(504,505,o),
(545,403,o),
(545,330,qs),
(545,257,o),
(504,155,o),
(426,103,o),
(371,103,qs),
(316,103,o),
(237,155,o),
(196,257,o),
(196,330,qs),
(196,403,o),
(237,505,o),
(316,557,o),
(371,557,qs),
(426,557,o)
);
}
);
width = 741;
},
{
anchors = (
{
name = bottom;
pos = (371,0);
},
{
name = center;
pos = (371,330);
},
{
name = ogonek;
pos = (485,7);
},
{
name = top;
pos = (371,660);
},
{
name = topright;
pos = (556,660);
}
);
layerId = m002;
shapes = (
{
closed = 1;
nodes = (
(563,713,o),
(516,660,o),
(455,660,q),
(468,576,l),
(566,576,o),
(666,676,o),
(666,766,q),
(563,766,l)
);
},
{
closed = 1;
nodes = (
(130,588,o),
(53,436,o),
(53,330,qs),
(53,224,o),
(130,72,o),
(273,-10,o),
(371,-10,qs),
(469,-10,o),
(611,72,o),
(688,224,o),
(688,330,qs),
(688,436,o),
(611,588,o),
(469,670,o),
(371,670,qs),
(273,670,o)
);
},
{
closed = 1;
nodes = (
(504,505,o),
(545,403,o),
(545,330,qs),
(545,257,o),
(504,155,o),
(426,103,o),
(371,103,qs),
(316,103,o),
(237,155,o),
(196,257,o),
(196,330,qs),
(196,403,o),
(237,505,o),
(316,557,o),
(371,557,qs),
(426,557,o)
);
}
);
width = 741;
},
{
anchors = (
{
name = bottom;
pos = (371,0);
},
{
name = center;
pos = (371,330);
},
{
name = ogonek;
pos = (485,7);
},
{
name = top;
pos = (371,660);
},
{
name = topright;
pos = (556,660);
}
);
layerId = m003;
shapes = (
{
closed = 1;
nodes = (
(563,713,o),
(516,660,o),
(455,660,q),
(468,576,l),
(566,576,o),
(666,676,o),
(666,766,q),
(563,766,l)
);
},
{
closed = 1;
nodes = (
(130,588,o),
(53,436,o),
(53,330,qs),
(53,224,o),
(130,72,o),
(273,-10,o),
(371,-10,qs),
(469,-10,o),
(611,72,o),
(688,224,o),
(688,330,qs),
(688,436,o),
(611,588,o),
(469,670,o),
(371,670,qs),
(273,670,o)
);
},
{
closed = 1;
nodes = (
(504,505,o),
(545,403,o),
(545,330,qs),
(545,257,o),
(504,155,o),
(426,103,o),
(371,103,qs),
(316,103,o),
(237,155,o),
(196,257,o),
(196,330,qs),
(196,403,o),
(237,505,o),
(316,557,o),
(371,557,qs),
(426,557,o)
);
}
);
width = 741;
},
{
anchors = (
{
name = bottom;
pos = (371,0);
},
{
name = center;
pos = (371,330);
},
{
name = ogonek;
pos = (485,7);
},
{
name = top;
pos = (371,660);
},
{
name = topright;
pos = (556,660);
}
);
layerId = m004;
shapes = (
{
closed = 1;
nodes = (
(563,713,o),
(516,660,o),
(455,660,q),
(468,576,l),
(566,576,o),
(666,676,o),
(666,766,q),
(563,766,l)
);
},
{
closed = 1;
nodes = (
(130,588,o),
(53,436,o),
(53,330,qs),
(53,224,o),
(130,72,o),
(273,-10,o),
(371,-10,qs),
(469,-10,o),
(611,72,o),
(688,224,o),
(688,330,qs),
(688,436,o),
(611,588,o),
(469,670,o),
(371,670,qs),
(273,670,o)
);
},
{
closed = 1;
nodes = (
(504,505,o),
(545,403,o),
(545,330,qs),
(545,257,o),
(504,155,o),
(426,103,o),
(371,103,qs),
(316,103,o),
(237,155,o),
(196,257,o),
(196,330,qs),
(196,403,o),
(237,505,o),
(316,557,o),
(371,557,qs),
(426,557,o)
);
}
);
width = 741;
}
);
note = Ohorn;
unicode = 416;
},
{
glyphname = Oslash;
kernLeft = C;
kernRight = D;
lastChange = "2024-03-08 15:26:52 +0000";
layers = (
{
anchors = (
{
name = bottom;
pos = (371,0);
},
{
name = center;
pos = (371,330);
},
{
name = ogonek;
pos = (485,7);
},
{
name = top;
pos = (371,660);
},
{
name = topright;
pos = (556,660);
}
);
layerId = m01;
shapes = (
{
closed = 1;
nodes = (
(489,544,l),
(196,134,l),
(244,95,l),
(538,507,l)
);
},
{
closed = 1;
nodes = (
(235,83,l),
(185,122,l),
(72,-31,l),
(148,-31,l)
);
},
{
closed = 1;
nodes = (
(593,682,l),
(504,564,l),
(554,525,l),
(670,682,l)
);
},
{
closed = 1;
nodes = (
(130,588,o),
(53,436,o),
(53,330,qs),
(53,224,o),
(130,72,o),
(273,-10,o),
(371,-10,qs),
(469,-10,o),
(611,72,o),
(688,224,o),
(688,330,qs),
(688,436,o),
(611,588,o),
(469,670,o),
(371,670,qs),
(273,670,o)
);
},
{
closed = 1;
nodes = (
(504,505,o),
(545,403,o),
(545,330,qs),
(545,257,o),
(504,155,o),
(426,103,o),
(371,103,qs),
(316,103,o),
(237,155,o),
(196,257,o),
(196,330,qs),
(196,403,o),
(237,505,o),
(316,557,o),
(371,557,qs),
(426,557,o)
);
}
);
width = 741;
},
{
anchors = (
{
name = bottom;
pos = (371,0);
},
{
name = center;
pos = (371,330);
},
{
name = ogonek;
pos = (485,7);
},
{
name = top;
pos = (371,660);
},
{
name = topright;
pos = (556,660);
}
);
layerId = m002;
shapes = (
{
closed = 1;
nodes = (
(489,544,l),
(196,134,l),
(244,95,l),
(538,507,l)
);
},
{
closed = 1;
nodes = (
(235,83,l),
(185,122,l),
(72,-31,l),
(148,-31,l)
);
},
{
closed = 1;
nodes = (
(593,682,l),
(504,564,l),
(554,525,l),
(670,682,l)
);
},
{
closed = 1;
nodes = (
(130,588,o),
(53,436,o),
(53,330,qs),
(53,224,o),
(130,72,o),
(273,-10,o),
(371,-10,qs),
(469,-10,o),
(611,72,o),
(688,224,o),
(688,330,qs),
(688,436,o),
(611,588,o),
(469,670,o),
(371,670,qs),
(273,670,o)
);
},
{
closed = 1;
nodes = (
(504,505,o),
(545,403,o),
(545,330,qs),
(545,257,o),
(504,155,o),
(426,103,o),
(371,103,qs),
(316,103,o),
(237,155,o),
(196,257,o),
(196,330,qs),
(196,403,o),
(237,505,o),
(316,557,o),
(371,557,qs),
(426,557,o)
);
}
);
width = 741;
},
{
anchors = (
{
name = bottom;
pos = (371,0);
},
{
name = center;
pos = (371,330);
},
{
name = ogonek;
pos = (485,7);
},
{
name = top;
pos = (371,660);
},
{
name = topright;
pos = (556,660);
}
);
layerId = m003;
shapes = (
{
closed = 1;
nodes = (
(489,544,l),
(196,134,l),
(244,95,l),
(538,507,l)
);
},
{
closed = 1;
nodes = (
(235,83,l),
(185,122,l),
(72,-31,l),
(148,-31,l)
);
},
{
closed = 1;
nodes = (
(593,682,l),
(504,564,l),
(554,525,l),
(670,682,l)
);
},
{
closed = 1;
nodes = (
(130,588,o),
(53,436,o),
(53,330,qs),
(53,224,o),
(130,72,o),
(273,-10,o),
(371,-10,qs),
(469,-10,o),
(611,72,o),
(688,224,o),
(688,330,qs),
(688,436,o),
(611,588,o),
(469,670,o),
(371,670,qs),
(273,670,o)
);
},
{
closed = 1;
nodes = (
(504,505,o),
(545,403,o),
(545,330,qs),
(545,257,o),
(504,155,o),
(426,103,o),
(371,103,qs),
(316,103,o),
(237,155,o),
(196,257,o),
(196,330,qs),
(196,403,o),
(237,505,o),
(316,557,o),
(371,557,qs),
(426,557,o)
);
}
);
width = 741;
},
{
anchors = (
{
name = bottom;
pos = (371,0);
},
{
name = center;
pos = (371,330);
},
{
name = ogonek;
pos = (485,7);
},
{
name = top;
pos = (371,660);
},
{
name = topright;
pos = (556,660);
}
);
layerId = m004;
shapes = (
{
closed = 1;
nodes = (
(489,544,l),
(196,134,l),
(244,95,l),
(538,507,l)
);
},
{
closed = 1;
nodes = (
(235,83,l),
(185,122,l),
(72,-31,l),
(148,-31,l)
);
},
{
closed = 1;
nodes = (
(593,682,l),
(504,564,l),
(554,525,l),
(670,682,l)
);
},
{
closed = 1;
nodes = (
(130,588,o),
(53,436,o),
(53,330,qs),
(53,224,o),
(130,72,o),
(273,-10,o),
(371,-10,qs),
(469,-10,o),
(611,72,o),
(688,224,o),
(688,330,qs),
(688,436,o),
(611,588,o),
(469,670,o),
(371,670,qs),
(273,670,o)
);
},
{
closed = 1;
nodes = (
(504,505,o),
(545,403,o),
(545,330,qs),
(545,257,o),
(504,155,o),
(426,103,o),
(371,103,qs),
(316,103,o),
(237,155,o),
(196,257,o),
(196,330,qs),
(196,403,o),
(237,505,o),
(316,557,o),
(371,557,qs),
(426,557,o)
);
}
);
width = 741;
}
);
note = Oslash;
unicode = 216;
},
{
glyphname = OE;
kernLeft = C;
kernRight = AE;
lastChange = "2024-03-08 15:26:52 +0000";
layers = (
{
anchors = (
{
name = bottom;
pos = (584,0);
},
{
name = ogonek;
pos = (1022,0);
},
{
name = top;
pos = (584,660);
}
);
layerId = m01;
shapes = (
{
closed = 1;
nodes = (
(932,279,l),
(932,385,l),
(669,385,l),
(669,549,l),
(1008,549,l),
(1008,660,l),
(569,660,l),
(569,575,l),
(533,620,o),
(429,670,o),
(363,670,qs),
(267,670,o),
(128,588,o),
(53,436,o),
(53,330,qs),
(53,224,o),
(128,72,o),
(266,-10,o),
(361,-10,qs),
(427,-10,o),
(533,41,o),
(569,86,q),
(569,0,l),
(1022,0,l),
(1022,111,l),
(669,111,l),
(669,279,l)
);
},
{
closed = 1;
nodes = (
(234,155,o),
(194,257,o),
(194,330,qs),
(194,403,o),
(234,505,o),
(312,557,o),
(368,557,qs),
(420,557,o),
(495,505,o),
(535,403,o),
(535,330,qs),
(535,257,o),
(495,155,o),
(420,103,o),
(368,103,qs),
(312,103,o)
);
}
);
width = 1060;
},
{
anchors = (
{
name = bottom;
pos = (584,0);
},
{
name = ogonek;
pos = (1022,0);
},
{
name = top;
pos = (584,660);
}
);
layerId = m002;
shapes = (
{
closed = 1;
nodes = (
(932,279,l),
(932,385,l),
(669,385,l),
(669,549,l),
(1008,549,l),
(1008,660,l),
(569,660,l),
(569,575,l),
(533,620,o),
(429,670,o),
(363,670,qs),
(267,670,o),
(128,588,o),
(53,436,o),
(53,330,qs),
(53,224,o),
(128,72,o),
(266,-10,o),
(361,-10,qs),
(427,-10,o),
(533,41,o),
(569,86,q),
(569,0,l),
(1022,0,l),
(1022,111,l),
(669,111,l),
(669,279,l)
);
},
{
closed = 1;
nodes = (
(234,155,o),
(194,257,o),
(194,330,qs),
(194,403,o),
(234,505,o),
(312,557,o),
(368,557,qs),
(420,557,o),
(495,505,o),
(535,403,o),
(535,330,qs),
(535,257,o),
(495,155,o),
(420,103,o),
(368,103,qs),
(312,103,o)
);
}
);
width = 1060;
},
{
anchors = (
{
name = bottom;
pos = (584,0);
},
{
name = ogonek;
pos = (1022,0);
},
{
name = top;
pos = (584,660);
}
);
layerId = m003;
shapes = (
{
closed = 1;
nodes = (
(932,279,l),
(932,385,l),
(669,385,l),
(669,549,l),
(1008,549,l),
(1008,660,l),
(569,660,l),
(569,575,l),
(533,620,o),
(429,670,o),
(363,670,qs),
(267,670,o),
(128,588,o),
(53,436,o),
(53,330,qs),
(53,224,o),
(128,72,o),
(266,-10,o),
(361,-10,qs),
(427,-10,o),
(533,41,o),
(569,86,q),
(569,0,l),
(1022,0,l),
(1022,111,l),
(669,111,l),
(669,279,l)
);
},
{
closed = 1;
nodes = (
(234,155,o),
(194,257,o),
(194,330,qs),
(194,403,o),
(234,505,o),
(312,557,o),
(368,557,qs),
(420,557,o),
(495,505,o),
(535,403,o),
(535,330,qs),
(535,257,o),
(495,155,o),
(420,103,o),
(368,103,qs),
(312,103,o)
);
}
);
width = 1060;
},
{
anchors = (
{
name = bottom;
pos = (584,0);
},
{
name = ogonek;
pos = (1022,0);
},
{
name = top;
pos = (584,660);
}
);
layerId = m004;
shapes = (
{
closed = 1;
nodes = (
(932,279,l),
(932,385,l),
(669,385,l),
(669,549,l),
(1008,549,l),
(1008,660,l),
(569,660,l),
(569,575,l),
(533,620,o),
(429,670,o),
(363,670,qs),
(267,670,o),
(128,588,o),
(53,436,o),
(53,330,qs),
(53,224,o),
(128,72,o),
(266,-10,o),
(361,-10,qs),
(427,-10,o),
(533,41,o),
(569,86,q),
(569,0,l),
(1022,0,l),
(1022,111,l),
(669,111,l),
(669,279,l)
);
},
{
closed = 1;
nodes = (
(234,155,o),
(194,257,o),
(194,330,qs),
(194,403,o),
(234,505,o),
(312,557,o),
(368,557,qs),
(420,557,o),
(495,505,o),
(535,403,o),
(535,330,qs),
(535,257,o),
(495,155,o),
(420,103,o),
(368,103,qs),
(312,103,o)
);
}
);
width = 1060;
}
);
note = OE;
unicode = 338;
},
{
glyphname = P;
kernLeft = B;
lastChange = "2024-03-08 19:21:13 +0000";
layers = (
{
anchors = (
{
name = bottom;
pos = (155,0);
},
{
name = ogonek;
pos = (224,0);
},
{
name = top;
pos = (323,660);
}
);
layerId = m01;
shapes = (
{
closed = 1;
nodes = (
(86,0,l),
(224,0,l),
(224,234,l),
(363,234,ls),
(439,234,o),
(547,285,o),
(606,380,o),
(606,447,qs),
(606,514,o),
(547,609,o),
(439,660,o),
(363,660,qs),
(86,660,l)
);
},
{
closed = 1;
nodes = (
(224,551,l),
(342,551,ls),
(404,551,o),
(466,499,o),
(466,447,qs),
(466,396,o),
(404,343,o),
(342,343,qs),
(224,343,l)
);
}
);
width = 646;
},
{
anchors = (
{
name = bottom;
pos = (155,0);
},
{
name = ogonek;
pos = (224,0);
},
{
name = top;
pos = (323,660);
}
);
layerId = m002;
shapes = (
{
closed = 1;
nodes = (
(86,173,l),
(224,131,l),
(224,234,l),
(363,234,ls),
(439,234,o),
(547,269,o),
(606,354,o),
(606,437,qs),
(606,509,o),
(547,593,o),
(439,619,o),
(363,590,qs),
(86,483,l)
);
},
{
closed = 1;
nodes = (
(224,425,l),
(342,465,ls),
(395,483,o),
(466,457,o),
(466,422,qs),
(466,384,o),
(404,343,o),
(342,343,qs),
(224,343,l)
);
}
);
width = 646;
},
{
anchors = (
{
name = bottom;
pos = (155,0);
},
{
name = ogonek;
pos = (224,0);
},
{
name = top;
pos = (323,660);
}
);
layerId = m003;
shapes = (
{
closed = 1;
nodes = (
(86,27,l),
(224,69,l),
(224,234,l),
(363,234,ls),
(439,234,o),
(547,255,o),
(606,320,o),
(606,376,qs),
(606,422,o),
(547,487,o),
(434,531,o),
(363,559,qs),
(86,667,l)
);
},
{
closed = 1;
nodes = (
(224,492,l),
(342,447,ls),
(398,426,o),
(466,398,o),
(466,376,qs),
(466,350,o),
(404,343,o),
(342,343,qs),
(224,343,l)
);
}
);
width = 646;
},
{
anchors = (
{
name = bottom;
pos = (155,0);
},
{
name = ogonek;
pos = (224,0);
},
{
name = top;
pos = (323,660);
}
);
layerId = m004;
shapes = (
{
closed = 1;
nodes = (
(86,200,l),
(224,200,l),
(224,289,l),
(363,289,ls),
(474,289,o),
(571,308,o),
(606,344,o),
(606,370,qs),
(606,395,o),
(571,430,o),
(474,450,o),
(363,450,qs),
(86,450,l)
);
},
{
closed = 1;
nodes = (
(224,377,l),
(342,377,ls),
(432,377,o),
(466,374,o),
(466,370,qs),
(466,365,o),
(432,362,o),
(342,362,qs),
(224,362,l)
);
}
);
width = 646;
}
);
note = P;
unicode = 80;
},
{
glyphname = Thorn;
kernLeft = B;
lastChange = "2024-03-08 15:26:52 +0000";
layers = (
{
anchors = (
{
name = bottom;
pos = (155,0);
},
{
name = ogonek;
pos = (224,0);
},
{
name = top;
pos = (155,660);
}
);
layerId = m01;
shapes = (
{
closed = 1;
nodes = (
(155,444,l),
(348,444,ls),
(409,444,o),
(472,392,o),
(472,338,qs),
(472,230,o),
(348,230,qs),
(155,230,l),
(155,121,l),
(357,121,ls),
(482,121,o),
(613,232,o),
(613,337,qs),
(613,442,o),
(482,553,o),
(357,553,qs),
(155,553,l)
);
},
{
closed = 1;
nodes = (
(86,0,l),
(224,0,l),
(224,660,l),
(86,660,l)
);
}
);
width = 657;
},
{
anchors = (
{
name = bottom;
pos = (155,0);
},
{
name = ogonek;
pos = (224,0);
},
{
name = top;
pos = (155,660);
}
);
layerId = m002;
shapes = (
{
closed = 1;
nodes = (
(155,444,l),
(348,444,ls),
(409,444,o),
(472,392,o),
(472,338,qs),
(472,230,o),
(348,230,qs),
(155,230,l),
(155,121,l),
(357,121,ls),
(482,121,o),
(613,232,o),
(613,337,qs),
(613,442,o),
(482,553,o),
(357,553,qs),
(155,553,l)
);
},
{
closed = 1;
nodes = (
(86,0,l),
(224,0,l),
(224,660,l),
(86,660,l)
);
}
);
width = 657;
},
{
anchors = (
{
name = bottom;
pos = (155,0);
},
{
name = ogonek;
pos = (224,0);
},
{
name = top;
pos = (155,660);
}
);
layerId = m003;
shapes = (
{
closed = 1;
nodes = (
(155,444,l),
(348,444,ls),
(409,444,o),
(472,392,o),
(472,338,qs),
(472,230,o),
(348,230,qs),
(155,230,l),
(155,121,l),
(357,121,ls),
(482,121,o),
(613,232,o),
(613,337,qs),
(613,442,o),
(482,553,o),
(357,553,qs),
(155,553,l)
);
},
{
closed = 1;
nodes = (
(86,0,l),
(224,0,l),
(224,660,l),
(86,660,l)
);
}
);
width = 657;
},
{
anchors = (
{
name = bottom;
pos = (155,0);
},
{
name = ogonek;
pos = (224,0);
},
{
name = top;
pos = (155,660);
}
);
layerId = m004;
shapes = (
{
closed = 1;
nodes = (
(155,444,l),
(348,444,ls),
(409,444,o),
(472,392,o),
(472,338,qs),
(472,230,o),
(348,230,qs),
(155,230,l),
(155,121,l),
(357,121,ls),
(482,121,o),
(613,232,o),
(613,337,qs),
(613,442,o),
(482,553,o),
(357,553,qs),
(155,553,l)
);
},
{
closed = 1;
nodes = (
(86,0,l),
(224,0,l),
(224,660,l),
(86,660,l)
);
}
);
width = 657;
}
);
note = Thorn;
unicode = 222;
},
{
glyphname = Q;
kernLeft = C;
kernRight = D;
lastChange = "2024-03-08 22:36:54 +0000";
layers = (
{
anchors = (
{
name = bottom;
pos = (371,-210);
},
{
name = center;
pos = (371,330);
},
{
name = ogonek;
pos = (574,-195);
},
{
name = top;
pos = (371,660);
},
{
name = topright;
pos = (556,660);
}
);
layerId = m01;
shapes = (
{
closed = 1;
nodes = (
(657,-178,o),
(682,-158,q),
(657,-55,l),
(637,-72,o),
(578,-91,o),
(537,-91,qs),
(503,-91,o),
(447,-73,o),
(413,-25,o),
(413,21,qs),
(413,33,o),
(420,62,o),
(427,80,q),
(337,66,l),
(329,49,o),
(322,13,o),
(322,-3,qs),
(322,-71,o),
(378,-159,o),
(475,-200,o),
(535,-200,qs),
(574,-200,o)
);
},
{
closed = 1;
nodes = (
(130,588,o),
(53,436,o),
(53,330,qs),
(53,224,o),
(130,72,o),
(273,-10,o),
(371,-10,qs),
(469,-10,o),
(611,72,o),
(688,224,o),
(688,330,qs),
(688,436,o),
(611,588,o),
(469,670,o),
(371,670,qs),
(273,670,o)
);
},
{
closed = 1;
nodes = (
(504,505,o),
(545,403,o),
(545,330,qs),
(545,257,o),
(504,155,o),
(426,103,o),
(371,103,qs),
(316,103,o),
(237,155,o),
(196,257,o),
(196,330,qs),
(196,403,o),
(237,505,o),
(316,557,o),
(371,557,qs),
(426,557,o)
);
}
);
width = 741;
},
{
anchors = (
{
name = bottom;
pos = (371,-210);
},
{
name = center;
pos = (371,330);
},
{
name = ogonek;
pos = (574,-195);
},
{
name = top;
pos = (371,660);
},
{
name = topright;
pos = (556,660);
}
);
layerId = m002;
shapes = (
{
closed = 1;
nodes = (
(657,16,o),
(682,30,q),
(657,140,l),
(637,127,o),
(579,105,o),
(537,101,qs),
(497,97,o),
(447,108,o),
(413,122,o),
(413,155,qs),
(413,163,o),
(420,184,o),
(427,197,q),
(337,190,l),
(329,178,o),
(322,152,o),
(322,141,qs),
(322,92,o),
(378,29,o),
(475,0,o),
(535,0,qs),
(574,0,o)
);
},
{
closed = 1;
nodes = (
(130,474,o),
(53,393,o),
(53,330,qs),
(53,267,o),
(130,186,o),
(259,136,o),
(371,101,qs),
(465,72,o),
(611,101,o),
(688,213,o),
(688,330,qs),
(688,436,o),
(611,565,o),
(466,613,o),
(371,576,qs),
(273,538,o)
);
},
{
closed = 1;
nodes = (
(504,461,o),
(545,408,o),
(545,330,qs),
(545,261,o),
(504,210,o),
(426,205,o),
(371,218,qs),
(317,231,o),
(237,261,o),
(196,306,o),
(196,330,qs),
(196,354,o),
(237,399,o),
(315,435,o),
(371,454,qs),
(431,474,o)
);
}
);
width = 741;
},
{
anchors = (
{
name = bottom;
pos = (371,-210);
},
{
name = center;
pos = (371,330);
},
{
name = ogonek;
pos = (574,-195);
},
{
name = top;
pos = (371,660);
},
{
name = topright;
pos = (556,660);
}
);
layerId = m003;
shapes = (
{
closed = 1;
nodes = (
(643,111,o),
(682,129,q),
(653,200,l),
(630,187,o),
(565,166,o),
(537,161,qs),
(502,155,o),
(452,152,o),
(424,161,o),
(420,174,qs),
(416,187,o),
(423,203,o),
(430,212,q),
(340,205,l),
(332,197,o),
(324,174,o),
(326,166,qs),
(334,130,o),
(371,99,o),
(450,83,o),
(526,88,qs),
(573,91,o)
);
},
{
closed = 1;
nodes = (
(130,560,o),
(53,455,o),
(53,336,qs),
(53,215,o),
(130,110,o),
(255,62,o),
(371,99,qs),
(468,130,o),
(618,181,o),
(688,270,o),
(688,336,qs),
(688,400,o),
(611,480,o),
(464,539,o),
(371,575,qs),
(273,613,o)
);
},
{
closed = 1;
nodes = (
(504,400,o),
(545,355,o),
(545,331,qs),
(545,307,o),
(504,262,o),
(426,234,o),
(371,219,qs),
(306,201,o),
(237,206,o),
(196,259,o),
(196,331,qs),
(196,403,o),
(237,457,o),
(310,470,o),
(371,452,qs),
(431,434,o)
);
}
);
width = 741;
},
{
anchors = (
{
name = bottom;
pos = (371,-210);
},
{
name = center;
pos = (371,330);
},
{
name = ogonek;
pos = (574,-195);
},
{
name = top;
pos = (371,660);
},
{
name = topright;
pos = (556,660);
}
);
layerId = m004;
shapes = (
{
closed = 1;
nodes = (
(657,139,o),
(682,145,q),
(657,251,l),
(637,245,o),
(578,237,o),
(537,237,qs),
(503,237,o),
(447,244,o),
(413,261,o),
(413,278,qs),
(413,283,o),
(420,294,o),
(427,300,q),
(337,228,l),
(329,222,o),
(322,209,o),
(322,203,qs),
(322,178,o),
(378,145,o),
(475,130,o),
(535,130,qs),
(574,130,o)
);
},
{
closed = 1;
nodes = (
(130,420,o),
(53,364,o),
(53,325,qs),
(53,286,o),
(130,230,o),
(273,200,o),
(371,200,qs),
(469,200,o),
(611,230,o),
(688,286,o),
(688,325,qs),
(688,364,o),
(611,420,o),
(469,450,o),
(371,450,qs),
(273,450,o)
);
},
{
closed = 1;
nodes = (
(504,333,o),
(545,328,o),
(545,325,qs),
(545,322,o),
(504,317,o),
(426,313,o),
(371,313,qs),
(316,313,o),
(237,317,o),
(196,322,o),
(196,325,qs),
(196,328,o),
(237,333,o),
(316,337,o),
(371,337,qs),
(426,337,o)
);
}
);
width = 741;
}
);
note = Q;
unicode = 81;
},
{
glyphname = R;
kernLeft = B;
kernRight = R;
lastChange = "2024-03-08 22:44:43 +0000";
layers = (
{
anchors = (
{
name = bottom;
pos = (364,0);
},
{
name = ogonek;
pos = (656,0);
},
{
name = top;
pos = (327,660);
}
);
layerId = m01;
shapes = (
{
closed = 1;
nodes = (
(86,0,l),
(222,0,l),
(222,253,l),
(364,253,l),
(378,261,l),
(489,261,o),
(617,364,o),
(617,461,qs),
(617,552,o),
(489,660,o),
(377,660,qs),
(86,660,l)
);
},
{
closed = 1;
nodes = (
(222,550,l),
(361,550,ls),
(419,550,o),
(476,503,o),
(476,454,qs),
(476,405,o),
(419,358,o),
(361,358,qs),
(222,358,l)
);
},
{
closed = 1;
nodes = (
(501,0,l),
(656,0,l),
(442,329,l),
(324,289,l)
);
}
);
width = 680;
},
{
anchors = (
{
name = bottom;
pos = (364,0);
},
{
name = ogonek;
pos = (656,0);
},
{
name = top;
pos = (327,660);
}
);
layerId = m002;
shapes = (
{
closed = 1;
nodes = (
(86,175,l),
(222,134,l),
(222,253,l),
(364,253,l),
(378,261,l),
(489,261,o),
(617,353,o),
(617,441,qs),
(617,541,o),
(478,626,o),
(377,589,qs),
(86,482,l)
);
},
{
closed = 1;
nodes = (
(222,416,l),
(361,466,ls),
(418,487,o),
(476,467,o),
(476,421,qs),
(476,381,o),
(419,358,o),
(361,358,qs),
(222,358,l)
);
},
{
closed = 1;
nodes = (
(461,65,l),
(656,7,l),
(442,329,l),
(324,289,l)
);
}
);
width = 680;
},
{
anchors = (
{
name = bottom;
pos = (364,0);
},
{
name = ogonek;
pos = (656,0);
},
{
name = top;
pos = (327,660);
}
);
layerId = m003;
shapes = (
{
closed = 1;
nodes = (
(86,25,l),
(222,65,l),
(222,253,l),
(404,253,l),
(418,261,l),
(489,261,o),
(612,313,o),
(612,396,qs),
(612,468,o),
(479,525,o),
(374,563,qs),
(86,668,l)
);
},
{
closed = 1;
nodes = (
(222,499,l),
(361,453,ls),
(418,434,o),
(476,409,o),
(476,390,qs),
(476,366,o),
(419,358,o),
(361,358,qs),
(222,358,l)
);
},
{
closed = 1;
nodes = (
(528,154,l),
(655,193,l),
(442,329,l),
(324,289,l)
);
}
);
width = 680;
},
{
anchors = (
{
name = bottom;
pos = (364,0);
},
{
name = ogonek;
pos = (656,0);
},
{
name = top;
pos = (327,660);
}
);
layerId = m004;
shapes = (
{
closed = 1;
nodes = (
(86,200,l),
(222,200,l),
(222,296,l),
(364,296,l),
(378,299,l),
(514,299,o),
(617,338,o),
(617,374,qs),
(617,409,o),
(514,450,o),
(377,450,qs),
(86,450,l)
);
},
{
closed = 1;
nodes = (
(222,377,l),
(361,377,ls),
(457,377,o),
(476,375,o),
(476,372,qs),
(476,369,o),
(457,367,o),
(361,367,qs),
(222,367,l)
);
},
{
closed = 1;
nodes = (
(430,200,l),
(656,200,l),
(442,324,l),
(253,309,l)
);
}
);
width = 680;
}
);
note = R;
unicode = 82;
},
{
glyphname = S;
kernLeft = S;
kernRight = S;
lastChange = "2024-03-09 00:28:18 +0000";
layers = (
{
anchors = (
{
name = bottom;
pos = (323,0);
},
{
name = ogonek;
pos = (414,0);
},
{
name = top;
pos = (328,660);
}
);
layerId = m01;
shapes = (
{
closed = 1;
nodes = (
(121,615,o),
(57,521,o),
(57,462,qs),
(57,413,o),
(100,342,o),
(183,297,o),
(241,283,qs),
(375,253,ls),
(422,243,o),
(457,206,o),
(457,180,qs),
(457,155,o),
(428,120,o),
(371,101,o),
(330,101,qs),
(282,101,o),
(195,130,o),
(127,180,o),
(104,212,q),
(26,119,l),
(56,81,o),
(146,23,o),
(261,-10,o),
(330,-10,qs),
(409,-10,o),
(531,39,o),
(599,132,o),
(599,197,qs),
(599,266,o),
(514,353,o),
(416,375,qs),
(293,403,ls),
(242,415,o),
(200,452,o),
(200,479,qs),
(200,501,o),
(225,537,o),
(280,559,o),
(322,559,qs),
(386,559,o),
(483,510,o),
(524,458,q),
(601,547,l),
(553,608,o),
(417,670,o),
(327,670,qs),
(242,670,o)
);
}
);
width = 644;
},
{
anchors = (
{
name = bottom;
pos = (323,0);
},
{
name = ogonek;
pos = (414,0);
},
{
name = top;
pos = (328,660);
}
);
layerId = m002;
shapes = (
{
closed = 1;
nodes = (
(117,494,o),
(57,436,o),
(57,415,qs),
(57,390,o),
(100,342,o),
(183,297,o),
(241,283,qs),
(375,253,ls),
(422,243,o),
(457,225,o),
(457,211,qs),
(457,194,o),
(428,186,o),
(375,195,o),
(330,207,qs),
(275,222,o),
(195,261,o),
(127,304,o),
(104,336,q),
(26,243,l),
(56,205,o),
(146,154,o),
(261,119,o),
(330,97,qs),
(409,72,o),
(531,81,o),
(599,139,o),
(599,197,qs),
(599,266,o),
(515,356,o),
(416,375,qs),
(293,398,ls),
(226,410,o),
(224,412,o),
(224,413,qs),
(224,415,o),
(226,417,o),
(281,440,o),
(322,456,qs),
(399,486,o),
(483,497,o),
(524,458,q),
(601,547,l),
(553,595,o),
(410,608,o),
(327,576,qs),
(243,544,o)
);
}
);
width = 644;
},
{
anchors = (
{
name = bottom;
pos = (323,0);
},
{
name = ogonek;
pos = (414,0);
},
{
name = top;
pos = (328,660);
}
);
layerId = m003;
shapes = (
{
closed = 1;
nodes = (
(114,585,o),
(57,511,o),
(57,462,qs),
(57,413,o),
(100,342,o),
(183,293,o),
(241,283,qs),
(375,259,ls),
(403,254,o),
(421,250,o),
(421,248,qs),
(421,246,o),
(402,238,o),
(370,226,o),
(330,213,qs),
(279,196,o),
(190,171,o),
(127,199,o),
(104,231,q),
(26,138,l),
(56,100,o),
(146,50,o),
(261,81,o),
(330,102,qs),
(409,126,o),
(531,162,o),
(599,213,o),
(599,254,qs),
(599,304,o),
(514,353,o),
(416,375,qs),
(293,403,ls),
(242,415,o),
(200,437,o),
(200,453,qs),
(200,468,o),
(225,485,o),
(276,473,o),
(322,458,qs),
(377,440,o),
(483,392,o),
(524,352,q),
(601,441,l),
(553,483,o),
(422,544,o),
(327,576,qs),
(242,605,o)
);
}
);
width = 644;
},
{
anchors = (
{
name = bottom;
pos = (323,0);
},
{
name = ogonek;
pos = (414,0);
},
{
name = top;
pos = (328,660);
}
);
layerId = m004;
shapes = (
{
closed = 1;
nodes = (
(121,430,o),
(57,392,o),
(57,363,qs),
(57,336,o),
(96,305,o),
(195,259,o),
(240,258,qs),
(370,256,ls),
(417,255,o),
(458,264,o),
(458,269,qs),
(458,277,o),
(426,277,o),
(371,279,o),
(330,279,qs),
(282,279,o),
(195,286,o),
(127,313,o),
(104,324,q),
(26,247,l),
(56,234,o),
(146,212,o),
(261,200,o),
(330,200,qs),
(409,200,o),
(512,213,o),
(599,249,o),
(599,287,qs),
(599,321,o),
(512,377,o),
(414,381,qs),
(293,386,ls),
(242,388,o),
(200,381,o),
(200,375,qs),
(200,369,o),
(224,363,o),
(281,360,o),
(326,358,qs),
(390,355,o),
(483,351,o),
(524,332,q),
(601,405,l),
(553,427,o),
(417,450,o),
(327,450,qs),
(242,450,o)
);
}
);
width = 644;
}
);
note = S;
unicode = 83;
},
{
glyphname = uni1E9E;
kernLeft = uni1E9E;
kernRight = uni1E9E;
lastChange = "2024-03-08 15:26:52 +0000";
layers = (
{
anchors = (
{
name = bottom;
pos = (365,0);
},
{
name = ogonek;
pos = (503,0);
},
{
name = top;
pos = (365,660);
}
);
layerId = m01;
shapes = (
{
closed = 1;
nodes = (
(613,41,o),
(668,128,o),
(668,191,qs),
(668,249,o),
(618,325,o),
(536,364,o),
(488,364,qs),
(455,364,l),
(439,336,l),
(628,551,l),
(628,660,l),
(328,660,ls),
(252,660,o),
(138,603,o),
(74,499,o),
(74,428,qs),
(74,0,l),
(213,0,l),
(213,412,ls),
(213,454,o),
(247,516,o),
(308,550,o),
(347,550,qs),
(489,550,l),
(332,365,l),
(332,280,l),
(432,280,ls),
(479,280,o),
(536,237,o),
(536,194,qs),
(536,167,o),
(513,124,o),
(467,100,o),
(434,100,qs),
(398,100,o),
(343,121,o),
(323,140,q),
(280,49,l),
(303,26,o),
(389,-5,o),
(457,-5,qs),
(518,-5,o)
);
}
);
width = 693;
},
{
anchors = (
{
name = bottom;
pos = (365,0);
},
{
name = ogonek;
pos = (503,0);
},
{
name = top;
pos = (365,660);
}
);
layerId = m002;
shapes = (
{
closed = 1;
nodes = (
(613,41,o),
(668,128,o),
(668,191,qs),
(668,249,o),
(618,325,o),
(536,364,o),
(488,364,qs),
(455,364,l),
(439,336,l),
(628,551,l),
(628,660,l),
(328,660,ls),
(252,660,o),
(138,603,o),
(74,499,o),
(74,428,qs),
(74,0,l),
(213,0,l),
(213,412,ls),
(213,454,o),
(247,516,o),
(308,550,o),
(347,550,qs),
(489,550,l),
(332,365,l),
(332,280,l),
(432,280,ls),
(479,280,o),
(536,237,o),
(536,194,qs),
(536,167,o),
(513,124,o),
(467,100,o),
(434,100,qs),
(398,100,o),
(343,121,o),
(323,140,q),
(280,49,l),
(303,26,o),
(389,-5,o),
(457,-5,qs),
(518,-5,o)
);
}
);
width = 693;
},
{
anchors = (
{
name = bottom;
pos = (365,0);
},
{
name = ogonek;
pos = (503,0);
},
{
name = top;
pos = (365,660);
}
);
layerId = m003;
shapes = (
{
closed = 1;
nodes = (
(613,41,o),
(668,128,o),
(668,191,qs),
(668,249,o),
(618,325,o),
(536,364,o),
(488,364,qs),
(455,364,l),
(439,336,l),
(628,551,l),
(628,660,l),
(328,660,ls),
(252,660,o),
(138,603,o),
(74,499,o),
(74,428,qs),
(74,0,l),
(213,0,l),
(213,412,ls),
(213,454,o),
(247,516,o),
(308,550,o),
(347,550,qs),
(489,550,l),
(332,365,l),
(332,280,l),
(432,280,ls),
(479,280,o),
(536,237,o),
(536,194,qs),
(536,167,o),
(513,124,o),
(467,100,o),
(434,100,qs),
(398,100,o),
(343,121,o),
(323,140,q),
(280,49,l),
(303,26,o),
(389,-5,o),
(457,-5,qs),
(518,-5,o)
);
}
);
width = 693;
},
{
anchors = (
{
name = bottom;
pos = (365,0);
},
{
name = ogonek;
pos = (503,0);
},
{
name = top;
pos = (365,660);
}
);
layerId = m004;
shapes = (
{
closed = 1;
nodes = (
(613,41,o),
(668,128,o),
(668,191,qs),
(668,249,o),
(618,325,o),
(536,364,o),
(488,364,qs),
(455,364,l),
(439,336,l),
(628,551,l),
(628,660,l),
(328,660,ls),
(252,660,o),
(138,603,o),
(74,499,o),
(74,428,qs),
(74,0,l),
(213,0,l),
(213,412,ls),
(213,454,o),
(247,516,o),
(308,550,o),
(347,550,qs),
(489,550,l),
(332,365,l),
(332,280,l),
(432,280,ls),
(479,280,o),
(536,237,o),
(536,194,qs),
(536,167,o),
(513,124,o),
(467,100,o),
(434,100,qs),
(398,100,o),
(343,121,o),
(323,140,q),
(280,49,l),
(303,26,o),
(389,-5,o),
(457,-5,qs),
(518,-5,o)
);
}
);
width = 693;
}
);
note = uni1E9E;
unicode = 7838;
},
{
glyphname = T;
kernLeft = T;
kernRight = T;
lastChange = "2024-03-09 05:12:33 +0000";
layers = (
{
anchors = (
{
name = bottom;
pos = (318,0);
},
{
name = center;
pos = (318,309);
},
{
name = ogonek;
pos = (387,0);
},
{
name = top;
pos = (318,660);
}
);
layerId = m01;
shapes = (
{
closed = 1;
nodes = (
(27,549,l),
(249,549,l),
(249,0,l),
(387,0,l),
(387,549,l),
(608,549,l),
(608,660,l),
(27,660,l)
);
}
);
width = 635;
},
{
anchors = (
{
name = bottom;
pos = (318,0);
},
{
name = center;
pos = (318,309);
},
{
name = ogonek;
pos = (387,0);
},
{
name = top;
pos = (318,660);
}
);
layerId = m002;
shapes = (
{
closed = 1;
nodes = (
(27,350,l),
(249,431,l),
(249,119,l),
(387,79,l),
(387,482,l),
(608,564,l),
(608,682,l),
(27,468,l)
);
}
);
width = 635;
},
{
anchors = (
{
name = bottom;
pos = (318,0);
},
{
name = center;
pos = (318,309);
},
{
name = ogonek;
pos = (387,0);
},
{
name = top;
pos = (318,660);
}
);
layerId = m003;
shapes = (
{
closed = 1;
nodes = (
(27,575,l),
(249,483,l),
(249,77,l),
(387,120,l),
(387,429,l),
(608,342,l),
(608,461,l),
(27,690,l)
);
}
);
width = 635;
},
{
anchors = (
{
name = bottom;
pos = (318,0);
},
{
name = center;
pos = (318,309);
},
{
name = ogonek;
pos = (387,0);
},
{
name = top;
pos = (318,660);
}
);
layerId = m004;
shapes = (
{
closed = 1;
nodes = (
(27,339,l),
(249,339,l),
(249,200,l),
(387,200,l),
(387,339,l),
(608,339,l),
(608,450,l),
(27,450,l)
);
}
);
width = 635;
}
);
note = T;
unicode = 84;
},
{
glyphname = U;
kernLeft = U;
kernRight = J;
lastChange = "2024-03-09 01:27:20 +0000";
layers = (
{
anchors = (
{
name = bottom;
pos = (355,0);
},
{
name = ogonek;
pos = (484,10);
},
{
name = top;
pos = (355,645);
},
{
name = topright;
pos = (645,660);
}
);
layerId = m01;
shapes = (
{
closed = 1;
nodes = (
(498,266,ls),
(498,183,o),
(428,103,o),
(355,103,qs),
(282,103,o),
(211,183,o),
(211,266,qs),
(211,660,l),
(73,660,l),
(73,260,ls),
(73,125,o),
(217,-10,o),
(355,-10,qs),
(493,-10,o),
(637,125,o),
(637,260,qs),
(637,660,l),
(498,660,l)
);
}
);
width = 710;
},
{
anchors = (
{
name = bottom;
pos = (355,0);
},
{
name = ogonek;
pos = (484,10);
},
{
name = top;
pos = (355,645);
},
{
name = topright;
pos = (645,660);
}
);
layerId = m002;
shapes = (
{
closed = 1;
nodes = (
(498,294,ls),
(498,232,o),
(422,205,o),
(355,218,qs),
(295,230,o),
(211,282,o),
(211,365,qs),
(211,521,l),
(73,472,l),
(73,359,ls),
(73,224,o),
(202,134,o),
(355,95,qs),
(495,59,o),
(637,162,o),
(637,288,qs),
(637,677,l),
(498,629,l)
);
}
);
width = 710;
},
{
anchors = (
{
name = bottom;
pos = (355,0);
},
{
name = ogonek;
pos = (484,10);
},
{
name = top;
pos = (355,645);
},
{
name = topright;
pos = (645,660);
}
);
layerId = m003;
shapes = (
{
closed = 1;
nodes = (
(498,347,ls),
(498,288,o),
(429,235,o),
(355,218,qs),
(272,199,o),
(211,245,o),
(211,317,qs),
(211,628,l),
(73,679,l),
(73,311,ls),
(73,176,o),
(224,62,o),
(355,98,qs),
(490,135,o),
(637,218,o),
(637,341,qs),
(637,471,l),
(498,522,l)
);
}
);
width = 710;
},
{
anchors = (
{
name = bottom;
pos = (355,0);
},
{
name = ogonek;
pos = (484,10);
},
{
name = top;
pos = (355,645);
},
{
name = topright;
pos = (645,660);
}
);
layerId = m004;
shapes = (
{
closed = 1;
nodes = (
(498,379,ls),
(498,336,o),
(428,312,o),
(355,312,qs),
(282,312,o),
(211,336,o),
(211,379,qs),
(211,450,l),
(73,450,l),
(73,373,ls),
(73,278,o),
(217,199,o),
(355,199,qs),
(493,199,o),
(637,278,o),
(637,373,qs),
(637,450,l),
(498,450,l)
);
}
);
width = 710;
}
);
note = U;
unicode = 85;
},
{
glyphname = V;
lastChange = "2024-03-09 01:33:21 +0000";
layers = (
{
anchors = (
{
name = bottom;
pos = (335,0);
},
{
name = ogonek;
pos = (416,0);
},
{
name = top;
pos = (335,660);
}
);
layerId = m01;
shapes = (
{
closed = 1;
nodes = (
(374,239,l),
(337,110,l),
(299,240,l),
(160,660,l),
(14,660,l),
(255,0,l),
(416,0,l),
(656,660,l),
(514,660,l)
);
}
);
width = 670;
},
{
anchors = (
{
name = bottom;
pos = (335,0);
},
{
name = ogonek;
pos = (416,0);
},
{
name = top;
pos = (335,660);
}
);
layerId = m002;
shapes = (
{
closed = 1;
nodes = (
(381,329,l),
(337,214,l),
(262,330,l),
(144,505,l),
(14,457,l),
(255,123,l),
(416,76,l),
(656,694,l),
(497,634,l)
);
}
);
width = 670;
},
{
anchors = (
{
name = bottom;
pos = (335,0);
},
{
name = ogonek;
pos = (416,0);
},
{
name = top;
pos = (335,660);
}
);
layerId = m003;
shapes = (
{
closed = 1;
nodes = (
(411,329,l),
(328,200,l),
(282,317,l),
(156,641,l),
(14,693,l),
(255,76,l),
(416,123,l),
(656,457,l),
(528,504,l)
);
}
);
width = 670;
},
{
anchors = (
{
name = bottom;
pos = (335,0);
},
{
name = ogonek;
pos = (416,0);
},
{
name = top;
pos = (335,660);
}
);
layerId = m004;
shapes = (
{
closed = 1;
nodes = (
(374,343,l),
(337,308,l),
(299,343,l),
(197,450,l),
(14,450,l),
(255,200,l),
(416,200,l),
(656,450,l),
(479,450,l)
);
}
);
width = 670;
}
);
note = V;
unicode = 86;
},
{
glyphname = W;
kernLeft = W;
kernRight = W;
lastChange = "2024-03-09 02:19:28 +0000";
layers = (
{
anchors = (
{
name = bottom;
pos = (492,0);
},
{
name = ogonek;
pos = (772,0);
},
{
name = top;
pos = (492,660);
}
);
layerId = m01;
shapes = (
{
closed = 1;
nodes = (
(461,360,l),
(492,516,l),
(494,516,l),
(525,360,l),
(617,0,l),
(772,0,l),
(964,660,l),
(823,660,l),
(694,115,l),
(560,660,l),
(428,660,l),
(296,115,l),
(166,660,l),
(19,660,l),
(211,0,l),
(370,0,l)
);
}
);
width = 984;
},
{
anchors = (
{
name = bottom;
pos = (492,0);
},
{
name = ogonek;
pos = (772,0);
},
{
name = top;
pos = (492,660);
}
);
layerId = m002;
shapes = (
{
closed = 1;
nodes = (
(464,359,l),
(495,438,l),
(500,439,l),
(522,360,l),
(601,78,l),
(772,44,l),
(964,694,l),
(823,658,l),
(694,176,l),
(571,595,l),
(428,558,l),
(296,254,l),
(166,493,l),
(19,455,l),
(211,157,l),
(373,124,l)
);
}
);
width = 984;
},
{
anchors = (
{
name = bottom;
pos = (492,0);
},
{
name = ogonek;
pos = (772,0);
},
{
name = top;
pos = (492,660);
}
);
layerId = m003;
shapes = (
{
closed = 1;
nodes = (
(463,360,l),
(492,444,l),
(494,444,l),
(525,360,l),
(617,125,l),
(772,158,l),
(964,456,l),
(823,491,l),
(694,256,l),
(560,558,l),
(428,591,l),
(296,176,l),
(166,657,l),
(19,694,l),
(211,44,l),
(370,75,l)
);
}
);
width = 984;
},
{
anchors = (
{
name = bottom;
pos = (492,0);
},
{
name = ogonek;
pos = (772,0);
},
{
name = top;
pos = (492,660);
}
);
layerId = m004;
shapes = (
{
closed = 1;
nodes = (
(459,302,l),
(492,338,l),
(494,338,l),
(527,302,l),
(617,200,l),
(772,200,l),
(964,450,l),
(786,450,l),
(694,314,l),
(573,450,l),
(415,450,l),
(296,314,l),
(196,450,l),
(19,450,l),
(211,200,l),
(370,200,l)
);
}
);
width = 984;
}
);
note = W;
unicode = 87;
},
{
glyphname = X;
lastChange = "2024-03-09 02:37:20 +0000";
layers = (
{
anchors = (
{
name = bottom;
pos = (318,0);
},
{
name = ogonek;
pos = (624,0);
},
{
name = top;
pos = (318,660);
}
);
layerId = m01;
shapes = (
{
closed = 1;
nodes = (
(612,660,l),
(462,660,l),
(327,438,l),
(194,660,l),
(32,660,l),
(243,333,l),
(16,0,l),
(174,0,l),
(316,234,l),
(460,0,l),
(624,0,l),
(400,338,l)
);
}
);
width = 640;
},
{
anchors = (
{
name = bottom;
pos = (318,0);
},
{
name = ogonek;
pos = (624,0);
},
{
name = top;
pos = (318,660);
}
);
layerId = m002;
shapes = (
{
closed = 1;
nodes = (
(612,689,l),
(421,614,l),
(324,438,l),
(194,527,l),
(32,464,l),
(254,333,l),
(16,194,l),
(174,145,l),
(316,234,l),
(415,70,l),
(624,5,l),
(400,338,l)
);
}
);
width = 640;
},
{
anchors = (
{
name = bottom;
pos = (318,0);
},
{
name = ogonek;
pos = (624,0);
},
{
name = top;
pos = (318,660);
}
);
layerId = m003;
shapes = (
{
closed = 1;
nodes = (
(612,462,l),
(462,520,l),
(327,438,l),
(231,611,l),
(32,688,l),
(243,333,l),
(15,5,l),
(211,66,l),
(316,234,l),
(457,143,l),
(624,195,l),
(384,338,l)
);
}
);
width = 640;
},
{
anchors = (
{
name = bottom;
pos = (318,0);
},
{
name = ogonek;
pos = (624,0);
},
{
name = top;
pos = (318,660);
}
);
layerId = m004;
shapes = (
{
closed = 1;
nodes = (
(612,450,l),
(393,450,l),
(327,403,l),
(254,450,l),
(32,450,l),
(243,326,l),
(16,200,l),
(243,200,l),
(316,252,l),
(392,200,l),
(624,200,l),
(400,328,l)
);
}
);
width = 640;
}
);
note = X;
unicode = 88;
},
{
glyphname = Y;
kernLeft = Y;
kernRight = Y;
lastChange = "2024-03-09 03:04:09 +0000";
layers = (
{
anchors = (
{
name = bottom;
pos = (313,0);
},
{
name = ogonek;
pos = (382,0);
},
{
name = top;
pos = (313,648);
}
);
layerId = m01;
shapes = (
{
closed = 1;
nodes = (
(364,463,l),
(313,359,l),
(263,463,l),
(157,660,l),
(10,660,l),
(244,247,l),
(244,0,l),
(382,0,l),
(382,247,l),
(616,660,l),
(470,660,l)
);
}
);
width = 626;
},
{
anchors = (
{
name = bottom;
pos = (313,0);
},
{
name = ogonek;
pos = (382,0);
},
{
name = top;
pos = (313,648);
}
);
layerId = m002;
shapes = (
{
closed = 1;
nodes = (
(336,410,l),
(313,359,l),
(263,408,l),
(157,513,l),
(10,455,l),
(244,247,l),
(244,122,l),
(382,78,l),
(382,247,l),
(616,696,l),
(435,624,l)
);
}
);
width = 626;
},
{
anchors = (
{
name = bottom;
pos = (313,0);
},
{
name = ogonek;
pos = (382,0);
},
{
name = top;
pos = (313,648);
}
);
layerId = m003;
shapes = (
{
closed = 1;
nodes = (
(370,395,l),
(323,345,l),
(271,450,l),
(192,623,l),
(10,696,l),
(244,247,l),
(244,77,l),
(382,121,l),
(382,247,l),
(616,454,l),
(482,508,l)
);
}
);
width = 626;
},
{
anchors = (
{
name = bottom;
pos = (313,0);
},
{
name = ogonek;
pos = (382,0);
},
{
name = top;
pos = (313,648);
}
);
layerId = m004;
shapes = (
{
closed = 1;
nodes = (
(345,388,l),
(313,360,l),
(280,388,l),
(207,450,l),
(10,450,l),
(244,293,l),
(244,200,l),
(382,200,l),
(382,293,l),
(616,450,l),
(418,450,l)
);
}
);
width = 626;
}
);
note = Y;
unicode = 89;
},
{
glyphname = Z;
kernLeft = Z;
kernRight = uni01F1;
lastChange = "2024-03-09 03:10:55 +0000";
layers = (
{
anchors = (
{
name = bottom;
pos = (306,0);
},
{
name = ogonek;
pos = (593,0);
},
{
name = top;
pos = (315,660);
}
);
layerId = m01;
shapes = (
{
closed = 1;
nodes = (
(581,660,l),
(52,660,l),
(52,550,l),
(494,550,l),
(470,598,l),
(44,104,l),
(44,0,l),
(593,0,l),
(593,110,l),
(131,110,l),
(156,62,l),
(581,556,l)
);
}
);
width = 633;
},
{
anchors = (
{
name = bottom;
pos = (306,0);
},
{
name = ogonek;
pos = (593,0);
},
{
name = top;
pos = (315,660);
}
);
layerId = m002;
shapes = (
{
closed = 1;
nodes = (
(582,680,l),
(52,471,l),
(52,348,l),
(494,537,l),
(470,598,l),
(44,290,l),
(44,186,l),
(593,13,l),
(593,130,l),
(131,274,l),
(156,230,l),
(582,549,l)
);
}
);
width = 633;
},
{
anchors = (
{
name = bottom;
pos = (306,0);
},
{
name = ogonek;
pos = (593,0);
},
{
name = top;
pos = (315,660);
}
);
layerId = m003;
shapes = (
{
closed = 1;
nodes = (
(581,470,l),
(52,679,l),
(52,558,l),
(494,387,l),
(483,431,l),
(44,145,l),
(44,13,l),
(593,188,l),
(593,304,l),
(131,146,l),
(156,92,l),
(581,355,l)
);
}
);
width = 633;
},
{
anchors = (
{
name = bottom;
pos = (306,0);
},
{
name = ogonek;
pos = (593,0);
},
{
name = top;
pos = (315,660);
}
);
layerId = m004;
shapes = (
{
closed = 1;
nodes = (
(581,450,l),
(52,450,l),
(52,340,l),
(494,340,l),
(470,388,l),
(44,304,l),
(44,200,l),
(593,200,l),
(593,310,l),
(131,310,l),
(156,262,l),
(581,346,l)
);
}
);
width = 633;
}
);
note = Z;
unicode = 90;
},
{
glyphname = uni0162;
kernLeft = T;
kernRight = T;
lastChange = "2024-03-08 15:26:52 +0000";
layers = (
{
anchors = (
{
name = bottom;
pos = (318,0);
},
{
name = center;
pos = (318,309);
},
{
name = ogonek;
pos = (387,0);
},
{
name = top;
pos = (318,660);
}
);
layerId = m01;
shapes = (
{
closed = 1;
nodes = (
(342,-47,o),
(342,-71,qs),
(342,-101,o),
(309,-133,o),
(282,-133,qs),
(261,-133,o),
(232,-121,o),
(219,-113,q),
(195,-186,l),
(212,-198,o),
(259,-215,o),
(294,-215,qs),
(355,-215,o),
(428,-147,o),
(428,-93,qs),
(428,-44,o),
(363,20,o),
(291,34,q),
(259,5,l),
(304,-12,o)
);
},
{
closed = 1;
nodes = (
(27,549,l),
(249,549,l),
(249,0,l),
(387,0,l),
(387,549,l),
(608,549,l),
(608,660,l),
(27,660,l)
);
}
);
width = 635;
},
{
anchors = (
{
name = bottom;
pos = (318,0);
},
{
name = center;
pos = (318,309);
},
{
name = ogonek;
pos = (387,0);
},
{
name = top;
pos = (318,660);
}
);
layerId = m002;
shapes = (
{
closed = 1;
nodes = (
(342,-47,o),
(342,-71,qs),
(342,-101,o),
(309,-133,o),
(282,-133,qs),
(261,-133,o),
(232,-121,o),
(219,-113,q),
(195,-186,l),
(212,-198,o),
(259,-215,o),
(294,-215,qs),
(355,-215,o),
(428,-147,o),
(428,-93,qs),
(428,-44,o),
(363,20,o),
(291,34,q),
(259,5,l),
(304,-12,o)
);
},
{
closed = 1;
nodes = (
(27,549,l),
(249,549,l),
(249,0,l),
(387,0,l),
(387,549,l),
(608,549,l),
(608,660,l),
(27,660,l)
);
}
);
width = 635;
},
{
anchors = (
{
name = bottom;
pos = (318,0);
},
{
name = center;
pos = (318,309);
},
{
name = ogonek;
pos = (387,0);
},
{
name = top;
pos = (318,660);
}
);
layerId = m003;
shapes = (
{
closed = 1;
nodes = (
(342,-47,o),
(342,-71,qs),
(342,-101,o),
(309,-133,o),
(282,-133,qs),
(261,-133,o),
(232,-121,o),
(219,-113,q),
(195,-186,l),
(212,-198,o),
(259,-215,o),
(294,-215,qs),
(355,-215,o),
(428,-147,o),
(428,-93,qs),
(428,-44,o),
(363,20,o),
(291,34,q),
(259,5,l),
(304,-12,o)
);
},
{
closed = 1;
nodes = (
(27,549,l),
(249,549,l),
(249,0,l),
(387,0,l),
(387,549,l),
(608,549,l),
(608,660,l),
(27,660,l)
);
}
);
width = 635;
},
{
anchors = (
{
name = bottom;
pos = (318,0);
},
{
name = center;
pos = (318,309);
},
{
name = ogonek;
pos = (387,0);
},
{
name = top;
pos = (318,660);
}
);
layerId = m004;
shapes = (
{
closed = 1;
nodes = (
(342,-47,o),
(342,-71,qs),
(342,-101,o),
(309,-133,o),
(282,-133,qs),
(261,-133,o),
(232,-121,o),
(219,-113,q),
(195,-186,l),
(212,-198,o),
(259,-215,o),
(294,-215,qs),
(355,-215,o),
(428,-147,o),
(428,-93,qs),
(428,-44,o),
(363,20,o),
(291,34,q),
(259,5,l),
(304,-12,o)
);
},
{
closed = 1;
nodes = (
(27,549,l),
(249,549,l),
(249,0,l),
(387,0,l),
(387,549,l),
(608,549,l),
(608,660,l),
(27,660,l)
);
}
);
width = 635;
}
);
note = uni0162;
unicode = 354;
},
{
glyphname = uni018E;
kernRight = uni018E;
lastChange = "2024-03-08 15:26:52 +0000";
layers = (
{
anchors = (
{
name = bottom;
pos = (288,0);
},
{
name = top;
pos = (300,660);
}
);
layerId = m01;
shapes = (
{
closed = 1;
nodes = (
(52,660,l),
(52,549,l),
(409,549,l),
(409,385,l),
(128,385,l),
(128,279,l),
(409,279,l),
(409,111,l),
(38,111,l),
(38,0,l),
(547,0,l),
(547,660,l)
);
}
);
width = 633;
},
{
anchors = (
{
name = bottom;
pos = (288,0);
},
{
name = top;
pos = (300,660);
}
);
layerId = m002;
shapes = (
{
closed = 1;
nodes = (
(52,660,l),
(52,549,l),
(409,549,l),
(409,385,l),
(128,385,l),
(128,279,l),
(409,279,l),
(409,111,l),
(38,111,l),
(38,0,l),
(547,0,l),
(547,660,l)
);
}
);
width = 633;
},
{
anchors = (
{
name = bottom;
pos = (288,0);
},
{
name = top;
pos = (300,660);
}
);
layerId = m003;
shapes = (
{
closed = 1;
nodes = (
(52,660,l),
(52,549,l),
(409,549,l),
(409,385,l),
(128,385,l),
(128,279,l),
(409,279,l),
(409,111,l),
(38,111,l),
(38,0,l),
(547,0,l),
(547,660,l)
);
}
);
width = 633;
},
{
anchors = (
{
name = bottom;
pos = (288,0);
},
{
name = top;
pos = (300,660);
}
);
layerId = m004;
shapes = (
{
closed = 1;
nodes = (
(52,660,l),
(52,549,l),
(409,549,l),
(409,385,l),
(128,385,l),
(128,279,l),
(409,279,l),
(409,111,l),
(38,111,l),
(38,0,l),
(547,0,l),
(547,660,l)
);
}
);
width = 633;
}
);
note = uni018E;
unicode = 398;
},
{
glyphname = uni0241;
lastChange = "2024-03-08 15:26:52 +0000";
layers = (
{
layerId = m01;
shapes = (
{
closed = 1;
nodes = (
(106,620,o),
(37,531,o),
(24,474,q),
(154,424,l),
(162,487,o),
(236,555,o),
(296,555,qs),
(330,555,o),
(382,529,o),
(412,483,o),
(412,452,qs),
(412,407,o),
(378,342,o),
(296,302,o),
(225,294,q),
(225,0,l),
(359,0,l),
(359,216,l),
(415,228,o),
(506,281,o),
(561,377,o),
(561,454,qs),
(561,519,o),
(496,616,o),
(381,670,o),
(306,670,qs),
(222,670,o)
);
}
);
width = 587;
},
{
layerId = m002;
shapes = (
{
closed = 1;
nodes = (
(106,620,o),
(37,531,o),
(24,474,q),
(154,424,l),
(162,487,o),
(236,555,o),
(296,555,qs),
(330,555,o),
(382,529,o),
(412,483,o),
(412,452,qs),
(412,407,o),
(378,342,o),
(296,302,o),
(225,294,q),
(225,0,l),
(359,0,l),
(359,216,l),
(415,228,o),
(506,281,o),
(561,377,o),
(561,454,qs),
(561,519,o),
(496,616,o),
(381,670,o),
(306,670,qs),
(222,670,o)
);
}
);
width = 587;
},
{
layerId = m003;
shapes = (
{
closed = 1;
nodes = (
(106,620,o),
(37,531,o),
(24,474,q),
(154,424,l),
(162,487,o),
(236,555,o),
(296,555,qs),
(330,555,o),
(382,529,o),
(412,483,o),
(412,452,qs),
(412,407,o),
(378,342,o),
(296,302,o),
(225,294,q),
(225,0,l),
(359,0,l),
(359,216,l),
(415,228,o),
(506,281,o),
(561,377,o),
(561,454,qs),
(561,519,o),
(496,616,o),
(381,670,o),
(306,670,qs),
(222,670,o)
);
}
);
width = 587;
},
{
layerId = m004;
shapes = (
{
closed = 1;
nodes = (
(106,620,o),
(37,531,o),
(24,474,q),
(154,424,l),
(162,487,o),
(236,555,o),
(296,555,qs),
(330,555,o),
(382,529,o),
(412,483,o),
(412,452,qs),
(412,407,o),
(378,342,o),
(296,302,o),
(225,294,q),
(225,0,l),
(359,0,l),
(359,216,l),
(415,228,o),
(506,281,o),
(561,377,o),
(561,454,qs),
(561,519,o),
(496,616,o),
(381,670,o),
(306,670,qs),
(222,670,o)
);
}
);
width = 587;
}
);
note = uni0241;
unicode = 577;
},
{
glyphname = uni1EA4;
kernLeft = A;
kernRight = A;
lastChange = "2024-03-08 15:26:52 +0000";
layers = (
{
anchors = (
{
name = bottom;
pos = (335,0);
},
{
name = ogonek;
pos = (659,0);
},
{
name = top;
pos = (335,847);
}
);
layerId = m01;
shapes = (
{
closed = 1;
nodes = (
(271,889,l),
(164,725,l),
(263,725,l),
(335,821,l),
(408,725,l),
(507,725,l),
(400,889,l)
);
},
{
closed = 1;
nodes = (
(565,834,l),
(644,979,l),
(531,979,l),
(474,834,l)
);
},
{
closed = 1;
nodes = (
(253,660,l),
(12,0,l),
(153,0,l),
(208,161,l),
(461,161,l),
(516,0,l),
(659,0,l),
(418,660,l)
);
},
{
closed = 1;
nodes = (
(430,263,l),
(239,263,l),
(334,551,l)
);
}
);
width = 671;
},
{
anchors = (
{
name = bottom;
pos = (335,0);
},
{
name = ogonek;
pos = (659,0);
},
{
name = top;
pos = (335,847);
}
);
layerId = m002;
shapes = (
{
closed = 1;
nodes = (
(271,889,l),
(164,725,l),
(263,725,l),
(335,821,l),
(408,725,l),
(507,725,l),
(400,889,l)
);
},
{
closed = 1;
nodes = (
(565,834,l),
(644,979,l),
(531,979,l),
(474,834,l)
);
},
{
closed = 1;
nodes = (
(253,660,l),
(12,0,l),
(153,0,l),
(208,161,l),
(461,161,l),
(516,0,l),
(659,0,l),
(418,660,l)
);
},
{
closed = 1;
nodes = (
(430,263,l),
(239,263,l),
(334,551,l)
);
}
);
width = 671;
},
{
anchors = (
{
name = bottom;
pos = (335,0);
},
{
name = ogonek;
pos = (659,0);
},
{
name = top;
pos = (335,847);
}
);
layerId = m003;
shapes = (
{
closed = 1;
nodes = (
(271,889,l),
(164,725,l),
(263,725,l),
(335,821,l),
(408,725,l),
(507,725,l),
(400,889,l)
);
},
{
closed = 1;
nodes = (
(565,834,l),
(644,979,l),
(531,979,l),
(474,834,l)
);
},
{
closed = 1;
nodes = (
(253,660,l),
(12,0,l),
(153,0,l),
(208,161,l),
(461,161,l),
(516,0,l),
(659,0,l),
(418,660,l)
);
},
{
closed = 1;
nodes = (
(430,263,l),
(239,263,l),
(334,551,l)
);
}
);
width = 671;
},
{
anchors = (
{
name = bottom;
pos = (335,0);
},
{
name = ogonek;
pos = (659,0);
},
{
name = top;
pos = (335,847);
}
);
layerId = m004;
shapes = (
{
closed = 1;
nodes = (
(271,889,l),
(164,725,l),
(263,725,l),
(335,821,l),
(408,725,l),
(507,725,l),
(400,889,l)
);
},
{
closed = 1;
nodes = (
(565,834,l),
(644,979,l),
(531,979,l),
(474,834,l)
);
},
{
closed = 1;
nodes = (
(253,660,l),
(12,0,l),
(153,0,l),
(208,161,l),
(461,161,l),
(516,0,l),
(659,0,l),
(418,660,l)
);
},
{
closed = 1;
nodes = (
(430,263,l),
(239,263,l),
(334,551,l)
);
}
);
width = 671;
}
);
note = uni1EA4;
unicode = 7844;
},
{
glyphname = uni1EA6;
kernLeft = A;
kernRight = A;
lastChange = "2024-03-08 15:26:52 +0000";
layers = (
{
anchors = (
{
name = bottom;
pos = (335,0);
},
{
name = ogonek;
pos = (659,0);
},
{
name = top;
pos = (335,847);
}
);
layerId = m01;
shapes = (
{
closed = 1;
nodes = (
(271,889,l),
(164,725,l),
(263,725,l),
(335,821,l),
(408,725,l),
(507,725,l),
(400,889,l)
);
},
{
closed = 1;
nodes = (
(493,834,l),
(584,834,l),
(527,979,l),
(414,979,l)
);
},
{
closed = 1;
nodes = (
(253,660,l),
(12,0,l),
(153,0,l),
(208,161,l),
(461,161,l),
(516,0,l),
(659,0,l),
(418,660,l)
);
},
{
closed = 1;
nodes = (
(430,263,l),
(239,263,l),
(334,551,l)
);
}
);
width = 671;
},
{
anchors = (
{
name = bottom;
pos = (335,0);
},
{
name = ogonek;
pos = (659,0);
},
{
name = top;
pos = (335,847);
}
);
layerId = m002;
shapes = (
{
closed = 1;
nodes = (
(271,889,l),
(164,725,l),
(263,725,l),
(335,821,l),
(408,725,l),
(507,725,l),
(400,889,l)
);
},
{
closed = 1;
nodes = (
(493,834,l),
(584,834,l),
(527,979,l),
(414,979,l)
);
},
{
closed = 1;
nodes = (
(253,660,l),
(12,0,l),
(153,0,l),
(208,161,l),
(461,161,l),
(516,0,l),
(659,0,l),
(418,660,l)
);
},
{
closed = 1;
nodes = (
(430,263,l),
(239,263,l),
(334,551,l)
);
}
);
width = 671;
},
{
anchors = (
{
name = bottom;
pos = (335,0);
},
{
name = ogonek;
pos = (659,0);
},
{
name = top;
pos = (335,847);
}
);
layerId = m003;
shapes = (
{
closed = 1;
nodes = (
(271,889,l),
(164,725,l),
(263,725,l),
(335,821,l),
(408,725,l),
(507,725,l),
(400,889,l)
);
},
{
closed = 1;
nodes = (
(493,834,l),
(584,834,l),
(527,979,l),
(414,979,l)
);
},
{
closed = 1;
nodes = (
(253,660,l),
(12,0,l),
(153,0,l),
(208,161,l),
(461,161,l),
(516,0,l),
(659,0,l),
(418,660,l)
);
},
{
closed = 1;
nodes = (
(430,263,l),
(239,263,l),
(334,551,l)
);
}
);
width = 671;
},
{
anchors = (
{
name = bottom;
pos = (335,0);
},
{
name = ogonek;
pos = (659,0);
},
{
name = top;
pos = (335,847);
}
);
layerId = m004;
shapes = (
{
closed = 1;
nodes = (
(271,889,l),
(164,725,l),
(263,725,l),
(335,821,l),
(408,725,l),
(507,725,l),
(400,889,l)
);
},
{
closed = 1;
nodes = (
(493,834,l),
(584,834,l),
(527,979,l),
(414,979,l)
);
},
{
closed = 1;
nodes = (
(253,660,l),
(12,0,l),
(153,0,l),
(208,161,l),
(461,161,l),
(516,0,l),
(659,0,l),
(418,660,l)
);
},
{
closed = 1;
nodes = (
(430,263,l),
(239,263,l),
(334,551,l)
);
}
);
width = 671;
}
);
note = uni1EA6;
unicode = 7846;
},
{
glyphname = uni1EA8;
kernLeft = A;
kernRight = A;
lastChange = "2024-03-08 15:26:52 +0000";
layers = (
{
anchors = (
{
name = bottom;
pos = (335,0);
},
{
name = ogonek;
pos = (659,0);
},
{
name = top;
pos = (335,847);
}
);
layerId = m01;
shapes = (
{
closed = 1;
nodes = (
(271,889,l),
(164,725,l),
(263,725,l),
(335,821,l),
(408,725,l),
(507,725,l),
(400,889,l)
);
},
{
closed = 1;
nodes = (
(582,856,o),
(611,903,o),
(611,933,qs),
(611,963,o),
(581,1006,o),
(532,1030,o),
(502,1030,qs),
(457,1030,o),
(395,991,o),
(381,956,q),
(448,921,l),
(455,935,o),
(475,949,o),
(489,949,qs),
(507,949,o),
(525,930,o),
(525,916,qs),
(525,898,o),
(500,872,o),
(473,859,q),
(507,816,l),
(534,825,o)
);
},
{
closed = 1;
nodes = (
(253,660,l),
(12,0,l),
(153,0,l),
(208,161,l),
(461,161,l),
(516,0,l),
(659,0,l),
(418,660,l)
);
},
{
closed = 1;
nodes = (
(430,263,l),
(239,263,l),
(334,551,l)
);
}
);
width = 671;
},
{
anchors = (
{
name = bottom;
pos = (335,0);
},
{
name = ogonek;
pos = (659,0);
},
{
name = top;
pos = (335,847);
}
);
layerId = m002;
shapes = (
{
closed = 1;
nodes = (
(271,889,l),
(164,725,l),
(263,725,l),
(335,821,l),
(408,725,l),
(507,725,l),
(400,889,l)
);
},
{
closed = 1;
nodes = (
(582,856,o),
(611,903,o),
(611,933,qs),
(611,963,o),
(581,1006,o),
(532,1030,o),
(502,1030,qs),
(457,1030,o),
(395,991,o),
(381,956,q),
(448,921,l),
(455,935,o),
(475,949,o),
(489,949,qs),
(507,949,o),
(525,930,o),
(525,916,qs),
(525,898,o),
(500,872,o),
(473,859,q),
(507,816,l),
(534,825,o)
);
},
{
closed = 1;
nodes = (
(253,660,l),
(12,0,l),
(153,0,l),
(208,161,l),
(461,161,l),
(516,0,l),
(659,0,l),
(418,660,l)
);
},
{
closed = 1;
nodes = (
(430,263,l),
(239,263,l),
(334,551,l)
);
}
);
width = 671;
},
{
anchors = (
{
name = bottom;
pos = (335,0);
},
{
name = ogonek;
pos = (659,0);
},
{
name = top;
pos = (335,847);
}
);
layerId = m003;
shapes = (
{
closed = 1;
nodes = (
(271,889,l),
(164,725,l),
(263,725,l),
(335,821,l),
(408,725,l),
(507,725,l),
(400,889,l)
);
},
{
closed = 1;
nodes = (
(582,856,o),
(611,903,o),
(611,933,qs),
(611,963,o),
(581,1006,o),
(532,1030,o),
(502,1030,qs),
(457,1030,o),
(395,991,o),
(381,956,q),
(448,921,l),
(455,935,o),
(475,949,o),
(489,949,qs),
(507,949,o),
(525,930,o),
(525,916,qs),
(525,898,o),
(500,872,o),
(473,859,q),
(507,816,l),
(534,825,o)
);
},
{
closed = 1;
nodes = (
(253,660,l),
(12,0,l),
(153,0,l),
(208,161,l),
(461,161,l),
(516,0,l),
(659,0,l),
(418,660,l)
);
},
{
closed = 1;
nodes = (
(430,263,l),
(239,263,l),
(334,551,l)
);
}
);
width = 671;
},
{
anchors = (
{
name = bottom;
pos = (335,0);
},
{
name = ogonek;
pos = (659,0);
},
{
name = top;
pos = (335,847);
}
);
layerId = m004;
shapes = (
{
closed = 1;
nodes = (
(271,889,l),
(164,725,l),
(263,725,l),
(335,821,l),
(408,725,l),
(507,725,l),
(400,889,l)
);
},
{
closed = 1;
nodes = (
(582,856,o),
(611,903,o),
(611,933,qs),
(611,963,o),
(581,1006,o),
(532,1030,o),
(502,1030,qs),
(457,1030,o),
(395,991,o),
(381,956,q),
(448,921,l),
(455,935,o),
(475,949,o),
(489,949,qs),
(507,949,o),
(525,930,o),
(525,916,qs),
(525,898,o),
(500,872,o),
(473,859,q),
(507,816,l),
(534,825,o)
);
},
{
closed = 1;
nodes = (
(253,660,l),
(12,0,l),
(153,0,l),
(208,161,l),
(461,161,l),
(516,0,l),
(659,0,l),
(418,660,l)
);
},
{
closed = 1;
nodes = (
(430,263,l),
(239,263,l),
(334,551,l)
);
}
);
width = 671;
}
);
note = uni1EA8;
unicode = 7848;
},
{
glyphname = uni1EAA;
kernLeft = A;
kernRight = A;
lastChange = "2024-03-08 15:26:52 +0000";
layers = (
{
anchors = (
{
name = bottom;
pos = (335,0);
},
{
name = ogonek;
pos = (659,0);
},
{
name = top;
pos = (335,847);
}
);
layerId = m01;
shapes = (
{
closed = 1;
nodes = (
(271,889,l),
(164,725,l),
(263,725,l),
(335,821,l),
(408,725,l),
(507,725,l),
(400,889,l)
);
},
{
closed = 1;
nodes = (
(432,1025,o),
(414,998,o),
(397,998,qs),
(382,998,o),
(360,1015,o),
(333,1037,o),
(297,1054,o),
(272,1054,qs),
(221,1054,o),
(159,987,o),
(155,916,q),
(234,916,l),
(238,943,o),
(256,970,o),
(273,970,qs),
(288,970,o),
(312,953,o),
(339,931,o),
(376,914,o),
(403,914,qs),
(449,914,o),
(512,981,o),
(515,1052,q),
(436,1052,l)
);
},
{
closed = 1;
nodes = (
(253,660,l),
(12,0,l),
(153,0,l),
(208,161,l),
(461,161,l),
(516,0,l),
(659,0,l),
(418,660,l)
);
},
{
closed = 1;
nodes = (
(430,263,l),
(239,263,l),
(334,551,l)
);
}
);
width = 671;
},
{
anchors = (
{
name = bottom;
pos = (335,0);
},
{
name = ogonek;
pos = (659,0);
},
{
name = top;
pos = (335,847);
}
);
layerId = m002;
shapes = (
{
closed = 1;
nodes = (
(271,889,l),
(164,725,l),
(263,725,l),
(335,821,l),
(408,725,l),
(507,725,l),
(400,889,l)
);
},
{
closed = 1;
nodes = (
(432,1025,o),
(414,998,o),
(397,998,qs),
(382,998,o),
(360,1015,o),
(333,1037,o),
(297,1054,o),
(272,1054,qs),
(221,1054,o),
(159,987,o),
(155,916,q),
(234,916,l),
(238,943,o),
(256,970,o),
(273,970,qs),
(288,970,o),
(312,953,o),
(339,931,o),
(376,914,o),
(403,914,qs),
(449,914,o),
(512,981,o),
(515,1052,q),
(436,1052,l)
);
},
{
closed = 1;
nodes = (
(253,660,l),
(12,0,l),
(153,0,l),
(208,161,l),
(461,161,l),
(516,0,l),
(659,0,l),
(418,660,l)
);
},
{
closed = 1;
nodes = (
(430,263,l),
(239,263,l),
(334,551,l)
);
}
);
width = 671;
},
{
anchors = (
{
name = bottom;
pos = (335,0);
},
{
name = ogonek;
pos = (659,0);
},
{
name = top;
pos = (335,847);
}
);
layerId = m003;
shapes = (
{
closed = 1;
nodes = (
(271,889,l),
(164,725,l),
(263,725,l),
(335,821,l),
(408,725,l),
(507,725,l),
(400,889,l)
);
},
{
closed = 1;
nodes = (
(432,1025,o),
(414,998,o),
(397,998,qs),
(382,998,o),
(360,1015,o),
(333,1037,o),
(297,1054,o),
(272,1054,qs),
(221,1054,o),
(159,987,o),
(155,916,q),
(234,916,l),
(238,943,o),
(256,970,o),
(273,970,qs),
(288,970,o),
(312,953,o),
(339,931,o),
(376,914,o),
(403,914,qs),
(449,914,o),
(512,981,o),
(515,1052,q),
(436,1052,l)
);
},
{
closed = 1;
nodes = (
(253,660,l),
(12,0,l),
(153,0,l),
(208,161,l),
(461,161,l),
(516,0,l),
(659,0,l),
(418,660,l)
);
},
{
closed = 1;
nodes = (
(430,263,l),
(239,263,l),
(334,551,l)
);
}
);
width = 671;
},
{
anchors = (
{
name = bottom;
pos = (335,0);
},
{
name = ogonek;
pos = (659,0);
},
{
name = top;
pos = (335,847);
}
);
layerId = m004;
shapes = (
{
closed = 1;
nodes = (
(271,889,l),
(164,725,l),
(263,725,l),
(335,821,l),
(408,725,l),
(507,725,l),
(400,889,l)
);
},
{
closed = 1;
nodes = (
(432,1025,o),
(414,998,o),
(397,998,qs),
(382,998,o),
(360,1015,o),
(333,1037,o),
(297,1054,o),
(272,1054,qs),
(221,1054,o),
(159,987,o),
(155,916,q),
(234,916,l),
(238,943,o),
(256,970,o),
(273,970,qs),
(288,970,o),
(312,953,o),
(339,931,o),
(376,914,o),
(403,914,qs),
(449,914,o),
(512,981,o),
(515,1052,q),
(436,1052,l)
);
},
{
closed = 1;
nodes = (
(253,660,l),
(12,0,l),
(153,0,l),
(208,161,l),
(461,161,l),
(516,0,l),
(659,0,l),
(418,660,l)
);
},
{
closed = 1;
nodes = (
(430,263,l),
(239,263,l),
(334,551,l)
);
}
);
width = 671;
}
);
note = uni1EAA;
unicode = 7850;
},
{
glyphname = uni1EAE;
kernLeft = A;
kernRight = A;
lastChange = "2024-03-08 15:26:52 +0000";
layers = (
{
anchors = (
{
name = bottom;
pos = (335,0);
},
{
name = ogonek;
pos = (659,0);
},
{
name = top;
pos = (335,1013);
}
);
layerId = m01;
shapes = (
{
closed = 1;
nodes = (
(401,843,o),
(368,800,o),
(335,800,qs),
(303,800,o),
(269,843,o),
(269,874,q),
(181,874,l),
(181,805,o),
(265,723,o),
(335,723,qs),
(406,723,o),
(490,805,o),
(490,874,q),
(402,874,l)
);
},
{
closed = 1;
nodes = (
(443,1032,l),
(325,1032,l),
(273,894,l),
(367,894,l)
);
},
{
closed = 1;
nodes = (
(253,660,l),
(12,0,l),
(153,0,l),
(208,161,l),
(461,161,l),
(516,0,l),
(659,0,l),
(418,660,l)
);
},
{
closed = 1;
nodes = (
(430,263,l),
(239,263,l),
(334,551,l)
);
}
);
width = 671;
},
{
anchors = (
{
name = bottom;
pos = (335,0);
},
{
name = ogonek;
pos = (659,0);
},
{
name = top;
pos = (335,1013);
}
);
layerId = m002;
shapes = (
{
closed = 1;
nodes = (
(401,843,o),
(368,800,o),
(335,800,qs),
(303,800,o),
(269,843,o),
(269,874,q),
(181,874,l),
(181,805,o),
(265,723,o),
(335,723,qs),
(406,723,o),
(490,805,o),
(490,874,q),
(402,874,l)
);
},
{
closed = 1;
nodes = (
(443,1032,l),
(325,1032,l),
(273,894,l),
(367,894,l)
);
},
{
closed = 1;
nodes = (
(253,660,l),
(12,0,l),
(153,0,l),
(208,161,l),
(461,161,l),
(516,0,l),
(659,0,l),
(418,660,l)
);
},
{
closed = 1;
nodes = (
(430,263,l),
(239,263,l),
(334,551,l)
);
}
);
width = 671;
},
{
anchors = (
{
name = bottom;
pos = (335,0);
},
{
name = ogonek;
pos = (659,0);
},
{
name = top;
pos = (335,1013);
}
);
layerId = m003;
shapes = (
{
closed = 1;
nodes = (
(401,843,o),
(368,800,o),
(335,800,qs),
(303,800,o),
(269,843,o),
(269,874,q),
(181,874,l),
(181,805,o),
(265,723,o),
(335,723,qs),
(406,723,o),
(490,805,o),
(490,874,q),
(402,874,l)
);
},
{
closed = 1;
nodes = (
(443,1032,l),
(325,1032,l),
(273,894,l),
(367,894,l)
);
},
{
closed = 1;
nodes = (
(253,660,l),
(12,0,l),
(153,0,l),
(208,161,l),
(461,161,l),
(516,0,l),
(659,0,l),
(418,660,l)
);
},
{
closed = 1;
nodes = (
(430,263,l),
(239,263,l),
(334,551,l)
);
}
);
width = 671;
},
{
anchors = (
{
name = bottom;
pos = (335,0);
},
{
name = ogonek;
pos = (659,0);
},
{
name = top;
pos = (335,1013);
}
);
layerId = m004;
shapes = (
{
closed = 1;
nodes = (
(401,843,o),
(368,800,o),
(335,800,qs),
(303,800,o),
(269,843,o),
(269,874,q),
(181,874,l),
(181,805,o),
(265,723,o),
(335,723,qs),
(406,723,o),
(490,805,o),
(490,874,q),
(402,874,l)
);
},
{
closed = 1;
nodes = (
(443,1032,l),
(325,1032,l),
(273,894,l),
(367,894,l)
);
},
{
closed = 1;
nodes = (
(253,660,l),
(12,0,l),
(153,0,l),
(208,161,l),
(461,161,l),
(516,0,l),
(659,0,l),
(418,660,l)
);
},
{
closed = 1;
nodes = (
(430,263,l),
(239,263,l),
(334,551,l)
);
}
);
width = 671;
}
);
note = uni1EAE;
unicode = 7854;
},
{
glyphname = uni1EB0;
kernLeft = A;
kernRight = A;
lastChange = "2024-03-08 15:26:52 +0000";
layers = (
{
anchors = (
{
name = bottom;
pos = (335,0);
},
{
name = ogonek;
pos = (659,0);
},
{
name = top;
pos = (335,1013);
}
);
layerId = m01;
shapes = (
{
closed = 1;
nodes = (
(401,843,o),
(368,800,o),
(335,800,qs),
(303,800,o),
(269,843,o),
(269,874,q),
(181,874,l),
(181,805,o),
(265,723,o),
(335,723,qs),
(406,723,o),
(490,805,o),
(490,874,q),
(402,874,l)
);
},
{
closed = 1;
nodes = (
(228,1032,l),
(304,894,l),
(398,894,l),
(346,1032,l)
);
},
{
closed = 1;
nodes = (
(253,660,l),
(12,0,l),
(153,0,l),
(208,161,l),
(461,161,l),
(516,0,l),
(659,0,l),
(418,660,l)
);
},
{
closed = 1;
nodes = (
(430,263,l),
(239,263,l),
(334,551,l)
);
}
);
width = 671;
},
{
anchors = (
{
name = bottom;
pos = (335,0);
},
{
name = ogonek;
pos = (659,0);
},
{
name = top;
pos = (335,1013);
}
);
layerId = m002;
shapes = (
{
closed = 1;
nodes = (
(401,843,o),
(368,800,o),
(335,800,qs),
(303,800,o),
(269,843,o),
(269,874,q),
(181,874,l),
(181,805,o),
(265,723,o),
(335,723,qs),
(406,723,o),
(490,805,o),
(490,874,q),
(402,874,l)
);
},
{
closed = 1;
nodes = (
(228,1032,l),
(304,894,l),
(398,894,l),
(346,1032,l)
);
},
{
closed = 1;
nodes = (
(253,660,l),
(12,0,l),
(153,0,l),
(208,161,l),
(461,161,l),
(516,0,l),
(659,0,l),
(418,660,l)
);
},
{
closed = 1;
nodes = (
(430,263,l),
(239,263,l),
(334,551,l)
);
}
);
width = 671;
},
{
anchors = (
{
name = bottom;
pos = (335,0);
},
{
name = ogonek;
pos = (659,0);
},
{
name = top;
pos = (335,1013);
}
);
layerId = m003;
shapes = (
{
closed = 1;
nodes = (
(401,843,o),
(368,800,o),
(335,800,qs),
(303,800,o),
(269,843,o),
(269,874,q),
(181,874,l),
(181,805,o),
(265,723,o),
(335,723,qs),
(406,723,o),
(490,805,o),
(490,874,q),
(402,874,l)
);
},
{
closed = 1;
nodes = (
(228,1032,l),
(304,894,l),
(398,894,l),
(346,1032,l)
);
},
{
closed = 1;
nodes = (
(253,660,l),
(12,0,l),
(153,0,l),
(208,161,l),
(461,161,l),
(516,0,l),
(659,0,l),
(418,660,l)
);
},
{
closed = 1;
nodes = (
(430,263,l),
(239,263,l),
(334,551,l)
);
}
);
width = 671;
},
{
anchors = (
{
name = bottom;
pos = (335,0);
},
{
name = ogonek;
pos = (659,0);
},
{
name = top;
pos = (335,1013);
}
);
layerId = m004;
shapes = (
{
closed = 1;
nodes = (
(401,843,o),
(368,800,o),
(335,800,qs),
(303,800,o),
(269,843,o),
(269,874,q),
(181,874,l),
(181,805,o),
(265,723,o),
(335,723,qs),
(406,723,o),
(490,805,o),
(490,874,q),
(402,874,l)
);
},
{
closed = 1;
nodes = (
(228,1032,l),
(304,894,l),
(398,894,l),
(346,1032,l)
);
},
{
closed = 1;
nodes = (
(253,660,l),
(12,0,l),
(153,0,l),
(208,161,l),
(461,161,l),
(516,0,l),
(659,0,l),
(418,660,l)
);
},
{
closed = 1;
nodes = (
(430,263,l),
(239,263,l),
(334,551,l)
);
}
);
width = 671;
}
);
note = uni1EB0;
unicode = 7856;
},
{
glyphname = uni1EB2;
kernLeft = A;
kernRight = A;
lastChange = "2024-03-08 15:26:52 +0000";
layers = (
{
anchors = (
{
name = bottom;
pos = (335,0);
},
{
name = ogonek;
pos = (659,0);
},
{
name = top;
pos = (335,988);
}
);
layerId = m01;
shapes = (
{
closed = 1;
nodes = (
(401,843,o),
(368,800,o),
(335,800,qs),
(303,800,o),
(269,843,o),
(269,874,q),
(181,874,l),
(181,805,o),
(265,723,o),
(335,723,qs),
(406,723,o),
(490,805,o),
(490,874,q),
(402,874,l)
);
},
{
closed = 1;
nodes = (
(408,917,o),
(436,962,o),
(436,991,qs),
(436,1020,o),
(408,1061,o),
(361,1084,o),
(331,1084,qs),
(289,1084,o),
(229,1047,o),
(216,1014,q),
(279,979,l),
(286,994,o),
(305,1007,o),
(319,1007,qs),
(337,1007,o),
(354,988,o),
(354,975,qs),
(354,957,o),
(330,932,o),
(304,920,q),
(336,878,l),
(363,887,o)
);
},
{
closed = 1;
nodes = (
(253,660,l),
(12,0,l),
(153,0,l),
(208,161,l),
(461,161,l),
(516,0,l),
(659,0,l),
(418,660,l)
);
},
{
closed = 1;
nodes = (
(430,263,l),
(239,263,l),
(334,551,l)
);
}
);
width = 671;
},
{
anchors = (
{
name = bottom;
pos = (335,0);
},
{
name = ogonek;
pos = (659,0);
},
{
name = top;
pos = (335,988);
}
);
layerId = m002;
shapes = (
{
closed = 1;
nodes = (
(401,843,o),
(368,800,o),
(335,800,qs),
(303,800,o),
(269,843,o),
(269,874,q),
(181,874,l),
(181,805,o),
(265,723,o),
(335,723,qs),
(406,723,o),
(490,805,o),
(490,874,q),
(402,874,l)
);
},
{
closed = 1;
nodes = (
(408,917,o),
(436,962,o),
(436,991,qs),
(436,1020,o),
(408,1061,o),
(361,1084,o),
(331,1084,qs),
(289,1084,o),
(229,1047,o),
(216,1014,q),
(279,979,l),
(286,994,o),
(305,1007,o),
(319,1007,qs),
(337,1007,o),
(354,988,o),
(354,975,qs),
(354,957,o),
(330,932,o),
(304,920,q),
(336,878,l),
(363,887,o)
);
},
{
closed = 1;
nodes = (
(253,660,l),
(12,0,l),
(153,0,l),
(208,161,l),
(461,161,l),
(516,0,l),
(659,0,l),
(418,660,l)
);
},
{
closed = 1;
nodes = (
(430,263,l),
(239,263,l),
(334,551,l)
);
}
);
width = 671;
},
{
anchors = (
{
name = bottom;
pos = (335,0);
},
{
name = ogonek;
pos = (659,0);
},
{
name = top;
pos = (335,988);
}
);
layerId = m003;
shapes = (
{
closed = 1;
nodes = (
(401,843,o),
(368,800,o),
(335,800,qs),
(303,800,o),
(269,843,o),
(269,874,q),
(181,874,l),
(181,805,o),
(265,723,o),
(335,723,qs),
(406,723,o),
(490,805,o),
(490,874,q),
(402,874,l)
);
},
{
closed = 1;
nodes = (
(408,917,o),
(436,962,o),
(436,991,qs),
(436,1020,o),
(408,1061,o),
(361,1084,o),
(331,1084,qs),
(289,1084,o),
(229,1047,o),
(216,1014,q),
(279,979,l),
(286,994,o),
(305,1007,o),
(319,1007,qs),
(337,1007,o),
(354,988,o),
(354,975,qs),
(354,957,o),
(330,932,o),
(304,920,q),
(336,878,l),
(363,887,o)
);
},
{
closed = 1;
nodes = (
(253,660,l),
(12,0,l),
(153,0,l),
(208,161,l),
(461,161,l),
(516,0,l),
(659,0,l),
(418,660,l)
);
},
{
closed = 1;
nodes = (
(430,263,l),
(239,263,l),
(334,551,l)
);
}
);
width = 671;
},
{
anchors = (
{
name = bottom;
pos = (335,0);
},
{
name = ogonek;
pos = (659,0);
},
{
name = top;
pos = (335,988);
}
);
layerId = m004;
shapes = (
{
closed = 1;
nodes = (
(401,843,o),
(368,800,o),
(335,800,qs),
(303,800,o),
(269,843,o),
(269,874,q),
(181,874,l),
(181,805,o),
(265,723,o),
(335,723,qs),
(406,723,o),
(490,805,o),
(490,874,q),
(402,874,l)
);
},
{
closed = 1;
nodes = (
(408,917,o),
(436,962,o),
(436,991,qs),
(436,1020,o),
(408,1061,o),
(361,1084,o),
(331,1084,qs),
(289,1084,o),
(229,1047,o),
(216,1014,q),
(279,979,l),
(286,994,o),
(305,1007,o),
(319,1007,qs),
(337,1007,o),
(354,988,o),
(354,975,qs),
(354,957,o),
(330,932,o),
(304,920,q),
(336,878,l),
(363,887,o)
);
},
{
closed = 1;
nodes = (
(253,660,l),
(12,0,l),
(153,0,l),
(208,161,l),
(461,161,l),
(516,0,l),
(659,0,l),
(418,660,l)
);
},
{
closed = 1;
nodes = (
(430,263,l),
(239,263,l),
(334,551,l)
);
}
);
width = 671;
}
);
note = uni1EB2;
unicode = 7858;
},
{
glyphname = uni1EB4;
kernLeft = A;
kernRight = A;
lastChange = "2024-03-08 15:26:52 +0000";
layers = (
{
anchors = (
{
name = bottom;
pos = (335,0);
},
{
name = ogonek;
pos = (659,0);
},
{
name = top;
pos = (336,835);
}
);
layerId = m01;
shapes = (
{
closed = 1;
nodes = (
(402,843,o),
(369,800,o),
(336,800,qs),
(304,800,o),
(270,843,o),
(269,874,q),
(181,874,l),
(181,805,o),
(266,723,o),
(336,723,qs),
(406,723,o),
(490,805,o),
(490,874,q),
(403,874,l)
);
},
{
closed = 1;
nodes = (
(433,1014,o),
(414,988,o),
(397,988,qs),
(383,988,o),
(360,1005,o),
(334,1027,o),
(298,1044,o),
(272,1044,qs),
(222,1044,o),
(159,977,o),
(155,906,q),
(235,906,l),
(239,933,o),
(257,960,o),
(274,960,qs),
(288,960,o),
(313,943,o),
(340,921,o),
(377,904,o),
(404,904,qs),
(450,904,o),
(512,971,o),
(516,1042,q),
(437,1042,l)
);
},
{
closed = 1;
nodes = (
(253,660,l),
(12,0,l),
(153,0,l),
(208,161,l),
(461,161,l),
(516,0,l),
(659,0,l),
(418,660,l)
);
},
{
closed = 1;
nodes = (
(430,263,l),
(239,263,l),
(334,551,l)
);
}
);
width = 671;
},
{
anchors = (
{
name = bottom;
pos = (335,0);
},
{
name = ogonek;
pos = (659,0);
},
{
name = top;
pos = (336,835);
}
);
layerId = m002;
shapes = (
{
closed = 1;
nodes = (
(402,843,o),
(369,800,o),
(336,800,qs),
(304,800,o),
(270,843,o),
(269,874,q),
(181,874,l),
(181,805,o),
(266,723,o),
(336,723,qs),
(406,723,o),
(490,805,o),
(490,874,q),
(403,874,l)
);
},
{
closed = 1;
nodes = (
(433,1014,o),
(414,988,o),
(397,988,qs),
(383,988,o),
(360,1005,o),
(334,1027,o),
(298,1044,o),
(272,1044,qs),
(222,1044,o),
(159,977,o),
(155,906,q),
(235,906,l),
(239,933,o),
(257,960,o),
(274,960,qs),
(288,960,o),
(313,943,o),
(340,921,o),
(377,904,o),
(404,904,qs),
(450,904,o),
(512,971,o),
(516,1042,q),
(437,1042,l)
);
},
{
closed = 1;
nodes = (
(253,660,l),
(12,0,l),
(153,0,l),
(208,161,l),
(461,161,l),
(516,0,l),
(659,0,l),
(418,660,l)
);
},
{
closed = 1;
nodes = (
(430,263,l),
(239,263,l),
(334,551,l)
);
}
);
width = 671;
},
{
anchors = (
{
name = bottom;
pos = (335,0);
},
{
name = ogonek;
pos = (659,0);
},
{
name = top;
pos = (336,835);
}
);
layerId = m003;
shapes = (
{
closed = 1;
nodes = (
(402,843,o),
(369,800,o),
(336,800,qs),
(304,800,o),
(270,843,o),
(269,874,q),
(181,874,l),
(181,805,o),
(266,723,o),
(336,723,qs),
(406,723,o),
(490,805,o),
(490,874,q),
(403,874,l)
);
},
{
closed = 1;
nodes = (
(433,1014,o),
(414,988,o),
(397,988,qs),
(383,988,o),
(360,1005,o),
(334,1027,o),
(298,1044,o),
(272,1044,qs),
(222,1044,o),
(159,977,o),
(155,906,q),
(235,906,l),
(239,933,o),
(257,960,o),
(274,960,qs),
(288,960,o),
(313,943,o),
(340,921,o),
(377,904,o),
(404,904,qs),
(450,904,o),
(512,971,o),
(516,1042,q),
(437,1042,l)
);
},
{
closed = 1;
nodes = (
(253,660,l),
(12,0,l),
(153,0,l),
(208,161,l),
(461,161,l),
(516,0,l),
(659,0,l),
(418,660,l)
);
},
{
closed = 1;
nodes = (
(430,263,l),
(239,263,l),
(334,551,l)
);
}
);
width = 671;
},
{
anchors = (
{
name = bottom;
pos = (335,0);
},
{
name = ogonek;
pos = (659,0);
},
{
name = top;
pos = (336,835);
}
);
layerId = m004;
shapes = (
{
closed = 1;
nodes = (
(402,843,o),
(369,800,o),
(336,800,qs),
(304,800,o),
(270,843,o),
(269,874,q),
(181,874,l),
(181,805,o),
(266,723,o),
(336,723,qs),
(406,723,o),
(490,805,o),
(490,874,q),
(403,874,l)
);
},
{
closed = 1;
nodes = (
(433,1014,o),
(414,988,o),
(397,988,qs),
(383,988,o),
(360,1005,o),
(334,1027,o),
(298,1044,o),
(272,1044,qs),
(222,1044,o),
(159,977,o),
(155,906,q),
(235,906,l),
(239,933,o),
(257,960,o),
(274,960,qs),
(288,960,o),
(313,943,o),
(340,921,o),
(377,904,o),
(404,904,qs),
(450,904,o),
(512,971,o),
(516,1042,q),
(437,1042,l)
);
},
{
closed = 1;
nodes = (
(253,660,l),
(12,0,l),
(153,0,l),
(208,161,l),
(461,161,l),
(516,0,l),
(659,0,l),
(418,660,l)
);
},
{
closed = 1;
nodes = (
(430,263,l),
(239,263,l),
(334,551,l)
);
}
);
width = 671;
}
);
note = uni1EB4;
unicode = 7860;
},
{
glyphname = uni1EBE;
kernLeft = B;
kernRight = AE;
lastChange = "2024-03-08 15:26:52 +0000";
layers = (
{
anchors = (
{
name = bottom;
pos = (345,0);
},
{
name = ogonek;
pos = (596,0);
},
{
name = top;
pos = (334,847);
}
);
layerId = m01;
shapes = (
{
closed = 1;
nodes = (
(270,889,l),
(162,725,l),
(261,725,l),
(334,821,l),
(407,725,l),
(505,725,l),
(398,889,l)
);
},
{
closed = 1;
nodes = (
(564,834,l),
(643,979,l),
(529,979,l),
(472,834,l)
);
},
{
closed = 1;
nodes = (
(595,111,l),
(224,111,l),
(224,279,l),
(505,279,l),
(505,385,l),
(224,385,l),
(224,549,l),
(581,549,l),
(581,660,l),
(86,660,l),
(86,0,l),
(595,0,l)
);
}
);
width = 633;
},
{
anchors = (
{
name = bottom;
pos = (345,0);
},
{
name = ogonek;
pos = (596,0);
},
{
name = top;
pos = (334,847);
}
);
layerId = m002;
shapes = (
{
closed = 1;
nodes = (
(270,889,l),
(162,725,l),
(261,725,l),
(334,821,l),
(407,725,l),
(505,725,l),
(398,889,l)
);
},
{
closed = 1;
nodes = (
(564,834,l),
(643,979,l),
(529,979,l),
(472,834,l)
);
},
{
closed = 1;
nodes = (
(595,111,l),
(224,111,l),
(224,279,l),
(505,279,l),
(505,385,l),
(224,385,l),
(224,549,l),
(581,549,l),
(581,660,l),
(86,660,l),
(86,0,l),
(595,0,l)
);
}
);
width = 633;
},
{
anchors = (
{
name = bottom;
pos = (345,0);
},
{
name = ogonek;
pos = (596,0);
},
{
name = top;
pos = (334,847);
}
);
layerId = m003;
shapes = (
{
closed = 1;
nodes = (
(270,889,l),
(162,725,l),
(261,725,l),
(334,821,l),
(407,725,l),
(505,725,l),
(398,889,l)
);
},
{
closed = 1;
nodes = (
(564,834,l),
(643,979,l),
(529,979,l),
(472,834,l)
);
},
{
closed = 1;
nodes = (
(595,111,l),
(224,111,l),
(224,279,l),
(505,279,l),
(505,385,l),
(224,385,l),
(224,549,l),
(581,549,l),
(581,660,l),
(86,660,l),
(86,0,l),
(595,0,l)
);
}
);
width = 633;
},
{
anchors = (
{
name = bottom;
pos = (345,0);
},
{
name = ogonek;
pos = (596,0);
},
{
name = top;
pos = (334,847);
}
);
layerId = m004;
shapes = (
{
closed = 1;
nodes = (
(270,889,l),
(162,725,l),
(261,725,l),
(334,821,l),
(407,725,l),
(505,725,l),
(398,889,l)
);
},
{
closed = 1;
nodes = (
(564,834,l),
(643,979,l),
(529,979,l),
(472,834,l)
);
},
{
closed = 1;
nodes = (
(595,111,l),
(224,111,l),
(224,279,l),
(505,279,l),
(505,385,l),
(224,385,l),
(224,549,l),
(581,549,l),
(581,660,l),
(86,660,l),
(86,0,l),
(595,0,l)
);
}
);
width = 633;
}
);
note = uni1EBE;
unicode = 7870;
},
{
glyphname = uni1EC0;
kernLeft = B;
kernRight = AE;
lastChange = "2024-03-08 15:26:52 +0000";
layers = (
{
anchors = (
{
name = bottom;
pos = (345,0);
},
{
name = ogonek;
pos = (596,0);
},
{
name = top;
pos = (334,847);
}
);
layerId = m01;
shapes = (
{
closed = 1;
nodes = (
(270,889,l),
(162,725,l),
(261,725,l),
(334,821,l),
(407,725,l),
(505,725,l),
(398,889,l)
);
},
{
closed = 1;
nodes = (
(491,834,l),
(583,834,l),
(526,979,l),
(412,979,l)
);
},
{
closed = 1;
nodes = (
(595,111,l),
(224,111,l),
(224,279,l),
(505,279,l),
(505,385,l),
(224,385,l),
(224,549,l),
(581,549,l),
(581,660,l),
(86,660,l),
(86,0,l),
(595,0,l)
);
}
);
width = 633;
},
{
anchors = (
{
name = bottom;
pos = (345,0);
},
{
name = ogonek;
pos = (596,0);
},
{
name = top;
pos = (334,847);
}
);
layerId = m002;
shapes = (
{
closed = 1;
nodes = (
(270,889,l),
(162,725,l),
(261,725,l),
(334,821,l),
(407,725,l),
(505,725,l),
(398,889,l)
);
},
{
closed = 1;
nodes = (
(491,834,l),
(583,834,l),
(526,979,l),
(412,979,l)
);
},
{
closed = 1;
nodes = (
(595,111,l),
(224,111,l),
(224,279,l),
(505,279,l),
(505,385,l),
(224,385,l),
(224,549,l),
(581,549,l),
(581,660,l),
(86,660,l),
(86,0,l),
(595,0,l)
);
}
);
width = 633;
},
{
anchors = (
{
name = bottom;
pos = (345,0);
},
{
name = ogonek;
pos = (596,0);
},
{
name = top;
pos = (334,847);
}
);
layerId = m003;
shapes = (
{
closed = 1;
nodes = (
(270,889,l),
(162,725,l),
(261,725,l),
(334,821,l),
(407,725,l),
(505,725,l),
(398,889,l)
);
},
{
closed = 1;
nodes = (
(491,834,l),
(583,834,l),
(526,979,l),
(412,979,l)
);
},
{
closed = 1;
nodes = (
(595,111,l),
(224,111,l),
(224,279,l),
(505,279,l),
(505,385,l),
(224,385,l),
(224,549,l),
(581,549,l),
(581,660,l),
(86,660,l),
(86,0,l),
(595,0,l)
);
}
);
width = 633;
},
{
anchors = (
{
name = bottom;
pos = (345,0);
},
{
name = ogonek;
pos = (596,0);
},
{
name = top;
pos = (334,847);
}
);
layerId = m004;
shapes = (
{
closed = 1;
nodes = (
(270,889,l),
(162,725,l),
(261,725,l),
(334,821,l),
(407,725,l),
(505,725,l),
(398,889,l)
);
},
{
closed = 1;
nodes = (
(491,834,l),
(583,834,l),
(526,979,l),
(412,979,l)
);
},
{
closed = 1;
nodes = (
(595,111,l),
(224,111,l),
(224,279,l),
(505,279,l),
(505,385,l),
(224,385,l),
(224,549,l),
(581,549,l),
(581,660,l),
(86,660,l),
(86,0,l),
(595,0,l)
);
}
);
width = 633;
}
);
note = uni1EC0;
unicode = 7872;
},
{
glyphname = uni1EC2;
kernLeft = B;
kernRight = AE;
lastChange = "2024-03-08 15:26:52 +0000";
layers = (
{
anchors = (
{
name = bottom;
pos = (345,0);
},
{
name = ogonek;
pos = (596,0);
},
{
name = top;
pos = (334,847);
}
);
layerId = m01;
shapes = (
{
closed = 1;
nodes = (
(270,889,l),
(162,725,l),
(261,725,l),
(334,821,l),
(407,725,l),
(505,725,l),
(398,889,l)
);
},
{
closed = 1;
nodes = (
(581,856,o),
(609,903,o),
(609,933,qs),
(609,963,o),
(580,1006,o),
(530,1030,o),
(500,1030,qs),
(456,1030,o),
(393,991,o),
(380,956,q),
(446,921,l),
(454,935,o),
(473,949,o),
(488,949,qs),
(505,949,o),
(523,930,o),
(523,916,qs),
(523,898,o),
(499,872,o),
(472,859,q),
(505,816,l),
(533,825,o)
);
},
{
closed = 1;
nodes = (
(595,111,l),
(224,111,l),
(224,279,l),
(505,279,l),
(505,385,l),
(224,385,l),
(224,549,l),
(581,549,l),
(581,660,l),
(86,660,l),
(86,0,l),
(595,0,l)
);
}
);
width = 633;
},
{
anchors = (
{
name = bottom;
pos = (345,0);
},
{
name = ogonek;
pos = (596,0);
},
{
name = top;
pos = (334,847);
}
);
layerId = m002;
shapes = (
{
closed = 1;
nodes = (
(270,889,l),
(162,725,l),
(261,725,l),
(334,821,l),
(407,725,l),
(505,725,l),
(398,889,l)
);
},
{
closed = 1;
nodes = (
(581,856,o),
(609,903,o),
(609,933,qs),
(609,963,o),
(580,1006,o),
(530,1030,o),
(500,1030,qs),
(456,1030,o),
(393,991,o),
(380,956,q),
(446,921,l),
(454,935,o),
(473,949,o),
(488,949,qs),
(505,949,o),
(523,930,o),
(523,916,qs),
(523,898,o),
(499,872,o),
(472,859,q),
(505,816,l),
(533,825,o)
);
},
{
closed = 1;
nodes = (
(595,111,l),
(224,111,l),
(224,279,l),
(505,279,l),
(505,385,l),
(224,385,l),
(224,549,l),
(581,549,l),
(581,660,l),
(86,660,l),
(86,0,l),
(595,0,l)
);
}
);
width = 633;
},
{
anchors = (
{
name = bottom;
pos = (345,0);
},
{
name = ogonek;
pos = (596,0);
},
{
name = top;
pos = (334,847);
}
);
layerId = m003;
shapes = (
{
closed = 1;
nodes = (
(270,889,l),
(162,725,l),
(261,725,l),
(334,821,l),
(407,725,l),
(505,725,l),
(398,889,l)
);
},
{
closed = 1;
nodes = (
(581,856,o),
(609,903,o),
(609,933,qs),
(609,963,o),
(580,1006,o),
(530,1030,o),
(500,1030,qs),
(456,1030,o),
(393,991,o),
(380,956,q),
(446,921,l),
(454,935,o),
(473,949,o),
(488,949,qs),
(505,949,o),
(523,930,o),
(523,916,qs),
(523,898,o),
(499,872,o),
(472,859,q),
(505,816,l),
(533,825,o)
);
},
{
closed = 1;
nodes = (
(595,111,l),
(224,111,l),
(224,279,l),
(505,279,l),
(505,385,l),
(224,385,l),
(224,549,l),
(581,549,l),
(581,660,l),
(86,660,l),
(86,0,l),
(595,0,l)
);
}
);
width = 633;
},
{
anchors = (
{
name = bottom;
pos = (345,0);
},
{
name = ogonek;
pos = (596,0);
},
{
name = top;
pos = (334,847);
}
);
layerId = m004;
shapes = (
{
closed = 1;
nodes = (
(270,889,l),
(162,725,l),
(261,725,l),
(334,821,l),
(407,725,l),
(505,725,l),
(398,889,l)
);
},
{
closed = 1;
nodes = (
(581,856,o),
(609,903,o),
(609,933,qs),
(609,963,o),
(580,1006,o),
(530,1030,o),
(500,1030,qs),
(456,1030,o),
(393,991,o),
(380,956,q),
(446,921,l),
(454,935,o),
(473,949,o),
(488,949,qs),
(505,949,o),
(523,930,o),
(523,916,qs),
(523,898,o),
(499,872,o),
(472,859,q),
(505,816,l),
(533,825,o)
);
},
{
closed = 1;
nodes = (
(595,111,l),
(224,111,l),
(224,279,l),
(505,279,l),
(505,385,l),
(224,385,l),
(224,549,l),
(581,549,l),
(581,660,l),
(86,660,l),
(86,0,l),
(595,0,l)
);
}
);
width = 633;
}
);
note = uni1EC2;
unicode = 7874;
},
{
glyphname = uni1EC4;
kernLeft = B;
kernRight = AE;
lastChange = "2024-03-08 15:26:52 +0000";
layers = (
{
anchors = (
{
name = bottom;
pos = (345,0);
},
{
name = ogonek;
pos = (596,0);
},
{
name = top;
pos = (334,847);
}
);
layerId = m01;
shapes = (
{
closed = 1;
nodes = (
(270,889,l),
(162,725,l),
(261,725,l),
(334,821,l),
(407,725,l),
(505,725,l),
(398,889,l)
);
},
{
closed = 1;
nodes = (
(431,1025,o),
(412,998,o),
(395,998,qs),
(381,998,o),
(358,1015,o),
(332,1037,o),
(296,1054,o),
(270,1054,qs),
(220,1054,o),
(157,987,o),
(153,916,q),
(233,916,l),
(237,943,o),
(255,970,o),
(272,970,qs),
(286,970,o),
(311,953,o),
(338,931,o),
(375,914,o),
(402,914,qs),
(448,914,o),
(510,981,o),
(514,1052,q),
(435,1052,l)
);
},
{
closed = 1;
nodes = (
(595,111,l),
(224,111,l),
(224,279,l),
(505,279,l),
(505,385,l),
(224,385,l),
(224,549,l),
(581,549,l),
(581,660,l),
(86,660,l),
(86,0,l),
(595,0,l)
);
}
);
width = 633;
},
{
anchors = (
{
name = bottom;
pos = (345,0);
},
{
name = ogonek;
pos = (596,0);
},
{
name = top;
pos = (334,847);
}
);
layerId = m002;
shapes = (
{
closed = 1;
nodes = (
(270,889,l),
(162,725,l),
(261,725,l),
(334,821,l),
(407,725,l),
(505,725,l),
(398,889,l)
);
},
{
closed = 1;
nodes = (
(431,1025,o),
(412,998,o),
(395,998,qs),
(381,998,o),
(358,1015,o),
(332,1037,o),
(296,1054,o),
(270,1054,qs),
(220,1054,o),
(157,987,o),
(153,916,q),
(233,916,l),
(237,943,o),
(255,970,o),
(272,970,qs),
(286,970,o),
(311,953,o),
(338,931,o),
(375,914,o),
(402,914,qs),
(448,914,o),
(510,981,o),
(514,1052,q),
(435,1052,l)
);
},
{
closed = 1;
nodes = (
(595,111,l),
(224,111,l),
(224,279,l),
(505,279,l),
(505,385,l),
(224,385,l),
(224,549,l),
(581,549,l),
(581,660,l),
(86,660,l),
(86,0,l),
(595,0,l)
);
}
);
width = 633;
},
{
anchors = (
{
name = bottom;
pos = (345,0);
},
{
name = ogonek;
pos = (596,0);
},
{
name = top;
pos = (334,847);
}
);
layerId = m003;
shapes = (
{
closed = 1;
nodes = (
(270,889,l),
(162,725,l),
(261,725,l),
(334,821,l),
(407,725,l),
(505,725,l),
(398,889,l)
);
},
{
closed = 1;
nodes = (
(431,1025,o),
(412,998,o),
(395,998,qs),
(381,998,o),
(358,1015,o),
(332,1037,o),
(296,1054,o),
(270,1054,qs),
(220,1054,o),
(157,987,o),
(153,916,q),
(233,916,l),
(237,943,o),
(255,970,o),
(272,970,qs),
(286,970,o),
(311,953,o),
(338,931,o),
(375,914,o),
(402,914,qs),
(448,914,o),
(510,981,o),
(514,1052,q),
(435,1052,l)
);
},
{
closed = 1;
nodes = (
(595,111,l),
(224,111,l),
(224,279,l),
(505,279,l),
(505,385,l),
(224,385,l),
(224,549,l),
(581,549,l),
(581,660,l),
(86,660,l),
(86,0,l),
(595,0,l)
);
}
);
width = 633;
},
{
anchors = (
{
name = bottom;
pos = (345,0);
},
{
name = ogonek;
pos = (596,0);
},
{
name = top;
pos = (334,847);
}
);
layerId = m004;
shapes = (
{
closed = 1;
nodes = (
(270,889,l),
(162,725,l),
(261,725,l),
(334,821,l),
(407,725,l),
(505,725,l),
(398,889,l)
);
},
{
closed = 1;
nodes = (
(431,1025,o),
(412,998,o),
(395,998,qs),
(381,998,o),
(358,1015,o),
(332,1037,o),
(296,1054,o),
(270,1054,qs),
(220,1054,o),
(157,987,o),
(153,916,q),
(233,916,l),
(237,943,o),
(255,970,o),
(272,970,qs),
(286,970,o),
(311,953,o),
(338,931,o),
(375,914,o),
(402,914,qs),
(448,914,o),
(510,981,o),
(514,1052,q),
(435,1052,l)
);
},
{
closed = 1;
nodes = (
(595,111,l),
(224,111,l),
(224,279,l),
(505,279,l),
(505,385,l),
(224,385,l),
(224,549,l),
(581,549,l),
(581,660,l),
(86,660,l),
(86,0,l),
(595,0,l)
);
}
);
width = 633;
}
);
note = uni1EC4;
unicode = 7876;
},
{
glyphname = uni1ED0;
kernLeft = C;
kernRight = D;
lastChange = "2024-03-08 15:26:52 +0000";
layers = (
{
anchors = (
{
name = bottom;
pos = (371,0);
},
{
name = center;
pos = (371,330);
},
{
name = ogonek;
pos = (485,7);
},
{
name = top;
pos = (371,847);
},
{
name = topright;
pos = (556,660);
}
);
layerId = m01;
shapes = (
{
closed = 1;
nodes = (
(306,889,l),
(199,725,l),
(298,725,l),
(371,821,l),
(443,725,l),
(542,725,l),
(435,889,l)
);
},
{
closed = 1;
nodes = (
(601,834,l),
(680,979,l),
(566,979,l),
(509,834,l)
);
},
{
closed = 1;
nodes = (
(130,588,o),
(53,436,o),
(53,330,qs),
(53,224,o),
(130,72,o),
(273,-10,o),
(371,-10,qs),
(469,-10,o),
(611,72,o),
(688,224,o),
(688,330,qs),
(688,436,o),
(611,588,o),
(469,670,o),
(371,670,qs),
(273,670,o)
);
},
{
closed = 1;
nodes = (
(504,505,o),
(545,403,o),
(545,330,qs),
(545,257,o),
(504,155,o),
(426,103,o),
(371,103,qs),
(316,103,o),
(237,155,o),
(196,257,o),
(196,330,qs),
(196,403,o),
(237,505,o),
(316,557,o),
(371,557,qs),
(426,557,o)
);
}
);
width = 741;
},
{
anchors = (
{
name = bottom;
pos = (371,0);
},
{
name = center;
pos = (371,330);
},
{
name = ogonek;
pos = (485,7);
},
{
name = top;
pos = (371,847);
},
{
name = topright;
pos = (556,660);
}
);
layerId = m002;
shapes = (
{
closed = 1;
nodes = (
(306,889,l),
(199,725,l),
(298,725,l),
(371,821,l),
(443,725,l),
(542,725,l),
(435,889,l)
);
},
{
closed = 1;
nodes = (
(601,834,l),
(680,979,l),
(566,979,l),
(509,834,l)
);
},
{
closed = 1;
nodes = (
(130,588,o),
(53,436,o),
(53,330,qs),
(53,224,o),
(130,72,o),
(273,-10,o),
(371,-10,qs),
(469,-10,o),
(611,72,o),
(688,224,o),
(688,330,qs),
(688,436,o),
(611,588,o),
(469,670,o),
(371,670,qs),
(273,670,o)
);
},
{
closed = 1;
nodes = (
(504,505,o),
(545,403,o),
(545,330,qs),
(545,257,o),
(504,155,o),
(426,103,o),
(371,103,qs),
(316,103,o),
(237,155,o),
(196,257,o),
(196,330,qs),
(196,403,o),
(237,505,o),
(316,557,o),
(371,557,qs),
(426,557,o)
);
}
);
width = 741;
},
{
anchors = (
{
name = bottom;
pos = (371,0);
},
{
name = center;
pos = (371,330);
},
{
name = ogonek;
pos = (485,7);
},
{
name = top;
pos = (371,847);
},
{
name = topright;
pos = (556,660);
}
);
layerId = m003;
shapes = (
{
closed = 1;
nodes = (
(306,889,l),
(199,725,l),
(298,725,l),
(371,821,l),
(443,725,l),
(542,725,l),
(435,889,l)
);
},
{
closed = 1;
nodes = (
(601,834,l),
(680,979,l),
(566,979,l),
(509,834,l)
);
},
{
closed = 1;
nodes = (
(130,588,o),
(53,436,o),
(53,330,qs),
(53,224,o),
(130,72,o),
(273,-10,o),
(371,-10,qs),
(469,-10,o),
(611,72,o),
(688,224,o),
(688,330,qs),
(688,436,o),
(611,588,o),
(469,670,o),
(371,670,qs),
(273,670,o)
);
},
{
closed = 1;
nodes = (
(504,505,o),
(545,403,o),
(545,330,qs),
(545,257,o),
(504,155,o),
(426,103,o),
(371,103,qs),
(316,103,o),
(237,155,o),
(196,257,o),
(196,330,qs),
(196,403,o),
(237,505,o),
(316,557,o),
(371,557,qs),
(426,557,o)
);
}
);
width = 741;
},
{
anchors = (
{
name = bottom;
pos = (371,0);
},
{
name = center;
pos = (371,330);
},
{
name = ogonek;
pos = (485,7);
},
{
name = top;
pos = (371,847);
},
{
name = topright;
pos = (556,660);
}
);
layerId = m004;
shapes = (
{
closed = 1;
nodes = (
(306,889,l),
(199,725,l),
(298,725,l),
(371,821,l),
(443,725,l),
(542,725,l),
(435,889,l)
);
},
{
closed = 1;
nodes = (
(601,834,l),
(680,979,l),
(566,979,l),
(509,834,l)
);
},
{
closed = 1;
nodes = (
(130,588,o),
(53,436,o),
(53,330,qs),
(53,224,o),
(130,72,o),
(273,-10,o),
(371,-10,qs),
(469,-10,o),
(611,72,o),
(688,224,o),
(688,330,qs),
(688,436,o),
(611,588,o),
(469,670,o),
(371,670,qs),
(273,670,o)
);
},
{
closed = 1;
nodes = (
(504,505,o),
(545,403,o),
(545,330,qs),
(545,257,o),
(504,155,o),
(426,103,o),
(371,103,qs),
(316,103,o),
(237,155,o),
(196,257,o),
(196,330,qs),
(196,403,o),
(237,505,o),
(316,557,o),
(371,557,qs),
(426,557,o)
);
}
);
width = 741;
}
);
note = uni1ED0;
unicode = 7888;
},
{
glyphname = uni1ED2;
kernLeft = C;
kernRight = D;
lastChange = "2024-03-08 15:26:52 +0000";
layers = (
{
anchors = (
{
name = bottom;
pos = (371,0);
},
{
name = center;
pos = (371,330);
},
{
name = ogonek;
pos = (485,7);
},
{
name = top;
pos = (371,847);
},
{
name = topright;
pos = (556,660);
}
);
layerId = m01;
shapes = (
{
closed = 1;
nodes = (
(306,889,l),
(199,725,l),
(298,725,l),
(371,821,l),
(443,725,l),
(542,725,l),
(435,889,l)
);
},
{
closed = 1;
nodes = (
(528,834,l),
(620,834,l),
(563,979,l),
(449,979,l)
);
},
{
closed = 1;
nodes = (
(130,588,o),
(53,436,o),
(53,330,qs),
(53,224,o),
(130,72,o),
(273,-10,o),
(371,-10,qs),
(469,-10,o),
(611,72,o),
(688,224,o),
(688,330,qs),
(688,436,o),
(611,588,o),
(469,670,o),
(371,670,qs),
(273,670,o)
);
},
{
closed = 1;
nodes = (
(504,505,o),
(545,403,o),
(545,330,qs),
(545,257,o),
(504,155,o),
(426,103,o),
(371,103,qs),
(316,103,o),
(237,155,o),
(196,257,o),
(196,330,qs),
(196,403,o),
(237,505,o),
(316,557,o),
(371,557,qs),
(426,557,o)
);
}
);
width = 741;
},
{
anchors = (
{
name = bottom;
pos = (371,0);
},
{
name = center;
pos = (371,330);
},
{
name = ogonek;
pos = (485,7);
},
{
name = top;
pos = (371,847);
},
{
name = topright;
pos = (556,660);
}
);
layerId = m002;
shapes = (
{
closed = 1;
nodes = (
(306,889,l),
(199,725,l),
(298,725,l),
(371,821,l),
(443,725,l),
(542,725,l),
(435,889,l)
);
},
{
closed = 1;
nodes = (
(528,834,l),
(620,834,l),
(563,979,l),
(449,979,l)
);
},
{
closed = 1;
nodes = (
(130,588,o),
(53,436,o),
(53,330,qs),
(53,224,o),
(130,72,o),
(273,-10,o),
(371,-10,qs),
(469,-10,o),
(611,72,o),
(688,224,o),
(688,330,qs),
(688,436,o),
(611,588,o),
(469,670,o),
(371,670,qs),
(273,670,o)
);
},
{
closed = 1;
nodes = (
(504,505,o),
(545,403,o),
(545,330,qs),
(545,257,o),
(504,155,o),
(426,103,o),
(371,103,qs),
(316,103,o),
(237,155,o),
(196,257,o),
(196,330,qs),
(196,403,o),
(237,505,o),
(316,557,o),
(371,557,qs),
(426,557,o)
);
}
);
width = 741;
},
{
anchors = (
{
name = bottom;
pos = (371,0);
},
{
name = center;
pos = (371,330);
},
{
name = ogonek;
pos = (485,7);
},
{
name = top;
pos = (371,847);
},
{
name = topright;
pos = (556,660);
}
);
layerId = m003;
shapes = (
{
closed = 1;
nodes = (
(306,889,l),
(199,725,l),
(298,725,l),
(371,821,l),
(443,725,l),
(542,725,l),
(435,889,l)
);
},
{
closed = 1;
nodes = (
(528,834,l),
(620,834,l),
(563,979,l),
(449,979,l)
);
},
{
closed = 1;
nodes = (
(130,588,o),
(53,436,o),
(53,330,qs),
(53,224,o),
(130,72,o),
(273,-10,o),
(371,-10,qs),
(469,-10,o),
(611,72,o),
(688,224,o),
(688,330,qs),
(688,436,o),
(611,588,o),
(469,670,o),
(371,670,qs),
(273,670,o)
);
},
{
closed = 1;
nodes = (
(504,505,o),
(545,403,o),
(545,330,qs),
(545,257,o),
(504,155,o),
(426,103,o),
(371,103,qs),
(316,103,o),
(237,155,o),
(196,257,o),
(196,330,qs),
(196,403,o),
(237,505,o),
(316,557,o),
(371,557,qs),
(426,557,o)
);
}
);
width = 741;
},
{
anchors = (
{
name = bottom;
pos = (371,0);
},
{
name = center;
pos = (371,330);
},
{
name = ogonek;
pos = (485,7);
},
{
name = top;
pos = (371,847);
},
{
name = topright;
pos = (556,660);
}
);
layerId = m004;
shapes = (
{
closed = 1;
nodes = (
(306,889,l),
(199,725,l),
(298,725,l),
(371,821,l),
(443,725,l),
(542,725,l),
(435,889,l)
);
},
{
closed = 1;
nodes = (
(528,834,l),
(620,834,l),
(563,979,l),
(449,979,l)
);
},
{
closed = 1;
nodes = (
(130,588,o),
(53,436,o),
(53,330,qs),
(53,224,o),
(130,72,o),
(273,-10,o),
(371,-10,qs),
(469,-10,o),
(611,72,o),
(688,224,o),
(688,330,qs),
(688,436,o),
(611,588,o),
(469,670,o),
(371,670,qs),
(273,670,o)
);
},
{
closed = 1;
nodes = (
(504,505,o),
(545,403,o),
(545,330,qs),
(545,257,o),
(504,155,o),
(426,103,o),
(371,103,qs),
(316,103,o),
(237,155,o),
(196,257,o),
(196,330,qs),
(196,403,o),
(237,505,o),
(316,557,o),
(371,557,qs),
(426,557,o)
);
}
);
width = 741;
}
);
note = uni1ED2;
unicode = 7890;
},
{
glyphname = uni1ED4;
kernLeft = C;
kernRight = D;
lastChange = "2024-03-08 15:26:52 +0000";
layers = (
{
anchors = (
{
name = bottom;
pos = (371,0);
},
{
name = center;
pos = (371,330);
},
{
name = ogonek;
pos = (485,7);
},
{
name = top;
pos = (371,847);
},
{
name = topright;
pos = (556,660);
}
);
layerId = m01;
shapes = (
{
closed = 1;
nodes = (
(306,889,l),
(199,725,l),
(298,725,l),
(371,821,l),
(443,725,l),
(542,725,l),
(435,889,l)
);
},
{
closed = 1;
nodes = (
(617,856,o),
(646,903,o),
(646,933,qs),
(646,963,o),
(616,1006,o),
(567,1030,o),
(537,1030,qs),
(493,1030,o),
(430,991,o),
(417,956,q),
(483,921,l),
(490,935,o),
(510,949,o),
(524,949,qs),
(542,949,o),
(560,930,o),
(560,916,qs),
(560,898,o),
(536,872,o),
(508,859,q),
(542,816,l),
(570,825,o)
);
},
{
closed = 1;
nodes = (
(130,588,o),
(53,436,o),
(53,330,qs),
(53,224,o),
(130,72,o),
(273,-10,o),
(371,-10,qs),
(469,-10,o),
(611,72,o),
(688,224,o),
(688,330,qs),
(688,436,o),
(611,588,o),
(469,670,o),
(371,670,qs),
(273,670,o)
);
},
{
closed = 1;
nodes = (
(504,505,o),
(545,403,o),
(545,330,qs),
(545,257,o),
(504,155,o),
(426,103,o),
(371,103,qs),
(316,103,o),
(237,155,o),
(196,257,o),
(196,330,qs),
(196,403,o),
(237,505,o),
(316,557,o),
(371,557,qs),
(426,557,o)
);
}
);
width = 741;
},
{
anchors = (
{
name = bottom;
pos = (371,0);
},
{
name = center;
pos = (371,330);
},
{
name = ogonek;
pos = (485,7);
},
{
name = top;
pos = (371,847);
},
{
name = topright;
pos = (556,660);
}
);
layerId = m002;
shapes = (
{
closed = 1;
nodes = (
(306,889,l),
(199,725,l),
(298,725,l),
(371,821,l),
(443,725,l),
(542,725,l),
(435,889,l)
);
},
{
closed = 1;
nodes = (
(617,856,o),
(646,903,o),
(646,933,qs),
(646,963,o),
(616,1006,o),
(567,1030,o),
(537,1030,qs),
(493,1030,o),
(430,991,o),
(417,956,q),
(483,921,l),
(490,935,o),
(510,949,o),
(524,949,qs),
(542,949,o),
(560,930,o),
(560,916,qs),
(560,898,o),
(536,872,o),
(508,859,q),
(542,816,l),
(570,825,o)
);
},
{
closed = 1;
nodes = (
(130,588,o),
(53,436,o),
(53,330,qs),
(53,224,o),
(130,72,o),
(273,-10,o),
(371,-10,qs),
(469,-10,o),
(611,72,o),
(688,224,o),
(688,330,qs),
(688,436,o),
(611,588,o),
(469,670,o),
(371,670,qs),
(273,670,o)
);
},
{
closed = 1;
nodes = (
(504,505,o),
(545,403,o),
(545,330,qs),
(545,257,o),
(504,155,o),
(426,103,o),
(371,103,qs),
(316,103,o),
(237,155,o),
(196,257,o),
(196,330,qs),
(196,403,o),
(237,505,o),
(316,557,o),
(371,557,qs),
(426,557,o)
);
}
);
width = 741;
},
{
anchors = (
{
name = bottom;
pos = (371,0);
},
{
name = center;
pos = (371,330);
},
{
name = ogonek;
pos = (485,7);
},
{
name = top;
pos = (371,847);
},
{
name = topright;
pos = (556,660);
}
);
layerId = m003;
shapes = (
{
closed = 1;
nodes = (
(306,889,l),
(199,725,l),
(298,725,l),
(371,821,l),
(443,725,l),
(542,725,l),
(435,889,l)
);
},
{
closed = 1;
nodes = (
(617,856,o),
(646,903,o),
(646,933,qs),
(646,963,o),
(616,1006,o),
(567,1030,o),
(537,1030,qs),
(493,1030,o),
(430,991,o),
(417,956,q),
(483,921,l),
(490,935,o),
(510,949,o),
(524,949,qs),
(542,949,o),
(560,930,o),
(560,916,qs),
(560,898,o),
(536,872,o),
(508,859,q),
(542,816,l),
(570,825,o)
);
},
{
closed = 1;
nodes = (
(130,588,o),
(53,436,o),
(53,330,qs),
(53,224,o),
(130,72,o),
(273,-10,o),
(371,-10,qs),
(469,-10,o),
(611,72,o),
(688,224,o),
(688,330,qs),
(688,436,o),
(611,588,o),
(469,670,o),
(371,670,qs),
(273,670,o)
);
},
{
closed = 1;
nodes = (
(504,505,o),
(545,403,o),
(545,330,qs),
(545,257,o),
(504,155,o),
(426,103,o),
(371,103,qs),
(316,103,o),
(237,155,o),
(196,257,o),
(196,330,qs),
(196,403,o),
(237,505,o),
(316,557,o),
(371,557,qs),
(426,557,o)
);
}
);
width = 741;
},
{
anchors = (
{
name = bottom;
pos = (371,0);
},
{
name = center;
pos = (371,330);
},
{
name = ogonek;
pos = (485,7);
},
{
name = top;
pos = (371,847);
},
{
name = topright;
pos = (556,660);
}
);
layerId = m004;
shapes = (
{
closed = 1;
nodes = (
(306,889,l),
(199,725,l),
(298,725,l),
(371,821,l),
(443,725,l),
(542,725,l),
(435,889,l)
);
},
{
closed = 1;
nodes = (
(617,856,o),
(646,903,o),
(646,933,qs),
(646,963,o),
(616,1006,o),
(567,1030,o),
(537,1030,qs),
(493,1030,o),
(430,991,o),
(417,956,q),
(483,921,l),
(490,935,o),
(510,949,o),
(524,949,qs),
(542,949,o),
(560,930,o),
(560,916,qs),
(560,898,o),
(536,872,o),
(508,859,q),
(542,816,l),
(570,825,o)
);
},
{
closed = 1;
nodes = (
(130,588,o),
(53,436,o),
(53,330,qs),
(53,224,o),
(130,72,o),
(273,-10,o),
(371,-10,qs),
(469,-10,o),
(611,72,o),
(688,224,o),
(688,330,qs),
(688,436,o),
(611,588,o),
(469,670,o),
(371,670,qs),
(273,670,o)
);
},
{
closed = 1;
nodes = (
(504,505,o),
(545,403,o),
(545,330,qs),
(545,257,o),
(504,155,o),
(426,103,o),
(371,103,qs),
(316,103,o),
(237,155,o),
(196,257,o),
(196,330,qs),
(196,403,o),
(237,505,o),
(316,557,o),
(371,557,qs),
(426,557,o)
);
}
);
width = 741;
}
);
note = uni1ED4;
unicode = 7892;
},
{
glyphname = uni1ED6;
kernLeft = C;
kernRight = D;
lastChange = "2024-03-08 15:26:52 +0000";
layers = (
{
anchors = (
{
name = bottom;
pos = (371,0);
},
{
name = center;
pos = (371,330);
},
{
name = ogonek;
pos = (485,7);
},
{
name = top;
pos = (371,847);
},
{
name = topright;
pos = (556,660);
}
);
layerId = m01;
shapes = (
{
closed = 1;
nodes = (
(306,889,l),
(199,725,l),
(298,725,l),
(371,821,l),
(443,725,l),
(542,725,l),
(435,889,l)
);
},
{
closed = 1;
nodes = (
(467,1025,o),
(449,998,o),
(432,998,qs),
(418,998,o),
(395,1015,o),
(369,1037,o),
(333,1054,o),
(307,1054,qs),
(257,1054,o),
(194,987,o),
(190,916,q),
(269,916,l),
(273,943,o),
(291,970,o),
(309,970,qs),
(323,970,o),
(347,953,o),
(374,931,o),
(411,914,o),
(438,914,qs),
(484,914,o),
(547,981,o),
(551,1052,q),
(471,1052,l)
);
},
{
closed = 1;
nodes = (
(130,588,o),
(53,436,o),
(53,330,qs),
(53,224,o),
(130,72,o),
(273,-10,o),
(371,-10,qs),
(469,-10,o),
(611,72,o),
(688,224,o),
(688,330,qs),
(688,436,o),
(611,588,o),
(469,670,o),
(371,670,qs),
(273,670,o)
);
},
{
closed = 1;
nodes = (
(504,505,o),
(545,403,o),
(545,330,qs),
(545,257,o),
(504,155,o),
(426,103,o),
(371,103,qs),
(316,103,o),
(237,155,o),
(196,257,o),
(196,330,qs),
(196,403,o),
(237,505,o),
(316,557,o),
(371,557,qs),
(426,557,o)
);
}
);
width = 741;
},
{
anchors = (
{
name = bottom;
pos = (371,0);
},
{
name = center;
pos = (371,330);
},
{
name = ogonek;
pos = (485,7);
},
{
name = top;
pos = (371,847);
},
{
name = topright;
pos = (556,660);
}
);
layerId = m002;
shapes = (
{
closed = 1;
nodes = (
(306,889,l),
(199,725,l),
(298,725,l),
(371,821,l),
(443,725,l),
(542,725,l),
(435,889,l)
);
},
{
closed = 1;
nodes = (
(467,1025,o),
(449,998,o),
(432,998,qs),
(418,998,o),
(395,1015,o),
(369,1037,o),
(333,1054,o),
(307,1054,qs),
(257,1054,o),
(194,987,o),
(190,916,q),
(269,916,l),
(273,943,o),
(291,970,o),
(309,970,qs),
(323,970,o),
(347,953,o),
(374,931,o),
(411,914,o),
(438,914,qs),
(484,914,o),
(547,981,o),
(551,1052,q),
(471,1052,l)
);
},
{
closed = 1;
nodes = (
(130,588,o),
(53,436,o),
(53,330,qs),
(53,224,o),
(130,72,o),
(273,-10,o),
(371,-10,qs),
(469,-10,o),
(611,72,o),
(688,224,o),
(688,330,qs),
(688,436,o),
(611,588,o),
(469,670,o),
(371,670,qs),
(273,670,o)
);
},
{
closed = 1;
nodes = (
(504,505,o),
(545,403,o),
(545,330,qs),
(545,257,o),
(504,155,o),
(426,103,o),
(371,103,qs),
(316,103,o),
(237,155,o),
(196,257,o),
(196,330,qs),
(196,403,o),
(237,505,o),
(316,557,o),
(371,557,qs),
(426,557,o)
);
}
);
width = 741;
},
{
anchors = (
{
name = bottom;
pos = (371,0);
},
{
name = center;
pos = (371,330);
},
{
name = ogonek;
pos = (485,7);
},
{
name = top;
pos = (371,847);
},
{
name = topright;
pos = (556,660);
}
);
layerId = m003;
shapes = (
{
closed = 1;
nodes = (
(306,889,l),
(199,725,l),
(298,725,l),
(371,821,l),
(443,725,l),
(542,725,l),
(435,889,l)
);
},
{
closed = 1;
nodes = (
(467,1025,o),
(449,998,o),
(432,998,qs),
(418,998,o),
(395,1015,o),
(369,1037,o),
(333,1054,o),
(307,1054,qs),
(257,1054,o),
(194,987,o),
(190,916,q),
(269,916,l),
(273,943,o),
(291,970,o),
(309,970,qs),
(323,970,o),
(347,953,o),
(374,931,o),
(411,914,o),
(438,914,qs),
(484,914,o),
(547,981,o),
(551,1052,q),
(471,1052,l)
);
},
{
closed = 1;
nodes = (
(130,588,o),
(53,436,o),
(53,330,qs),
(53,224,o),
(130,72,o),
(273,-10,o),
(371,-10,qs),
(469,-10,o),
(611,72,o),
(688,224,o),
(688,330,qs),
(688,436,o),
(611,588,o),
(469,670,o),
(371,670,qs),
(273,670,o)
);
},
{
closed = 1;
nodes = (
(504,505,o),
(545,403,o),
(545,330,qs),
(545,257,o),
(504,155,o),
(426,103,o),
(371,103,qs),
(316,103,o),
(237,155,o),
(196,257,o),
(196,330,qs),
(196,403,o),
(237,505,o),
(316,557,o),
(371,557,qs),
(426,557,o)
);
}
);
width = 741;
},
{
anchors = (
{
name = bottom;
pos = (371,0);
},
{
name = center;
pos = (371,330);
},
{
name = ogonek;
pos = (485,7);
},
{
name = top;
pos = (371,847);
},
{
name = topright;
pos = (556,660);
}
);
layerId = m004;
shapes = (
{
closed = 1;
nodes = (
(306,889,l),
(199,725,l),
(298,725,l),
(371,821,l),
(443,725,l),
(542,725,l),
(435,889,l)
);
},
{
closed = 1;
nodes = (
(467,1025,o),
(449,998,o),
(432,998,qs),
(418,998,o),
(395,1015,o),
(369,1037,o),
(333,1054,o),
(307,1054,qs),
(257,1054,o),
(194,987,o),
(190,916,q),
(269,916,l),
(273,943,o),
(291,970,o),
(309,970,qs),
(323,970,o),
(347,953,o),
(374,931,o),
(411,914,o),
(438,914,qs),
(484,914,o),
(547,981,o),
(551,1052,q),
(471,1052,l)
);
},
{
closed = 1;
nodes = (
(130,588,o),
(53,436,o),
(53,330,qs),
(53,224,o),
(130,72,o),
(273,-10,o),
(371,-10,qs),
(469,-10,o),
(611,72,o),
(688,224,o),
(688,330,qs),
(688,436,o),
(611,588,o),
(469,670,o),
(371,670,qs),
(273,670,o)
);
},
{
closed = 1;
nodes = (
(504,505,o),
(545,403,o),
(545,330,qs),
(545,257,o),
(504,155,o),
(426,103,o),
(371,103,qs),
(316,103,o),
(237,155,o),
(196,257,o),
(196,330,qs),
(196,403,o),
(237,505,o),
(316,557,o),
(371,557,qs),
(426,557,o)
);
}
);
width = 741;
}
);
note = uni1ED6;
unicode = 7894;
},
{
glyphname = R.ss03;
kernLeft = B;
kernRight = R;
lastChange = "2024-03-08 15:26:52 +0000";
layers = (
{
anchors = (
{
name = bottom;
pos = (364,0);
},
{
name = ogonek;
pos = (627,0);
},
{
name = top;
pos = (327,660);
}
);
layerId = m01;
shapes = (
{
closed = 1;
nodes = (
(222,253,l),
(329,253,ls),
(391,253,o),
(451,205,o),
(456,155,qs),
(460,114,o),
(467,56,o),
(475,16,o),
(481,0,q),
(627,0,l),
(627,4,l),
(620,15,o),
(610,40,o),
(602,76,o),
(595,130,o),
(592,168,qs),
(588,214,o),
(539,279,o),
(484,290,q),
(484,292,l),
(525,303,o),
(584,346,o),
(617,413,o),
(617,460,qs),
(617,554,o),
(490,660,o),
(377,660,qs),
(86,660,l),
(86,0,l),
(222,0,l)
);
},
{
closed = 1;
nodes = (
(359,550,ls),
(419,550,o),
(476,503,o),
(476,454,qs),
(476,405,o),
(419,358,o),
(359,358,qs),
(222,358,l),
(222,550,l)
);
}
);
width = 674;
},
{
anchors = (
{
name = bottom;
pos = (364,0);
},
{
name = ogonek;
pos = (627,0);
},
{
name = top;
pos = (327,660);
}
);
layerId = m002;
shapes = (
{
closed = 1;
nodes = (
(222,253,l),
(329,253,ls),
(391,253,o),
(451,205,o),
(456,155,qs),
(460,114,o),
(467,56,o),
(475,16,o),
(481,0,q),
(627,0,l),
(627,4,l),
(620,15,o),
(610,40,o),
(602,76,o),
(595,130,o),
(592,168,qs),
(588,214,o),
(539,279,o),
(484,290,q),
(484,292,l),
(525,303,o),
(584,346,o),
(617,413,o),
(617,460,qs),
(617,554,o),
(490,660,o),
(377,660,qs),
(86,660,l),
(86,0,l),
(222,0,l)
);
},
{
closed = 1;
nodes = (
(359,550,ls),
(419,550,o),
(476,503,o),
(476,454,qs),
(476,405,o),
(419,358,o),
(359,358,qs),
(222,358,l),
(222,550,l)
);
}
);
width = 674;
},
{
anchors = (
{
name = bottom;
pos = (364,0);
},
{
name = ogonek;
pos = (627,0);
},
{
name = top;
pos = (327,660);
}
);
layerId = m003;
shapes = (
{
closed = 1;
nodes = (
(222,253,l),
(329,253,ls),
(391,253,o),
(451,205,o),
(456,155,qs),
(460,114,o),
(467,56,o),
(475,16,o),
(481,0,q),
(627,0,l),
(627,4,l),
(620,15,o),
(610,40,o),
(602,76,o),
(595,130,o),
(592,168,qs),
(588,214,o),
(539,279,o),
(484,290,q),
(484,292,l),
(525,303,o),
(584,346,o),
(617,413,o),
(617,460,qs),
(617,554,o),
(490,660,o),
(377,660,qs),
(86,660,l),
(86,0,l),
(222,0,l)
);
},
{
closed = 1;
nodes = (
(359,550,ls),
(419,550,o),
(476,503,o),
(476,454,qs),
(476,405,o),
(419,358,o),
(359,358,qs),
(222,358,l),
(222,550,l)
);
}
);
width = 674;
},
{
anchors = (
{
name = bottom;
pos = (364,0);
},
{
name = ogonek;
pos = (627,0);
},
{
name = top;
pos = (327,660);
}
);
layerId = m004;
shapes = (
{
closed = 1;
nodes = (
(222,253,l),
(329,253,ls),
(391,253,o),
(451,205,o),
(456,155,qs),
(460,114,o),
(467,56,o),
(475,16,o),
(481,0,q),
(627,0,l),
(627,4,l),
(620,15,o),
(610,40,o),
(602,76,o),
(595,130,o),
(592,168,qs),
(588,214,o),
(539,279,o),
(484,290,q),
(484,292,l),
(525,303,o),
(584,346,o),
(617,413,o),
(617,460,qs),
(617,554,o),
(490,660,o),
(377,660,qs),
(86,660,l),
(86,0,l),
(222,0,l)
);
},
{
closed = 1;
nodes = (
(359,550,ls),
(419,550,o),
(476,503,o),
(476,454,qs),
(476,405,o),
(419,358,o),
(359,358,qs),
(222,358,l),
(222,550,l)
);
}
);
width = 674;
}
);
note = R.ss03;
},
{
glyphname = G.ss04;
kernLeft = C;
kernRight = G;
lastChange = "2024-03-08 15:26:52 +0000";
layers = (
{
anchors = (
{
name = bottom;
pos = (395,0);
},
{
name = ogonek;
pos = (434,0);
},
{
name = top;
pos = (370,660);
}
);
layerId = m01;
shapes = (
{
closed = 1;
nodes = (
(551,27,o),
(628,99,o),
(669,206,o),
(669,275,qs),
(669,349,l),
(365,349,l),
(365,251,l),
(613,251,l),
(548,294,l),
(548,244,ls),
(548,220,o),
(529,169,o),
(490,128,o),
(428,103,o),
(385,103,qs),
(322,103,o),
(237,153,o),
(196,255,o),
(196,330,qs),
(196,403,o),
(240,505,o),
(321,557,o),
(375,557,qs),
(433,557,o),
(511,505,o),
(527,453,q),
(655,508,l),
(616,593,o),
(481,670,o),
(374,670,qs),
(276,670,o),
(132,588,o),
(53,435,o),
(53,329,qs),
(53,222,o),
(132,70,o),
(275,-10,o),
(372,-10,qs),
(441,-10,o)
);
}
);
width = 723;
},
{
anchors = (
{
name = bottom;
pos = (395,0);
},
{
name = ogonek;
pos = (434,0);
},
{
name = top;
pos = (370,660);
}
);
layerId = m002;
shapes = (
{
closed = 1;
nodes = (
(551,27,o),
(628,99,o),
(669,206,o),
(669,275,qs),
(669,349,l),
(365,349,l),
(365,251,l),
(613,251,l),
(548,294,l),
(548,244,ls),
(548,220,o),
(529,169,o),
(490,128,o),
(428,103,o),
(385,103,qs),
(322,103,o),
(237,153,o),
(196,255,o),
(196,330,qs),
(196,403,o),
(240,505,o),
(321,557,o),
(375,557,qs),
(433,557,o),
(511,505,o),
(527,453,q),
(655,508,l),
(616,593,o),
(481,670,o),
(374,670,qs),
(276,670,o),
(132,588,o),
(53,435,o),
(53,329,qs),
(53,222,o),
(132,70,o),
(275,-10,o),
(372,-10,qs),
(441,-10,o)
);
}
);
width = 723;
},
{
anchors = (
{
name = bottom;
pos = (395,0);
},
{
name = ogonek;
pos = (434,0);
},
{
name = top;
pos = (370,660);
}
);
layerId = m003;
shapes = (
{
closed = 1;
nodes = (
(551,27,o),
(628,99,o),
(669,206,o),
(669,275,qs),
(669,349,l),
(365,349,l),
(365,251,l),
(613,251,l),
(548,294,l),
(548,244,ls),
(548,220,o),
(529,169,o),
(490,128,o),
(428,103,o),
(385,103,qs),
(322,103,o),
(237,153,o),
(196,255,o),
(196,330,qs),
(196,403,o),
(240,505,o),
(321,557,o),
(375,557,qs),
(433,557,o),
(511,505,o),
(527,453,q),
(655,508,l),
(616,593,o),
(481,670,o),
(374,670,qs),
(276,670,o),
(132,588,o),
(53,435,o),
(53,329,qs),
(53,222,o),
(132,70,o),
(275,-10,o),
(372,-10,qs),
(441,-10,o)
);
}
);
width = 723;
},
{
anchors = (
{
name = bottom;
pos = (395,0);
},
{
name = ogonek;
pos = (434,0);
},
{
name = top;
pos = (370,660);
}
);
layerId = m004;
shapes = (
{
closed = 1;
nodes = (
(551,27,o),
(628,99,o),
(669,206,o),
(669,275,qs),
(669,349,l),
(365,349,l),
(365,251,l),
(613,251,l),
(548,294,l),
(548,244,ls),
(548,220,o),
(529,169,o),
(490,128,o),
(428,103,o),
(385,103,qs),
(322,103,o),
(237,153,o),
(196,255,o),
(196,330,qs),
(196,403,o),
(240,505,o),
(321,557,o),
(375,557,qs),
(433,557,o),
(511,505,o),
(527,453,q),
(655,508,l),
(616,593,o),
(481,670,o),
(374,670,qs),
(276,670,o),
(132,588,o),
(53,435,o),
(53,329,qs),
(53,222,o),
(132,70,o),
(275,-10,o),
(372,-10,qs),
(441,-10,o)
);
}
);
width = 723;
}
);
note = G.ss04;
},
{
glyphname = IJ.ss05;
kernLeft = B;
kernRight = uni018E;
lastChange = "2024-03-08 15:26:52 +0000";
layers = (
{
layerId = m01;
shapes = (
{
closed = 1;
nodes = (
(576,124,o),
(576,243,qs),
(576,660,l),
(438,660,l),
(438,253,ls),
(438,178,o),
(386,103,o),
(326,103,qs),
(272,103,o),
(219,157,o),
(225,213,q),
(88,213,l),
(80,140,o),
(131,41,o),
(241,-10,o),
(324,-10,qs),
(440,-10,o)
);
},
{
closed = 1;
nodes = (
(224,660,l),
(86,660,l),
(86,289,l),
(224,289,l)
);
}
);
width = 652;
},
{
layerId = m002;
shapes = (
{
closed = 1;
nodes = (
(576,124,o),
(576,243,qs),
(576,660,l),
(438,660,l),
(438,253,ls),
(438,178,o),
(386,103,o),
(326,103,qs),
(272,103,o),
(219,157,o),
(225,213,q),
(88,213,l),
(80,140,o),
(131,41,o),
(241,-10,o),
(324,-10,qs),
(440,-10,o)
);
},
{
closed = 1;
nodes = (
(224,660,l),
(86,660,l),
(86,289,l),
(224,289,l)
);
}
);
width = 652;
},
{
layerId = m003;
shapes = (
{
closed = 1;
nodes = (
(576,124,o),
(576,243,qs),
(576,660,l),
(438,660,l),
(438,253,ls),
(438,178,o),
(386,103,o),
(326,103,qs),
(272,103,o),
(219,157,o),
(225,213,q),
(88,213,l),
(80,140,o),
(131,41,o),
(241,-10,o),
(324,-10,qs),
(440,-10,o)
);
},
{
closed = 1;
nodes = (
(224,660,l),
(86,660,l),
(86,289,l),
(224,289,l)
);
}
);
width = 652;
},
{
layerId = m004;
shapes = (
{
closed = 1;
nodes = (
(576,124,o),
(576,243,qs),
(576,660,l),
(438,660,l),
(438,253,ls),
(438,178,o),
(386,103,o),
(326,103,qs),
(272,103,o),
(219,157,o),
(225,213,q),
(88,213,l),
(80,140,o),
(131,41,o),
(241,-10,o),
(324,-10,qs),
(440,-10,o)
);
},
{
closed = 1;
nodes = (
(224,660,l),
(86,660,l),
(86,289,l),
(224,289,l)
);
}
);
width = 652;
}
);
note = IJ.ss05;
},
{
glyphname = A.swsh;
kernRight = A;
lastChange = "2024-03-08 15:26:52 +0000";
layers = (
{
anchors = (
{
name = bottom;
pos = (575,0);
},
{
name = ogonek;
pos = (898,0);
},
{
name = top;
pos = (575,660);
}
);
layerId = m01;
shapes = (
{
closed = 1;
nodes = (
(755,0,l),
(898,0,l),
(658,660,l),
(492,660,l),
(297,128,ls),
(279,79,o),
(244,21,o),
(200,-4,o),
(167,-4,qs),
(125,-4,o),
(71,31,o),
(56,81,q),
(0,-4,l),
(11,-55,o),
(102,-110,o),
(174,-110,qs),
(239,-110,o),
(328,-70,o),
(388,8,o),
(407,65,qs),
(443,161,l),
(700,161,l)
);
},
{
closed = 1;
nodes = (
(669,263,l),
(476,263,l),
(574,552,l)
);
},
{
closed = 1;
nodes = (
(270,370,o),
(217,423,o),
(217,462,qs),
(217,507,o),
(277,557,o),
(332,557,qs),
(549,557,l),
(549,660,l),
(321,660,ls),
(212,660,o),
(90,557,o),
(90,464,qs),
(90,408,o),
(138,323,o),
(220,273,o),
(271,268,q),
(314,364,l)
);
}
);
width = 910;
},
{
anchors = (
{
name = bottom;
pos = (575,0);
},
{
name = ogonek;
pos = (898,0);
},
{
name = top;
pos = (575,660);
}
);
layerId = m002;
shapes = (
{
closed = 1;
nodes = (
(755,0,l),
(898,0,l),
(658,660,l),
(492,660,l),
(297,128,ls),
(279,79,o),
(244,21,o),
(200,-4,o),
(167,-4,qs),
(125,-4,o),
(71,31,o),
(56,81,q),
(0,-4,l),
(11,-55,o),
(102,-110,o),
(174,-110,qs),
(239,-110,o),
(328,-70,o),
(388,8,o),
(407,65,qs),
(443,161,l),
(700,161,l)
);
},
{
closed = 1;
nodes = (
(669,263,l),
(476,263,l),
(574,552,l)
);
},
{
closed = 1;
nodes = (
(270,370,o),
(217,423,o),
(217,462,qs),
(217,507,o),
(277,557,o),
(332,557,qs),
(549,557,l),
(549,660,l),
(321,660,ls),
(212,660,o),
(90,557,o),
(90,464,qs),
(90,408,o),
(138,323,o),
(220,273,o),
(271,268,q),
(314,364,l)
);
}
);
width = 910;
},
{
anchors = (
{
name = bottom;
pos = (575,0);
},
{
name = ogonek;
pos = (898,0);
},
{
name = top;
pos = (575,660);
}
);
layerId = m003;
shapes = (
{
closed = 1;
nodes = (
(755,0,l),
(898,0,l),
(658,660,l),
(492,660,l),
(297,128,ls),
(279,79,o),
(244,21,o),
(200,-4,o),
(167,-4,qs),
(125,-4,o),
(71,31,o),
(56,81,q),
(0,-4,l),
(11,-55,o),
(102,-110,o),
(174,-110,qs),
(239,-110,o),
(328,-70,o),
(388,8,o),
(407,65,qs),
(443,161,l),
(700,161,l)
);
},
{
closed = 1;
nodes = (
(669,263,l),
(476,263,l),
(574,552,l)
);
},
{
closed = 1;
nodes = (
(270,370,o),
(217,423,o),
(217,462,qs),
(217,507,o),
(277,557,o),
(332,557,qs),
(549,557,l),
(549,660,l),
(321,660,ls),
(212,660,o),
(90,557,o),
(90,464,qs),
(90,408,o),
(138,323,o),
(220,273,o),
(271,268,q),
(314,364,l)
);
}
);
width = 910;
},
{
anchors = (
{
name = bottom;
pos = (575,0);
},
{
name = ogonek;
pos = (898,0);
},
{
name = top;
pos = (575,660);
}
);
layerId = m004;
shapes = (
{
closed = 1;
nodes = (
(755,0,l),
(898,0,l),
(658,660,l),
(492,660,l),
(297,128,ls),
(279,79,o),
(244,21,o),
(200,-4,o),
(167,-4,qs),
(125,-4,o),
(71,31,o),
(56,81,q),
(0,-4,l),
(11,-55,o),
(102,-110,o),
(174,-110,qs),
(239,-110,o),
(328,-70,o),
(388,8,o),
(407,65,qs),
(443,161,l),
(700,161,l)
);
},
{
closed = 1;
nodes = (
(669,263,l),
(476,263,l),
(574,552,l)
);
},
{
closed = 1;
nodes = (
(270,370,o),
(217,423,o),
(217,462,qs),
(217,507,o),
(277,557,o),
(332,557,qs),
(549,557,l),
(549,660,l),
(321,660,ls),
(212,660,o),
(90,557,o),
(90,464,qs),
(90,408,o),
(138,323,o),
(220,273,o),
(271,268,q),
(314,364,l)
);
}
);
width = 910;
}
);
note = A.swsh;
},
{
glyphname = Aogonek.swsh;
lastChange = "2024-03-08 15:26:52 +0000";
layers = (
{
anchors = (
{
name = bottom;
pos = (575,0);
},
{
name = ogonek;
pos = (898,0);
},
{
name = top;
pos = (575,660);
}
);
layerId = m01;
shapes = (
{
closed = 1;
nodes = (
(888,-206,o),
(906,-194,q),
(886,-123,l),
(876,-130,o),
(849,-134,o),
(836,-134,qs),
(810,-134,o),
(778,-109,o),
(778,-87,qs),
(778,-69,o),
(799,-38,o),
(851,-11,o),
(898,0,q),
(835,31,l),
(760,16,o),
(679,-52,o),
(679,-105,qs),
(679,-142,o),
(714,-190,o),
(773,-215,o),
(811,-215,qs),
(839,-215,o)
);
},
{
closed = 1;
nodes = (
(755,0,l),
(898,0,l),
(658,660,l),
(492,660,l),
(297,128,ls),
(279,79,o),
(244,21,o),
(200,-4,o),
(167,-4,qs),
(125,-4,o),
(71,31,o),
(56,81,q),
(0,-4,l),
(11,-55,o),
(102,-110,o),
(174,-110,qs),
(239,-110,o),
(328,-70,o),
(388,8,o),
(407,65,qs),
(443,161,l),
(700,161,l)
);
},
{
closed = 1;
nodes = (
(669,263,l),
(476,263,l),
(574,552,l)
);
},
{
closed = 1;
nodes = (
(270,370,o),
(217,423,o),
(217,462,qs),
(217,507,o),
(277,557,o),
(332,557,qs),
(549,557,l),
(549,660,l),
(321,660,ls),
(212,660,o),
(90,557,o),
(90,464,qs),
(90,408,o),
(138,323,o),
(220,273,o),
(271,268,q),
(314,364,l)
);
}
);
width = 910;
},
{
anchors = (
{
name = bottom;
pos = (575,0);
},
{
name = ogonek;
pos = (898,0);
},
{
name = top;
pos = (575,660);
}
);
layerId = m002;
shapes = (
{
closed = 1;
nodes = (
(888,-206,o),
(906,-194,q),
(886,-123,l),
(876,-130,o),
(849,-134,o),
(836,-134,qs),
(810,-134,o),
(778,-109,o),
(778,-87,qs),
(778,-69,o),
(799,-38,o),
(851,-11,o),
(898,0,q),
(835,31,l),
(760,16,o),
(679,-52,o),
(679,-105,qs),
(679,-142,o),
(714,-190,o),
(773,-215,o),
(811,-215,qs),
(839,-215,o)
);
},
{
closed = 1;
nodes = (
(755,0,l),
(898,0,l),
(658,660,l),
(492,660,l),
(297,128,ls),
(279,79,o),
(244,21,o),
(200,-4,o),
(167,-4,qs),
(125,-4,o),
(71,31,o),
(56,81,q),
(0,-4,l),
(11,-55,o),
(102,-110,o),
(174,-110,qs),
(239,-110,o),
(328,-70,o),
(388,8,o),
(407,65,qs),
(443,161,l),
(700,161,l)
);
},
{
closed = 1;
nodes = (
(669,263,l),
(476,263,l),
(574,552,l)
);
},
{
closed = 1;
nodes = (
(270,370,o),
(217,423,o),
(217,462,qs),
(217,507,o),
(277,557,o),
(332,557,qs),
(549,557,l),
(549,660,l),
(321,660,ls),
(212,660,o),
(90,557,o),
(90,464,qs),
(90,408,o),
(138,323,o),
(220,273,o),
(271,268,q),
(314,364,l)
);
}
);
width = 910;
},
{
anchors = (
{
name = bottom;
pos = (575,0);
},
{
name = ogonek;
pos = (898,0);
},
{
name = top;
pos = (575,660);
}
);
layerId = m003;
shapes = (
{
closed = 1;
nodes = (
(888,-206,o),
(906,-194,q),
(886,-123,l),
(876,-130,o),
(849,-134,o),
(836,-134,qs),
(810,-134,o),
(778,-109,o),
(778,-87,qs),
(778,-69,o),
(799,-38,o),
(851,-11,o),
(898,0,q),
(835,31,l),
(760,16,o),
(679,-52,o),
(679,-105,qs),
(679,-142,o),
(714,-190,o),
(773,-215,o),
(811,-215,qs),
(839,-215,o)
);
},
{
closed = 1;
nodes = (
(755,0,l),
(898,0,l),
(658,660,l),
(492,660,l),
(297,128,ls),
(279,79,o),
(244,21,o),
(200,-4,o),
(167,-4,qs),
(125,-4,o),
(71,31,o),
(56,81,q),
(0,-4,l),
(11,-55,o),
(102,-110,o),
(174,-110,qs),
(239,-110,o),
(328,-70,o),
(388,8,o),
(407,65,qs),
(443,161,l),
(700,161,l)
);
},
{
closed = 1;
nodes = (
(669,263,l),
(476,263,l),
(574,552,l)
);
},
{
closed = 1;
nodes = (
(270,370,o),
(217,423,o),
(217,462,qs),
(217,507,o),
(277,557,o),
(332,557,qs),
(549,557,l),
(549,660,l),
(321,660,ls),
(212,660,o),
(90,557,o),
(90,464,qs),
(90,408,o),
(138,323,o),
(220,273,o),
(271,268,q),
(314,364,l)
);
}
);
width = 910;
},
{
anchors = (
{
name = bottom;
pos = (575,0);
},
{
name = ogonek;
pos = (898,0);
},
{
name = top;
pos = (575,660);
}
);
layerId = m004;
shapes = (
{
closed = 1;
nodes = (
(888,-206,o),
(906,-194,q),
(886,-123,l),
(876,-130,o),
(849,-134,o),
(836,-134,qs),
(810,-134,o),
(778,-109,o),
(778,-87,qs),
(778,-69,o),
(799,-38,o),
(851,-11,o),
(898,0,q),
(835,31,l),
(760,16,o),
(679,-52,o),
(679,-105,qs),
(679,-142,o),
(714,-190,o),
(773,-215,o),
(811,-215,qs),
(839,-215,o)
);
},
{
closed = 1;
nodes = (
(755,0,l),
(898,0,l),
(658,660,l),
(492,660,l),
(297,128,ls),
(279,79,o),
(244,21,o),
(200,-4,o),
(167,-4,qs),
(125,-4,o),
(71,31,o),
(56,81,q),
(0,-4,l),
(11,-55,o),
(102,-110,o),
(174,-110,qs),
(239,-110,o),
(328,-70,o),
(388,8,o),
(407,65,qs),
(443,161,l),
(700,161,l)
);
},
{
closed = 1;
nodes = (
(669,263,l),
(476,263,l),
(574,552,l)
);
},
{
closed = 1;
nodes = (
(270,370,o),
(217,423,o),
(217,462,qs),
(217,507,o),
(277,557,o),
(332,557,qs),
(549,557,l),
(549,660,l),
(321,660,ls),
(212,660,o),
(90,557,o),
(90,464,qs),
(90,408,o),
(138,323,o),
(220,273,o),
(271,268,q),
(314,364,l)
);
}
);
width = 910;
}
);
note = Aogonek.swsh;
},
{
glyphname = E.swsh;
kernRight = AE;
lastChange = "2024-03-08 15:26:52 +0000";
layers = (
{
anchors = (
{
name = bottom;
pos = (592,0);
},
{
name = ogonek;
pos = (842,0);
},
{
name = top;
pos = (581,660);
}
);
layerId = m01;
shapes = (
{
closed = 1;
nodes = (
(190,370,o),
(137,423,o),
(137,462,qs),
(137,507,o),
(197,557,o),
(252,557,qs),
(469,557,l),
(469,660,l),
(241,660,ls),
(132,660,o),
(10,557,o),
(10,464,qs),
(10,408,o),
(58,323,o),
(140,273,o),
(191,268,q),
(234,364,l)
);
},
{
closed = 1;
nodes = (
(842,111,l),
(471,111,l),
(471,279,l),
(752,279,l),
(752,385,l),
(471,385,l),
(471,549,l),
(828,549,l),
(828,660,l),
(333,660,l),
(333,0,l),
(842,0,l)
);
}
);
width = 880;
},
{
anchors = (
{
name = bottom;
pos = (592,0);
},
{
name = ogonek;
pos = (842,0);
},
{
name = top;
pos = (581,660);
}
);
layerId = m002;
shapes = (
{
closed = 1;
nodes = (
(190,370,o),
(137,423,o),
(137,462,qs),
(137,507,o),
(197,557,o),
(252,557,qs),
(469,557,l),
(469,660,l),
(241,660,ls),
(132,660,o),
(10,557,o),
(10,464,qs),
(10,408,o),
(58,323,o),
(140,273,o),
(191,268,q),
(234,364,l)
);
},
{
closed = 1;
nodes = (
(842,111,l),
(471,111,l),
(471,279,l),
(752,279,l),
(752,385,l),
(471,385,l),
(471,549,l),
(828,549,l),
(828,660,l),
(333,660,l),
(333,0,l),
(842,0,l)
);
}
);
width = 880;
},
{
anchors = (
{
name = bottom;
pos = (592,0);
},
{
name = ogonek;
pos = (842,0);
},
{
name = top;
pos = (581,660);
}
);
layerId = m003;
shapes = (
{
closed = 1;
nodes = (
(190,370,o),
(137,423,o),
(137,462,qs),
(137,507,o),
(197,557,o),
(252,557,qs),
(469,557,l),
(469,660,l),
(241,660,ls),
(132,660,o),
(10,557,o),
(10,464,qs),
(10,408,o),
(58,323,o),
(140,273,o),
(191,268,q),
(234,364,l)
);
},
{
closed = 1;
nodes = (
(842,111,l),
(471,111,l),
(471,279,l),
(752,279,l),
(752,385,l),
(471,385,l),
(471,549,l),
(828,549,l),
(828,660,l),
(333,660,l),
(333,0,l),
(842,0,l)
);
}
);
width = 880;
},
{
anchors = (
{
name = bottom;
pos = (592,0);
},
{
name = ogonek;
pos = (842,0);
},
{
name = top;
pos = (581,660);
}
);
layerId = m004;
shapes = (
{
closed = 1;
nodes = (
(190,370,o),
(137,423,o),
(137,462,qs),
(137,507,o),
(197,557,o),
(252,557,qs),
(469,557,l),
(469,660,l),
(241,660,ls),
(132,660,o),
(10,557,o),
(10,464,qs),
(10,408,o),
(58,323,o),
(140,273,o),
(191,268,q),
(234,364,l)
);
},
{
closed = 1;
nodes = (
(842,111,l),
(471,111,l),
(471,279,l),
(752,279,l),
(752,385,l),
(471,385,l),
(471,549,l),
(828,549,l),
(828,660,l),
(333,660,l),
(333,0,l),
(842,0,l)
);
}
);
width = 880;
}
);
note = E.swsh;
},
{
glyphname = Eogonek.swsh;
lastChange = "2024-03-08 15:26:52 +0000";
layers = (
{
anchors = (
{
name = bottom;
pos = (592,0);
},
{
name = ogonek;
pos = (842,0);
},
{
name = top;
pos = (581,660);
}
);
layerId = m01;
shapes = (
{
closed = 1;
nodes = (
(826,-215,o),
(844,-204,q),
(824,-133,l),
(814,-139,o),
(787,-144,o),
(775,-144,qs),
(748,-144,o),
(716,-119,o),
(716,-96,qs),
(716,-70,o),
(771,-22,o),
(842,0,q),
(794,28,l),
(712,7,o),
(617,-61,o),
(617,-118,qs),
(617,-152,o),
(652,-200,o),
(711,-225,o),
(749,-225,qs),
(777,-225,o)
);
},
{
closed = 1;
nodes = (
(190,370,o),
(137,423,o),
(137,462,qs),
(137,507,o),
(197,557,o),
(252,557,qs),
(469,557,l),
(469,660,l),
(241,660,ls),
(132,660,o),
(10,557,o),
(10,464,qs),
(10,408,o),
(58,323,o),
(140,273,o),
(191,268,q),
(234,364,l)
);
},
{
closed = 1;
nodes = (
(842,111,l),
(471,111,l),
(471,279,l),
(752,279,l),
(752,385,l),
(471,385,l),
(471,549,l),
(828,549,l),
(828,660,l),
(333,660,l),
(333,0,l),
(842,0,l)
);
}
);
width = 880;
},
{
anchors = (
{
name = bottom;
pos = (592,0);
},
{
name = ogonek;
pos = (842,0);
},
{
name = top;
pos = (581,660);
}
);
layerId = m002;
shapes = (
{
closed = 1;
nodes = (
(826,-215,o),
(844,-204,q),
(824,-133,l),
(814,-139,o),
(787,-144,o),
(775,-144,qs),
(748,-144,o),
(716,-119,o),
(716,-96,qs),
(716,-70,o),
(771,-22,o),
(842,0,q),
(794,28,l),
(712,7,o),
(617,-61,o),
(617,-118,qs),
(617,-152,o),
(652,-200,o),
(711,-225,o),
(749,-225,qs),
(777,-225,o)
);
},
{
closed = 1;
nodes = (
(190,370,o),
(137,423,o),
(137,462,qs),
(137,507,o),
(197,557,o),
(252,557,qs),
(469,557,l),
(469,660,l),
(241,660,ls),
(132,660,o),
(10,557,o),
(10,464,qs),
(10,408,o),
(58,323,o),
(140,273,o),
(191,268,q),
(234,364,l)
);
},
{
closed = 1;
nodes = (
(842,111,l),
(471,111,l),
(471,279,l),
(752,279,l),
(752,385,l),
(471,385,l),
(471,549,l),
(828,549,l),
(828,660,l),
(333,660,l),
(333,0,l),
(842,0,l)
);
}
);
width = 880;
},
{
anchors = (
{
name = bottom;
pos = (592,0);
},
{
name = ogonek;
pos = (842,0);
},
{
name = top;
pos = (581,660);
}
);
layerId = m003;
shapes = (
{
closed = 1;
nodes = (
(826,-215,o),
(844,-204,q),
(824,-133,l),
(814,-139,o),
(787,-144,o),
(775,-144,qs),
(748,-144,o),
(716,-119,o),
(716,-96,qs),
(716,-70,o),
(771,-22,o),
(842,0,q),
(794,28,l),
(712,7,o),
(617,-61,o),
(617,-118,qs),
(617,-152,o),
(652,-200,o),
(711,-225,o),
(749,-225,qs),
(777,-225,o)
);
},
{
closed = 1;
nodes = (
(190,370,o),
(137,423,o),
(137,462,qs),
(137,507,o),
(197,557,o),
(252,557,qs),
(469,557,l),
(469,660,l),
(241,660,ls),
(132,660,o),
(10,557,o),
(10,464,qs),
(10,408,o),
(58,323,o),
(140,273,o),
(191,268,q),
(234,364,l)
);
},
{
closed = 1;
nodes = (
(842,111,l),
(471,111,l),
(471,279,l),
(752,279,l),
(752,385,l),
(471,385,l),
(471,549,l),
(828,549,l),
(828,660,l),
(333,660,l),
(333,0,l),
(842,0,l)
);
}
);
width = 880;
},
{
anchors = (
{
name = bottom;
pos = (592,0);
},
{
name = ogonek;
pos = (842,0);
},
{
name = top;
pos = (581,660);
}
);
layerId = m004;
shapes = (
{
closed = 1;
nodes = (
(826,-215,o),
(844,-204,q),
(824,-133,l),
(814,-139,o),
(787,-144,o),
(775,-144,qs),
(748,-144,o),
(716,-119,o),
(716,-96,qs),
(716,-70,o),
(771,-22,o),
(842,0,q),
(794,28,l),
(712,7,o),
(617,-61,o),
(617,-118,qs),
(617,-152,o),
(652,-200,o),
(711,-225,o),
(749,-225,qs),
(777,-225,o)
);
},
{
closed = 1;
nodes = (
(190,370,o),
(137,423,o),
(137,462,qs),
(137,507,o),
(197,557,o),
(252,557,qs),
(469,557,l),
(469,660,l),
(241,660,ls),
(132,660,o),
(10,557,o),
(10,464,qs),
(10,408,o),
(58,323,o),
(140,273,o),
(191,268,q),
(234,364,l)
);
},
{
closed = 1;
nodes = (
(842,111,l),
(471,111,l),
(471,279,l),
(752,279,l),
(752,385,l),
(471,385,l),
(471,549,l),
(828,549,l),
(828,660,l),
(333,660,l),
(333,0,l),
(842,0,l)
);
}
);
width = 880;
}
);
note = Eogonek.swsh;
},
{
glyphname = F.swsh;
lastChange = "2024-03-08 15:26:52 +0000";
layers = (
{
anchors = (
{
name = bottom;
pos = (392,0);
},
{
name = ogonek;
pos = (461,0);
},
{
name = top;
pos = (562,660);
}
);
layerId = m01;
shapes = (
{
closed = 1;
nodes = (
(190,370,o),
(137,423,o),
(137,462,qs),
(137,507,o),
(197,557,o),
(252,557,qs),
(469,557,l),
(469,660,l),
(241,660,ls),
(132,660,o),
(10,557,o),
(10,464,qs),
(10,408,o),
(58,323,o),
(140,273,o),
(191,268,q),
(234,364,l)
);
},
{
closed = 1;
nodes = (
(323,660,l),
(323,0,l),
(461,0,l),
(461,270,l),
(743,270,l),
(743,382,l),
(461,382,l),
(461,549,l),
(818,549,l),
(818,660,l)
);
}
);
width = 849;
},
{
anchors = (
{
name = bottom;
pos = (392,0);
},
{
name = ogonek;
pos = (461,0);
},
{
name = top;
pos = (562,660);
}
);
layerId = m002;
shapes = (
{
closed = 1;
nodes = (
(190,370,o),
(137,423,o),
(137,462,qs),
(137,507,o),
(197,557,o),
(252,557,qs),
(469,557,l),
(469,660,l),
(241,660,ls),
(132,660,o),
(10,557,o),
(10,464,qs),
(10,408,o),
(58,323,o),
(140,273,o),
(191,268,q),
(234,364,l)
);
},
{
closed = 1;
nodes = (
(323,660,l),
(323,0,l),
(461,0,l),
(461,270,l),
(743,270,l),
(743,382,l),
(461,382,l),
(461,549,l),
(818,549,l),
(818,660,l)
);
}
);
width = 849;
},
{
anchors = (
{
name = bottom;
pos = (392,0);
},
{
name = ogonek;
pos = (461,0);
},
{
name = top;
pos = (562,660);
}
);
layerId = m003;
shapes = (
{
closed = 1;
nodes = (
(190,370,o),
(137,423,o),
(137,462,qs),
(137,507,o),
(197,557,o),
(252,557,qs),
(469,557,l),
(469,660,l),
(241,660,ls),
(132,660,o),
(10,557,o),
(10,464,qs),
(10,408,o),
(58,323,o),
(140,273,o),
(191,268,q),
(234,364,l)
);
},
{
closed = 1;
nodes = (
(323,660,l),
(323,0,l),
(461,0,l),
(461,270,l),
(743,270,l),
(743,382,l),
(461,382,l),
(461,549,l),
(818,549,l),
(818,660,l)
);
}
);
width = 849;
},
{
anchors = (
{
name = bottom;
pos = (392,0);
},
{
name = ogonek;
pos = (461,0);
},
{
name = top;
pos = (562,660);
}
);
layerId = m004;
shapes = (
{
closed = 1;
nodes = (
(190,370,o),
(137,423,o),
(137,462,qs),
(137,507,o),
(197,557,o),
(252,557,qs),
(469,557,l),
(469,660,l),
(241,660,ls),
(132,660,o),
(10,557,o),
(10,464,qs),
(10,408,o),
(58,323,o),
(140,273,o),
(191,268,q),
(234,364,l)
);
},
{
closed = 1;
nodes = (
(323,660,l),
(323,0,l),
(461,0,l),
(461,270,l),
(743,270,l),
(743,382,l),
(461,382,l),
(461,549,l),
(818,549,l),
(818,660,l)
);
}
);
width = 849;
}
);
note = F.swsh;
},
{
glyphname = L.swsh;
kernLeft = B;
lastChange = "2024-03-08 15:26:52 +0000";
layers = (
{
anchors = (
{
name = bottom;
pos = (372,0);
},
{
name = center;
pos = (442,350);
},
{
name = ogonek;
pos = (434,0);
},
{
name = top;
pos = (155,660);
},
{
name = topright;
pos = (333,700);
}
);
layerId = m01;
shapes = (
{
closed = 1;
nodes = (
(544,0,o),
(665,99,o),
(665,196,qs),
(665,233,o),
(644,299,o),
(600,350,o),
(534,381,o),
(488,382,q),
(445,289,l),
(491,288,o),
(542,241,o),
(542,198,qs),
(542,152,o),
(480,111,o),
(424,111,qs),
(296,111,l),
(296,0,l),
(434,0,ls)
);
},
{
closed = 1;
nodes = (
(369,111,l),
(155,111,l),
(155,0,l),
(353,0,l)
);
},
{
closed = 1;
nodes = (
(224,660,l),
(86,660,l),
(86,0,l),
(224,0,l)
);
}
);
width = 675;
},
{
anchors = (
{
name = bottom;
pos = (372,0);
},
{
name = center;
pos = (442,350);
},
{
name = ogonek;
pos = (434,0);
},
{
name = top;
pos = (155,660);
},
{
name = topright;
pos = (333,700);
}
);
layerId = m002;
shapes = (
{
closed = 1;
nodes = (
(544,0,o),
(665,99,o),
(665,196,qs),
(665,233,o),
(644,299,o),
(600,350,o),
(534,381,o),
(488,382,q),
(445,289,l),
(491,288,o),
(542,241,o),
(542,198,qs),
(542,152,o),
(480,111,o),
(424,111,qs),
(296,111,l),
(296,0,l),
(434,0,ls)
);
},
{
closed = 1;
nodes = (
(369,111,l),
(155,111,l),
(155,0,l),
(353,0,l)
);
},
{
closed = 1;
nodes = (
(224,660,l),
(86,660,l),
(86,0,l),
(224,0,l)
);
}
);
width = 675;
},
{
anchors = (
{
name = bottom;
pos = (372,0);
},
{
name = center;
pos = (442,350);
},
{
name = ogonek;
pos = (434,0);
},
{
name = top;
pos = (155,660);
},
{
name = topright;
pos = (333,700);
}
);
layerId = m003;
shapes = (
{
closed = 1;
nodes = (
(544,0,o),
(665,99,o),
(665,196,qs),
(665,233,o),
(644,299,o),
(600,350,o),
(534,381,o),
(488,382,q),
(445,289,l),
(491,288,o),
(542,241,o),
(542,198,qs),
(542,152,o),
(480,111,o),
(424,111,qs),
(296,111,l),
(296,0,l),
(434,0,ls)
);
},
{
closed = 1;
nodes = (
(369,111,l),
(155,111,l),
(155,0,l),
(353,0,l)
);
},
{
closed = 1;
nodes = (
(224,660,l),
(86,660,l),
(86,0,l),
(224,0,l)
);
}
);
width = 675;
},
{
anchors = (
{
name = bottom;
pos = (372,0);
},
{
name = center;
pos = (442,350);
},
{
name = ogonek;
pos = (434,0);
},
{
name = top;
pos = (155,660);
},
{
name = topright;
pos = (333,700);
}
);
layerId = m004;
shapes = (
{
closed = 1;
nodes = (
(544,0,o),
(665,99,o),
(665,196,qs),
(665,233,o),
(644,299,o),
(600,350,o),
(534,381,o),
(488,382,q),
(445,289,l),
(491,288,o),
(542,241,o),
(542,198,qs),
(542,152,o),
(480,111,o),
(424,111,qs),
(296,111,l),
(296,0,l),
(434,0,ls)
);
},
{
closed = 1;
nodes = (
(369,111,l),
(155,111,l),
(155,0,l),
(353,0,l)
);
},
{
closed = 1;
nodes = (
(224,660,l),
(86,660,l),
(86,0,l),
(224,0,l)
);
}
);
width = 675;
}
);
note = L.swsh;
},
{
glyphname = Lcaron.swsh;
lastChange = "2024-03-08 15:26:52 +0000";
layers = (
{
anchors = (
{
name = bottom;
pos = (372,0);
},
{
name = center;
pos = (442,350);
},
{
name = ogonek;
pos = (434,0);
},
{
name = top;
pos = (155,660);
},
{
name = topright;
pos = (333,700);
}
);
layerId = m01;
shapes = (
{
closed = 1;
nodes = (
(313,477,l),
(395,477,l),
(443,700,l),
(333,700,l)
);
},
{
closed = 1;
nodes = (
(544,0,o),
(665,99,o),
(665,196,qs),
(665,233,o),
(644,299,o),
(600,350,o),
(534,381,o),
(488,382,q),
(445,289,l),
(491,288,o),
(542,241,o),
(542,198,qs),
(542,152,o),
(480,111,o),
(424,111,qs),
(296,111,l),
(296,0,l),
(434,0,ls)
);
},
{
closed = 1;
nodes = (
(369,111,l),
(155,111,l),
(155,0,l),
(353,0,l)
);
},
{
closed = 1;
nodes = (
(224,660,l),
(86,660,l),
(86,0,l),
(224,0,l)
);
}
);
width = 675;
},
{
anchors = (
{
name = bottom;
pos = (372,0);
},
{
name = center;
pos = (442,350);
},
{
name = ogonek;
pos = (434,0);
},
{
name = top;
pos = (155,660);
},
{
name = topright;
pos = (333,700);
}
);
layerId = m002;
shapes = (
{
closed = 1;
nodes = (
(313,477,l),
(395,477,l),
(443,700,l),
(333,700,l)
);
},
{
closed = 1;
nodes = (
(544,0,o),
(665,99,o),
(665,196,qs),
(665,233,o),
(644,299,o),
(600,350,o),
(534,381,o),
(488,382,q),
(445,289,l),
(491,288,o),
(542,241,o),
(542,198,qs),
(542,152,o),
(480,111,o),
(424,111,qs),
(296,111,l),
(296,0,l),
(434,0,ls)
);
},
{
closed = 1;
nodes = (
(369,111,l),
(155,111,l),
(155,0,l),
(353,0,l)
);
},
{
closed = 1;
nodes = (
(224,660,l),
(86,660,l),
(86,0,l),
(224,0,l)
);
}
);
width = 675;
},
{
anchors = (
{
name = bottom;
pos = (372,0);
},
{
name = center;
pos = (442,350);
},
{
name = ogonek;
pos = (434,0);
},
{
name = top;
pos = (155,660);
},
{
name = topright;
pos = (333,700);
}
);
layerId = m003;
shapes = (
{
closed = 1;
nodes = (
(313,477,l),
(395,477,l),
(443,700,l),
(333,700,l)
);
},
{
closed = 1;
nodes = (
(544,0,o),
(665,99,o),
(665,196,qs),
(665,233,o),
(644,299,o),
(600,350,o),
(534,381,o),
(488,382,q),
(445,289,l),
(491,288,o),
(542,241,o),
(542,198,qs),
(542,152,o),
(480,111,o),
(424,111,qs),
(296,111,l),
(296,0,l),
(434,0,ls)
);
},
{
closed = 1;
nodes = (
(369,111,l),
(155,111,l),
(155,0,l),
(353,0,l)
);
},
{
closed = 1;
nodes = (
(224,660,l),
(86,660,l),
(86,0,l),
(224,0,l)
);
}
);
width = 675;
},
{
anchors = (
{
name = bottom;
pos = (372,0);
},
{
name = center;
pos = (442,350);
},
{
name = ogonek;
pos = (434,0);
},
{
name = top;
pos = (155,660);
},
{
name = topright;
pos = (333,700);
}
);
layerId = m004;
shapes = (
{
closed = 1;
nodes = (
(313,477,l),
(395,477,l),
(443,700,l),
(333,700,l)
);
},
{
closed = 1;
nodes = (
(544,0,o),
(665,99,o),
(665,196,qs),
(665,233,o),
(644,299,o),
(600,350,o),
(534,381,o),
(488,382,q),
(445,289,l),
(491,288,o),
(542,241,o),
(542,198,qs),
(542,152,o),
(480,111,o),
(424,111,qs),
(296,111,l),
(296,0,l),
(434,0,ls)
);
},
{
closed = 1;
nodes = (
(369,111,l),
(155,111,l),
(155,0,l),
(353,0,l)
);
},
{
closed = 1;
nodes = (
(224,660,l),
(86,660,l),
(86,0,l),
(224,0,l)
);
}
);
width = 675;
}
);
note = Lcaron.swsh;
},
{
glyphname = Lslash.swsh;
lastChange = "2024-03-08 15:26:52 +0000";
layers = (
{
anchors = (
{
name = bottom;
pos = (425,0);
},
{
name = center;
pos = (494,350);
},
{
name = ogonek;
pos = (487,0);
},
{
name = top;
pos = (208,660);
},
{
name = topright;
pos = (386,700);
}
);
layerId = m01;
shapes = (
{
closed = 1;
nodes = (
(30,177,l),
(450,388,l),
(450,498,l),
(30,287,l)
);
},
{
closed = 1;
nodes = (
(597,0,o),
(718,99,o),
(718,196,qs),
(718,233,o),
(697,299,o),
(653,350,o),
(587,381,o),
(541,382,q),
(498,289,l),
(544,288,o),
(595,241,o),
(595,198,qs),
(595,152,o),
(533,111,o),
(477,111,qs),
(348,111,l),
(348,0,l),
(487,0,ls)
);
},
{
closed = 1;
nodes = (
(422,111,l),
(207,111,l),
(207,0,l),
(406,0,l)
);
},
{
closed = 1;
nodes = (
(277,660,l),
(139,660,l),
(139,0,l),
(277,0,l)
);
}
);
width = 728;
},
{
anchors = (
{
name = bottom;
pos = (425,0);
},
{
name = center;
pos = (494,350);
},
{
name = ogonek;
pos = (487,0);
},
{
name = top;
pos = (208,660);
},
{
name = topright;
pos = (386,700);
}
);
layerId = m002;
shapes = (
{
closed = 1;
nodes = (
(30,177,l),
(450,388,l),
(450,498,l),
(30,287,l)
);
},
{
closed = 1;
nodes = (
(597,0,o),
(718,99,o),
(718,196,qs),
(718,233,o),
(697,299,o),
(653,350,o),
(587,381,o),
(541,382,q),
(498,289,l),
(544,288,o),
(595,241,o),
(595,198,qs),
(595,152,o),
(533,111,o),
(477,111,qs),
(348,111,l),
(348,0,l),
(487,0,ls)
);
},
{
closed = 1;
nodes = (
(422,111,l),
(207,111,l),
(207,0,l),
(406,0,l)
);
},
{
closed = 1;
nodes = (
(277,660,l),
(139,660,l),
(139,0,l),
(277,0,l)
);
}
);
width = 728;
},
{
anchors = (
{
name = bottom;
pos = (425,0);
},
{
name = center;
pos = (494,350);
},
{
name = ogonek;
pos = (487,0);
},
{
name = top;
pos = (208,660);
},
{
name = topright;
pos = (386,700);
}
);
layerId = m003;
shapes = (
{
closed = 1;
nodes = (
(30,177,l),
(450,388,l),
(450,498,l),
(30,287,l)
);
},
{
closed = 1;
nodes = (
(597,0,o),
(718,99,o),
(718,196,qs),
(718,233,o),
(697,299,o),
(653,350,o),
(587,381,o),
(541,382,q),
(498,289,l),
(544,288,o),
(595,241,o),
(595,198,qs),
(595,152,o),
(533,111,o),
(477,111,qs),
(348,111,l),
(348,0,l),
(487,0,ls)
);
},
{
closed = 1;
nodes = (
(422,111,l),
(207,111,l),
(207,0,l),
(406,0,l)
);
},
{
closed = 1;
nodes = (
(277,660,l),
(139,660,l),
(139,0,l),
(277,0,l)
);
}
);
width = 728;
},
{
anchors = (
{
name = bottom;
pos = (425,0);
},
{
name = center;
pos = (494,350);
},
{
name = ogonek;
pos = (487,0);
},
{
name = top;
pos = (208,660);
},
{
name = topright;
pos = (386,700);
}
);
layerId = m004;
shapes = (
{
closed = 1;
nodes = (
(30,177,l),
(450,388,l),
(450,498,l),
(30,287,l)
);
},
{
closed = 1;
nodes = (
(597,0,o),
(718,99,o),
(718,196,qs),
(718,233,o),
(697,299,o),
(653,350,o),
(587,381,o),
(541,382,q),
(498,289,l),
(544,288,o),
(595,241,o),
(595,198,qs),
(595,152,o),
(533,111,o),
(477,111,qs),
(348,111,l),
(348,0,l),
(487,0,ls)
);
},
{
closed = 1;
nodes = (
(422,111,l),
(207,111,l),
(207,0,l),
(406,0,l)
);
},
{
closed = 1;
nodes = (
(277,660,l),
(139,660,l),
(139,0,l),
(277,0,l)
);
}
);
width = 728;
}
);
note = Lslash.swsh;
},
{
glyphname = M.swsh;
kernRight = uni018E;
lastChange = "2024-03-08 15:26:52 +0000";
layers = (
{
anchors = (
{
name = bottom;
pos = (682,0);
},
{
name = ogonek;
pos = (1041,0);
},
{
name = top;
pos = (682,660);
}
);
layerId = m01;
shapes = (
{
closed = 1;
nodes = (
(922,537,l),
(923,537,l),
(917,344,l),
(917,0,l),
(1041,0,l),
(1041,660,l),
(847,660,l),
(729,299,l),
(686,151,l),
(684,151,l),
(642,300,l),
(523,660,l),
(323,660,l),
(323,197,l),
(448,197,l),
(448,344,l),
(441,537,l),
(443,537,l),
(626,0,l),
(739,0,l)
);
},
{
closed = 1;
nodes = (
(190,370,o),
(137,423,o),
(137,462,qs),
(137,507,o),
(197,557,o),
(252,557,qs),
(469,557,l),
(469,660,l),
(241,660,ls),
(132,660,o),
(10,557,o),
(10,464,qs),
(10,408,o),
(58,323,o),
(140,273,o),
(191,268,q),
(234,364,l)
);
},
{
closed = 1;
nodes = (
(397,-61,o),
(448,30,o),
(448,94,qs),
(448,202,l),
(323,202,l),
(323,103,ls),
(323,54,o),
(269,-4,o),
(220,-4,qs),
(173,-4,o),
(120,39,o),
(107,85,q),
(46,3,l),
(65,-52,o),
(155,-110,o),
(232,-110,qs),
(300,-110,o)
);
}
);
width = 1127;
},
{
anchors = (
{
name = bottom;
pos = (682,0);
},
{
name = ogonek;
pos = (1041,0);
},
{
name = top;
pos = (682,660);
}
);
layerId = m002;
shapes = (
{
closed = 1;
nodes = (
(922,537,l),
(923,537,l),
(917,344,l),
(917,0,l),
(1041,0,l),
(1041,660,l),
(847,660,l),
(729,299,l),
(686,151,l),
(684,151,l),
(642,300,l),
(523,660,l),
(323,660,l),
(323,197,l),
(448,197,l),
(448,344,l),
(441,537,l),
(443,537,l),
(626,0,l),
(739,0,l)
);
},
{
closed = 1;
nodes = (
(190,370,o),
(137,423,o),
(137,462,qs),
(137,507,o),
(197,557,o),
(252,557,qs),
(469,557,l),
(469,660,l),
(241,660,ls),
(132,660,o),
(10,557,o),
(10,464,qs),
(10,408,o),
(58,323,o),
(140,273,o),
(191,268,q),
(234,364,l)
);
},
{
closed = 1;
nodes = (
(397,-61,o),
(448,30,o),
(448,94,qs),
(448,202,l),
(323,202,l),
(323,103,ls),
(323,54,o),
(269,-4,o),
(220,-4,qs),
(173,-4,o),
(120,39,o),
(107,85,q),
(46,3,l),
(65,-52,o),
(155,-110,o),
(232,-110,qs),
(300,-110,o)
);
}
);
width = 1127;
},
{
anchors = (
{
name = bottom;
pos = (682,0);
},
{
name = ogonek;
pos = (1041,0);
},
{
name = top;
pos = (682,660);
}
);
layerId = m003;
shapes = (
{
closed = 1;
nodes = (
(922,537,l),
(923,537,l),
(917,344,l),
(917,0,l),
(1041,0,l),
(1041,660,l),
(847,660,l),
(729,299,l),
(686,151,l),
(684,151,l),
(642,300,l),
(523,660,l),
(323,660,l),
(323,197,l),
(448,197,l),
(448,344,l),
(441,537,l),
(443,537,l),
(626,0,l),
(739,0,l)
);
},
{
closed = 1;
nodes = (
(190,370,o),
(137,423,o),
(137,462,qs),
(137,507,o),
(197,557,o),
(252,557,qs),
(469,557,l),
(469,660,l),
(241,660,ls),
(132,660,o),
(10,557,o),
(10,464,qs),
(10,408,o),
(58,323,o),
(140,273,o),
(191,268,q),
(234,364,l)
);
},
{
closed = 1;
nodes = (
(397,-61,o),
(448,30,o),
(448,94,qs),
(448,202,l),
(323,202,l),
(323,103,ls),
(323,54,o),
(269,-4,o),
(220,-4,qs),
(173,-4,o),
(120,39,o),
(107,85,q),
(46,3,l),
(65,-52,o),
(155,-110,o),
(232,-110,qs),
(300,-110,o)
);
}
);
width = 1127;
},
{
anchors = (
{
name = bottom;
pos = (682,0);
},
{
name = ogonek;
pos = (1041,0);
},
{
name = top;
pos = (682,660);
}
);
layerId = m004;
shapes = (
{
closed = 1;
nodes = (
(922,537,l),
(923,537,l),
(917,344,l),
(917,0,l),
(1041,0,l),
(1041,660,l),
(847,660,l),
(729,299,l),
(686,151,l),
(684,151,l),
(642,300,l),
(523,660,l),
(323,660,l),
(323,197,l),
(448,197,l),
(448,344,l),
(441,537,l),
(443,537,l),
(626,0,l),
(739,0,l)
);
},
{
closed = 1;
nodes = (
(190,370,o),
(137,423,o),
(137,462,qs),
(137,507,o),
(197,557,o),
(252,557,qs),
(469,557,l),
(469,660,l),
(241,660,ls),
(132,660,o),
(10,557,o),
(10,464,qs),
(10,408,o),
(58,323,o),
(140,273,o),
(191,268,q),
(234,364,l)
);
},
{
closed = 1;
nodes = (
(397,-61,o),
(448,30,o),
(448,94,qs),
(448,202,l),
(323,202,l),
(323,103,ls),
(323,54,o),
(269,-4,o),
(220,-4,qs),
(173,-4,o),
(120,39,o),
(107,85,q),
(46,3,l),
(65,-52,o),
(155,-110,o),
(232,-110,qs),
(300,-110,o)
);
}
);
width = 1127;
}
);
note = M.swsh;
},
{
glyphname = N.swsh;
kernLeft = B;
lastChange = "2024-03-08 15:26:52 +0000";
layers = (
{
anchors = (
{
name = bottom;
pos = (388,0);
},
{
name = ogonek;
pos = (653,0);
},
{
name = top;
pos = (372,660);
}
);
layerId = m01;
shapes = (
{
closed = 1;
nodes = (
(210,382,l),
(206,499,l),
(207,499,l),
(264,388,l),
(495,0,l),
(653,0,l),
(653,457,l),
(529,472,l),
(529,278,l),
(533,161,l),
(531,161,l),
(474,273,l),
(243,660,l),
(86,660,l),
(86,0,l),
(210,0,l)
);
},
{
closed = 1;
nodes = (
(653,505,ls),
(653,560,o),
(708,623,o),
(758,623,qs),
(806,623,o),
(855,584,o),
(868,540,q),
(931,620,l),
(912,671,o),
(824,729,o),
(746,729,qs),
(678,729,o),
(580,680,o),
(529,589,o),
(529,526,qs),
(529,426,l),
(653,399,l)
);
}
);
width = 739;
},
{
anchors = (
{
name = bottom;
pos = (388,0);
},
{
name = ogonek;
pos = (653,0);
},
{
name = top;
pos = (372,660);
}
);
layerId = m002;
shapes = (
{
closed = 1;
nodes = (
(210,382,l),
(206,499,l),
(207,499,l),
(264,388,l),
(495,0,l),
(653,0,l),
(653,457,l),
(529,472,l),
(529,278,l),
(533,161,l),
(531,161,l),
(474,273,l),
(243,660,l),
(86,660,l),
(86,0,l),
(210,0,l)
);
},
{
closed = 1;
nodes = (
(653,505,ls),
(653,560,o),
(708,623,o),
(758,623,qs),
(806,623,o),
(855,584,o),
(868,540,q),
(931,620,l),
(912,671,o),
(824,729,o),
(746,729,qs),
(678,729,o),
(580,680,o),
(529,589,o),
(529,526,qs),
(529,426,l),
(653,399,l)
);
}
);
width = 739;
},
{
anchors = (
{
name = bottom;
pos = (388,0);
},
{
name = ogonek;
pos = (653,0);
},
{
name = top;
pos = (372,660);
}
);
layerId = m003;
shapes = (
{
closed = 1;
nodes = (
(210,382,l),
(206,499,l),
(207,499,l),
(264,388,l),
(495,0,l),
(653,0,l),
(653,457,l),
(529,472,l),
(529,278,l),
(533,161,l),
(531,161,l),
(474,273,l),
(243,660,l),
(86,660,l),
(86,0,l),
(210,0,l)
);
},
{
closed = 1;
nodes = (
(653,505,ls),
(653,560,o),
(708,623,o),
(758,623,qs),
(806,623,o),
(855,584,o),
(868,540,q),
(931,620,l),
(912,671,o),
(824,729,o),
(746,729,qs),
(678,729,o),
(580,680,o),
(529,589,o),
(529,526,qs),
(529,426,l),
(653,399,l)
);
}
);
width = 739;
},
{
anchors = (
{
name = bottom;
pos = (388,0);
},
{
name = ogonek;
pos = (653,0);
},
{
name = top;
pos = (372,660);
}
);
layerId = m004;
shapes = (
{
closed = 1;
nodes = (
(210,382,l),
(206,499,l),
(207,499,l),
(264,388,l),
(495,0,l),
(653,0,l),
(653,457,l),
(529,472,l),
(529,278,l),
(533,161,l),
(531,161,l),
(474,273,l),
(243,660,l),
(86,660,l),
(86,0,l),
(210,0,l)
);
},
{
closed = 1;
nodes = (
(653,505,ls),
(653,560,o),
(708,623,o),
(758,623,qs),
(806,623,o),
(855,584,o),
(868,540,q),
(931,620,l),
(912,671,o),
(824,729,o),
(746,729,qs),
(678,729,o),
(580,680,o),
(529,589,o),
(529,526,qs),
(529,426,l),
(653,399,l)
);
}
);
width = 739;
}
);
note = N.swsh;
},
{
glyphname = R.swsh;
kernRight = R;
lastChange = "2024-03-08 15:26:52 +0000";
layers = (
{
anchors = (
{
name = bottom;
pos = (601,0);
},
{
name = ogonek;
pos = (893,0);
},
{
name = top;
pos = (564,660);
}
);
layerId = m01;
shapes = (
{
closed = 1;
nodes = (
(727,253,o),
(854,360,o),
(854,456,qs),
(854,553,o),
(727,660,o),
(614,660,qs),
(408,660,l),
(408,550,l),
(596,550,ls),
(657,550,o),
(713,503,o),
(713,454,qs),
(713,405,o),
(657,358,o),
(596,358,qs),
(408,358,l),
(408,253,l),
(614,253,ls)
);
},
{
closed = 1;
nodes = (
(406,-61,o),
(459,32,o),
(459,98,qs),
(459,206,l),
(323,206,l),
(323,107,ls),
(323,57,o),
(270,-4,o),
(223,-4,qs),
(176,-4,o),
(125,38,o),
(111,85,q),
(46,7,l),
(64,-49,o),
(158,-110,o),
(236,-110,qs),
(306,-110,o)
);
},
{
closed = 1;
nodes = (
(459,660,l),
(323,660,l),
(323,194,l),
(459,194,l)
);
},
{
closed = 1;
nodes = (
(679,329,l),
(561,289,l),
(738,0,l),
(893,0,l)
);
},
{
closed = 1;
nodes = (
(190,370,o),
(137,423,o),
(137,462,qs),
(137,507,o),
(197,557,o),
(252,557,qs),
(469,557,l),
(469,660,l),
(241,660,ls),
(132,660,o),
(10,557,o),
(10,464,qs),
(10,408,o),
(58,323,o),
(140,273,o),
(191,268,q),
(234,364,l)
);
}
);
width = 917;
},
{
anchors = (
{
name = bottom;
pos = (601,0);
},
{
name = ogonek;
pos = (893,0);
},
{
name = top;
pos = (564,660);
}
);
layerId = m002;
shapes = (
{
closed = 1;
nodes = (
(727,253,o),
(854,360,o),
(854,456,qs),
(854,553,o),
(727,660,o),
(614,660,qs),
(408,660,l),
(408,550,l),
(596,550,ls),
(657,550,o),
(713,503,o),
(713,454,qs),
(713,405,o),
(657,358,o),
(596,358,qs),
(408,358,l),
(408,253,l),
(614,253,ls)
);
},
{
closed = 1;
nodes = (
(406,-61,o),
(459,32,o),
(459,98,qs),
(459,206,l),
(323,206,l),
(323,107,ls),
(323,57,o),
(270,-4,o),
(223,-4,qs),
(176,-4,o),
(125,38,o),
(111,85,q),
(46,7,l),
(64,-49,o),
(158,-110,o),
(236,-110,qs),
(306,-110,o)
);
},
{
closed = 1;
nodes = (
(459,660,l),
(323,660,l),
(323,194,l),
(459,194,l)
);
},
{
closed = 1;
nodes = (
(679,329,l),
(561,289,l),
(738,0,l),
(893,0,l)
);
},
{
closed = 1;
nodes = (
(190,370,o),
(137,423,o),
(137,462,qs),
(137,507,o),
(197,557,o),
(252,557,qs),
(469,557,l),
(469,660,l),
(241,660,ls),
(132,660,o),
(10,557,o),
(10,464,qs),
(10,408,o),
(58,323,o),
(140,273,o),
(191,268,q),
(234,364,l)
);
}
);
width = 917;
},
{
anchors = (
{
name = bottom;
pos = (601,0);
},
{
name = ogonek;
pos = (893,0);
},
{
name = top;
pos = (564,660);
}
);
layerId = m003;
shapes = (
{
closed = 1;
nodes = (
(727,253,o),
(854,360,o),
(854,456,qs),
(854,553,o),
(727,660,o),
(614,660,qs),
(408,660,l),
(408,550,l),
(596,550,ls),
(657,550,o),
(713,503,o),
(713,454,qs),
(713,405,o),
(657,358,o),
(596,358,qs),
(408,358,l),
(408,253,l),
(614,253,ls)
);
},
{
closed = 1;
nodes = (
(406,-61,o),
(459,32,o),
(459,98,qs),
(459,206,l),
(323,206,l),
(323,107,ls),
(323,57,o),
(270,-4,o),
(223,-4,qs),
(176,-4,o),
(125,38,o),
(111,85,q),
(46,7,l),
(64,-49,o),
(158,-110,o),
(236,-110,qs),
(306,-110,o)
);
},
{
closed = 1;
nodes = (
(459,660,l),
(323,660,l),
(323,194,l),
(459,194,l)
);
},
{
closed = 1;
nodes = (
(679,329,l),
(561,289,l),
(738,0,l),
(893,0,l)
);
},
{
closed = 1;
nodes = (
(190,370,o),
(137,423,o),
(137,462,qs),
(137,507,o),
(197,557,o),
(252,557,qs),
(469,557,l),
(469,660,l),
(241,660,ls),
(132,660,o),
(10,557,o),
(10,464,qs),
(10,408,o),
(58,323,o),
(140,273,o),
(191,268,q),
(234,364,l)
);
}
);
width = 917;
},
{
anchors = (
{
name = bottom;
pos = (601,0);
},
{
name = ogonek;
pos = (893,0);
},
{
name = top;
pos = (564,660);
}
);
layerId = m004;
shapes = (
{
closed = 1;
nodes = (
(727,253,o),
(854,360,o),
(854,456,qs),
(854,553,o),
(727,660,o),
(614,660,qs),
(408,660,l),
(408,550,l),
(596,550,ls),
(657,550,o),
(713,503,o),
(713,454,qs),
(713,405,o),
(657,358,o),
(596,358,qs),
(408,358,l),
(408,253,l),
(614,253,ls)
);
},
{
closed = 1;
nodes = (
(406,-61,o),
(459,32,o),
(459,98,qs),
(459,206,l),
(323,206,l),
(323,107,ls),
(323,57,o),
(270,-4,o),
(223,-4,qs),
(176,-4,o),
(125,38,o),
(111,85,q),
(46,7,l),
(64,-49,o),
(158,-110,o),
(236,-110,qs),
(306,-110,o)
);
},
{
closed = 1;
nodes = (
(459,660,l),
(323,660,l),
(323,194,l),
(459,194,l)
);
},
{
closed = 1;
nodes = (
(679,329,l),
(561,289,l),
(738,0,l),
(893,0,l)
);
},
{
closed = 1;
nodes = (
(190,370,o),
(137,423,o),
(137,462,qs),
(137,507,o),
(197,557,o),
(252,557,qs),
(469,557,l),
(469,660,l),
(241,660,ls),
(132,660,o),
(10,557,o),
(10,464,qs),
(10,408,o),
(58,323,o),
(140,273,o),
(191,268,q),
(234,364,l)
);
}
);
width = 917;
}
);
note = R.swsh;
},
